%TF.GenerationSoftware,KiCad,Pcbnew,9.0.6*%
%TF.CreationDate,2026-02-07T23:32:21+00:00*%
%TF.ProjectId,vccs,76636373-2e6b-4696-9361-645f70636258,rev?*%
%TF.SameCoordinates,Original*%
%TF.FileFunction,Soldermask,Top*%
%TF.FilePolarity,Negative*%
%FSLAX46Y46*%
G04 Gerber Fmt 4.6, Leading zero omitted, Abs format (unit mm)*
G04 Created by KiCad (PCBNEW 9.0.6) date 2026-02-07 23:32:21*
%MOMM*%
%LPD*%
G01*
G04 APERTURE LIST*
G04 Aperture macros list*
%AMRoundRect*
0 Rectangle with rounded corners*
0 $1 Rounding radius*
0 $2 $3 $4 $5 $6 $7 $8 $9 X,Y pos of 4 corners*
0 Add a 4 corners polygon primitive as box body*
4,1,4,$2,$3,$4,$5,$6,$7,$8,$9,$2,$3,0*
0 Add four circle primitives for the rounded corners*
1,1,$1+$1,$2,$3*
1,1,$1+$1,$4,$5*
1,1,$1+$1,$6,$7*
1,1,$1+$1,$8,$9*
0 Add four rect primitives between the rounded corners*
20,1,$1+$1,$2,$3,$4,$5,0*
20,1,$1+$1,$4,$5,$6,$7,0*
20,1,$1+$1,$6,$7,$8,$9,0*
20,1,$1+$1,$8,$9,$2,$3,0*%
%AMFreePoly0*
4,1,9,3.862500,-0.866500,0.737500,-0.866500,0.737500,-0.450000,-0.737500,-0.450000,-0.737500,0.450000,0.737500,0.450000,0.737500,0.866500,3.862500,0.866500,3.862500,-0.866500,3.862500,-0.866500,$1*%
G04 Aperture macros list end*
%ADD10C,0.800000*%
%ADD11C,6.400000*%
%ADD12RoundRect,0.250000X0.500000X0.300000X-0.500000X0.300000X-0.500000X-0.300000X0.500000X-0.300000X0*%
%ADD13C,10.000000*%
%ADD14R,4.000000X13.200000*%
%ADD15RoundRect,0.250000X0.350000X-0.850000X0.350000X0.850000X-0.350000X0.850000X-0.350000X-0.850000X0*%
%ADD16RoundRect,0.249997X2.650003X-2.950003X2.650003X2.950003X-2.650003X2.950003X-2.650003X-2.950003X0*%
%ADD17RoundRect,0.102500X0.257500X0.102500X-0.257500X0.102500X-0.257500X-0.102500X0.257500X-0.102500X0*%
%ADD18R,0.510000X0.585000*%
%ADD19R,3.990000X3.960000*%
%ADD20R,0.410000X0.470000*%
%ADD21RoundRect,0.150000X0.512500X0.150000X-0.512500X0.150000X-0.512500X-0.150000X0.512500X-0.150000X0*%
%ADD22RoundRect,0.225000X-0.225000X-0.375000X0.225000X-0.375000X0.225000X0.375000X-0.225000X0.375000X0*%
%ADD23RoundRect,0.225000X-0.250000X0.225000X-0.250000X-0.225000X0.250000X-0.225000X0.250000X0.225000X0*%
%ADD24RoundRect,0.200000X-0.200000X-0.275000X0.200000X-0.275000X0.200000X0.275000X-0.200000X0.275000X0*%
%ADD25RoundRect,0.250000X0.475000X-0.250000X0.475000X0.250000X-0.475000X0.250000X-0.475000X-0.250000X0*%
%ADD26RoundRect,0.160000X0.222500X0.160000X-0.222500X0.160000X-0.222500X-0.160000X0.222500X-0.160000X0*%
%ADD27RoundRect,0.225000X0.225000X0.250000X-0.225000X0.250000X-0.225000X-0.250000X0.225000X-0.250000X0*%
%ADD28RoundRect,0.250000X-0.312500X-0.625000X0.312500X-0.625000X0.312500X0.625000X-0.312500X0.625000X0*%
%ADD29RoundRect,0.200000X0.275000X-0.200000X0.275000X0.200000X-0.275000X0.200000X-0.275000X-0.200000X0*%
%ADD30RoundRect,0.225000X-0.225000X-0.250000X0.225000X-0.250000X0.225000X0.250000X-0.225000X0.250000X0*%
%ADD31RoundRect,0.200000X-0.275000X0.200000X-0.275000X-0.200000X0.275000X-0.200000X0.275000X0.200000X0*%
%ADD32RoundRect,0.062500X-0.187500X-0.062500X0.187500X-0.062500X0.187500X0.062500X-0.187500X0.062500X0*%
%ADD33R,1.000000X2.650000*%
%ADD34RoundRect,0.250000X-0.350000X-0.625000X0.350000X-0.625000X0.350000X0.625000X-0.350000X0.625000X0*%
%ADD35O,1.200000X1.750000*%
%ADD36RoundRect,0.135000X0.135000X0.185000X-0.135000X0.185000X-0.135000X-0.185000X0.135000X-0.185000X0*%
%ADD37RoundRect,0.135000X0.185000X-0.135000X0.185000X0.135000X-0.185000X0.135000X-0.185000X-0.135000X0*%
%ADD38RoundRect,0.225000X0.250000X-0.225000X0.250000X0.225000X-0.250000X0.225000X-0.250000X-0.225000X0*%
%ADD39RoundRect,0.140000X-0.170000X0.140000X-0.170000X-0.140000X0.170000X-0.140000X0.170000X0.140000X0*%
%ADD40RoundRect,0.250000X0.350000X0.625000X-0.350000X0.625000X-0.350000X-0.625000X0.350000X-0.625000X0*%
%ADD41R,1.700000X1.700000*%
%ADD42C,1.700000*%
%ADD43RoundRect,0.200100X-0.949900X-0.949900X0.949900X-0.949900X0.949900X0.949900X-0.949900X0.949900X0*%
%ADD44C,2.500000*%
%ADD45RoundRect,0.150000X-0.150000X0.512500X-0.150000X-0.512500X0.150000X-0.512500X0.150000X0.512500X0*%
%ADD46RoundRect,0.125000X-0.687500X-0.125000X0.687500X-0.125000X0.687500X0.125000X-0.687500X0.125000X0*%
%ADD47RoundRect,0.160000X-0.222500X-0.160000X0.222500X-0.160000X0.222500X0.160000X-0.222500X0.160000X0*%
%ADD48RoundRect,0.225000X0.425000X0.225000X-0.425000X0.225000X-0.425000X-0.225000X0.425000X-0.225000X0*%
%ADD49FreePoly0,180.000000*%
%ADD50RoundRect,0.250000X-1.100000X0.412500X-1.100000X-0.412500X1.100000X-0.412500X1.100000X0.412500X0*%
G04 APERTURE END LIST*
D10*
%TO.C,H2*%
X147400000Y-58500000D03*
X146697056Y-60197056D03*
X146697056Y-56802944D03*
X145000000Y-60900000D03*
D11*
X145000000Y-58500000D03*
D10*
X145000000Y-56100000D03*
X143302944Y-60197056D03*
X143302944Y-56802944D03*
X142600000Y-58500000D03*
%TD*%
%TO.C,H1*%
X79900000Y-58500000D03*
X79197056Y-60197056D03*
X79197056Y-56802944D03*
X77500000Y-60900000D03*
D11*
X77500000Y-58500000D03*
D10*
X77500000Y-56100000D03*
X75802944Y-60197056D03*
X75802944Y-56802944D03*
X75100000Y-58500000D03*
%TD*%
D12*
%TO.C,SW1*%
X97250000Y-89680000D03*
X97250000Y-87140000D03*
X97250000Y-84600000D03*
X97250000Y-82060000D03*
X97250000Y-79520000D03*
X88350000Y-79520000D03*
X88350000Y-82060000D03*
X88350000Y-84600000D03*
X88350000Y-87140000D03*
X88350000Y-89680000D03*
%TD*%
D13*
%TO.C,J1*%
X145000000Y-70900000D03*
%TD*%
%TO.C,J2*%
X145000000Y-86900000D03*
%TD*%
D14*
%TO.C,HS1*%
X119100000Y-69200000D03*
X132300000Y-69200000D03*
%TD*%
D15*
%TO.C,Q1*%
X123420000Y-74240000D03*
D16*
X125700000Y-67940000D03*
D15*
X127980000Y-74240000D03*
%TD*%
D17*
%TO.C,Q3*%
X128615000Y-82005000D03*
X128615000Y-80735000D03*
X128615000Y-79465000D03*
X128615000Y-78195000D03*
D18*
X125900000Y-82372500D03*
X125900000Y-77827500D03*
D19*
X124820000Y-80100000D03*
D20*
X123030000Y-82315000D03*
X123030000Y-77885000D03*
%TD*%
D17*
%TO.C,Q4*%
X128515000Y-89005000D03*
X128515000Y-87735000D03*
X128515000Y-86465000D03*
X128515000Y-85195000D03*
D18*
X125800000Y-89372500D03*
X125800000Y-84827500D03*
D19*
X124720000Y-87100000D03*
D20*
X122930000Y-89315000D03*
X122930000Y-84885000D03*
%TD*%
D21*
%TO.C,Q7*%
X128237500Y-100500001D03*
X128237500Y-98600001D03*
X125962500Y-99550001D03*
%TD*%
%TO.C,Q6*%
X128200000Y-96900001D03*
X128200000Y-95000001D03*
X125925000Y-95950001D03*
%TD*%
%TO.C,Q5*%
X128237500Y-93250000D03*
X128237500Y-91350000D03*
X125962500Y-92300000D03*
%TD*%
D22*
%TO.C,D1*%
X107800000Y-63600000D03*
X111100000Y-63600000D03*
%TD*%
D23*
%TO.C,C13*%
X85800000Y-68625000D03*
X85800000Y-70175000D03*
%TD*%
D24*
%TO.C,R12*%
X100275000Y-87100000D03*
X101925000Y-87100000D03*
%TD*%
D25*
%TO.C,C12*%
X92600000Y-60649999D03*
X92600000Y-58750001D03*
%TD*%
D26*
%TO.C,LD5*%
X104672501Y-79500001D03*
X103527499Y-79500001D03*
%TD*%
D27*
%TO.C,C7*%
X90675000Y-73200000D03*
X89125000Y-73200000D03*
%TD*%
D28*
%TO.C,R9*%
X131737500Y-95000000D03*
X134662500Y-95000000D03*
%TD*%
D29*
%TO.C,R22*%
X101300000Y-67925000D03*
X101300000Y-66275000D03*
%TD*%
D30*
%TO.C,C5*%
X107725000Y-99400000D03*
X109275000Y-99400000D03*
%TD*%
D26*
%TO.C,LD1*%
X104672501Y-89699999D03*
X103527499Y-89699999D03*
%TD*%
%TO.C,LD4*%
X104672500Y-82000000D03*
X103527498Y-82000000D03*
%TD*%
D10*
%TO.C,H3*%
X75100000Y-99500000D03*
X75802944Y-97802944D03*
X75802944Y-101197056D03*
X77500000Y-97100000D03*
D11*
X77500000Y-99500000D03*
D10*
X77500000Y-101900000D03*
X79197056Y-97802944D03*
X79197056Y-101197056D03*
X79900000Y-99500000D03*
%TD*%
D24*
%TO.C,R5*%
X97275000Y-97100000D03*
X98925000Y-97100000D03*
%TD*%
%TO.C,R15*%
X100175000Y-79500000D03*
X101825000Y-79500000D03*
%TD*%
D31*
%TO.C,R23*%
X99500000Y-66275000D03*
X99500000Y-67925000D03*
%TD*%
D32*
%TO.C,U3*%
X89650000Y-68650000D03*
X89650000Y-69150000D03*
X89650000Y-69650000D03*
X89650000Y-70150000D03*
X89650000Y-70650000D03*
X89650000Y-71150000D03*
X91550000Y-71150000D03*
X91550000Y-70650000D03*
X91550000Y-70150000D03*
X91550000Y-69650000D03*
X91550000Y-69150000D03*
X91550000Y-68650000D03*
D33*
X90600000Y-69900000D03*
%TD*%
D29*
%TO.C,R2*%
X114700000Y-79425000D03*
X114700000Y-77775000D03*
%TD*%
D34*
%TO.C,J3*%
X108599999Y-56300000D03*
D35*
X110600000Y-56300000D03*
%TD*%
D36*
%TO.C,R20*%
X90109998Y-74600000D03*
X89090000Y-74600000D03*
%TD*%
D37*
%TO.C,R17*%
X94999999Y-68809999D03*
X94999999Y-67790001D03*
%TD*%
D38*
%TO.C,C6*%
X93500000Y-68775000D03*
X93500000Y-67225000D03*
%TD*%
D36*
%TO.C,R19*%
X92309998Y-74600000D03*
X91290000Y-74600000D03*
%TD*%
D26*
%TO.C,LD2*%
X104672501Y-87100000D03*
X103527499Y-87100000D03*
%TD*%
D39*
%TO.C,C8*%
X93400000Y-70320000D03*
X93400000Y-71280000D03*
%TD*%
D29*
%TO.C,R21*%
X97300000Y-100525000D03*
X97300000Y-98875000D03*
%TD*%
D26*
%TO.C,LD3*%
X104697501Y-84540000D03*
X103552499Y-84540000D03*
%TD*%
D28*
%TO.C,R10*%
X131737500Y-98600000D03*
X134662500Y-98600000D03*
%TD*%
%TO.C,R6*%
X131737500Y-79499999D03*
X134662500Y-79499999D03*
%TD*%
D30*
%TO.C,C9*%
X85325000Y-72200000D03*
X86875000Y-72200000D03*
%TD*%
D23*
%TO.C,C14*%
X87400000Y-68625000D03*
X87400000Y-70175000D03*
%TD*%
D40*
%TO.C,J5*%
X88500000Y-60650000D03*
D35*
X86499999Y-60650000D03*
%TD*%
D41*
%TO.C,J6*%
X77485000Y-90480000D03*
D42*
X77485000Y-87940000D03*
X77485000Y-85400001D03*
X77485000Y-82860000D03*
X77485000Y-80320000D03*
X77485000Y-77780000D03*
X77485000Y-75240000D03*
X77485000Y-72699999D03*
X77485000Y-70160000D03*
X77485000Y-67620000D03*
%TD*%
D43*
%TO.C,J4*%
X86460000Y-97460000D03*
D44*
X83920000Y-94920000D03*
X83920000Y-100000000D03*
X89000000Y-94920000D03*
X89000000Y-100000000D03*
%TD*%
D41*
%TO.C,J7*%
X120200000Y-96125000D03*
D42*
X120200000Y-98665000D03*
%TD*%
D29*
%TO.C,R3*%
X103500000Y-95225000D03*
X103500000Y-93575000D03*
%TD*%
D45*
%TO.C,Q8*%
X105549999Y-66262500D03*
X103650001Y-66262500D03*
X104600000Y-68537500D03*
%TD*%
D28*
%TO.C,R7*%
X131837500Y-86500000D03*
X134762500Y-86500000D03*
%TD*%
D37*
%TO.C,R18*%
X95000000Y-66709999D03*
X95000000Y-65690001D03*
%TD*%
D46*
%TO.C,U1*%
X107687500Y-95725000D03*
X107687500Y-96375000D03*
X107687500Y-97025000D03*
X107687500Y-97675000D03*
X111912500Y-97675000D03*
X111912500Y-97025000D03*
X111912500Y-96375000D03*
X111912500Y-95725000D03*
%TD*%
D10*
%TO.C,H4*%
X142600000Y-99500000D03*
X143302944Y-97802944D03*
X143302944Y-101197056D03*
X145000000Y-97100000D03*
D11*
X145000000Y-99500000D03*
D10*
X145000000Y-101900000D03*
X146697056Y-97802944D03*
X146697056Y-101197056D03*
X147400000Y-99500000D03*
%TD*%
D24*
%TO.C,R4*%
X103075000Y-97000000D03*
X104725000Y-97000000D03*
%TD*%
D38*
%TO.C,C3*%
X101000000Y-98575000D03*
X101000000Y-97025000D03*
%TD*%
D28*
%TO.C,R8*%
X131837500Y-91400000D03*
X134762500Y-91400000D03*
%TD*%
D24*
%TO.C,R14*%
X100175000Y-82000000D03*
X101825000Y-82000000D03*
%TD*%
D47*
%TO.C,LD6*%
X97027500Y-73750000D03*
X98172500Y-73750000D03*
%TD*%
D38*
%TO.C,C1*%
X120200000Y-84675000D03*
X120200000Y-83125000D03*
%TD*%
D24*
%TO.C,R13*%
X100200000Y-84540000D03*
X101850000Y-84540000D03*
%TD*%
D48*
%TO.C,Q2*%
X120150000Y-80900000D03*
D49*
X120062499Y-79400000D03*
D48*
X120150000Y-77900000D03*
%TD*%
D24*
%TO.C,R11*%
X100275000Y-89700000D03*
X101925000Y-89700000D03*
%TD*%
D50*
%TO.C,C11*%
X103700000Y-58337500D03*
X103700000Y-61462500D03*
%TD*%
D24*
%TO.C,R16*%
X96575000Y-72200000D03*
X98225000Y-72200000D03*
%TD*%
D29*
%TO.C,R1*%
X118600000Y-84725000D03*
X118600000Y-83075000D03*
%TD*%
D50*
%TO.C,C10*%
X99900000Y-58337500D03*
X99900000Y-61462500D03*
%TD*%
D30*
%TO.C,C4*%
X110325000Y-94000000D03*
X111875000Y-94000000D03*
%TD*%
D38*
%TO.C,C2*%
X105000000Y-95175000D03*
X105000000Y-93625000D03*
%TD*%
M02*
