M48
; DRILL file {KiCad 9.0.6} date 2026-02-07T23:32:40+0000
; FORMAT={-:-/ absolute / metric / decimal}
; #@! TF.CreationDate,2026-02-07T23:32:40+00:00
; #@! TF.GenerationSoftware,Kicad,Pcbnew,9.0.6
; #@! TF.FileFunction,Plated,1,4,PTH
FMAT,2
METRIC
; #@! TA.AperFunction,Plated,PTH,ViaDrill
T1C0.250
; #@! TA.AperFunction,Plated,PTH,ComponentDrill
T2C0.500
; #@! TA.AperFunction,Plated,PTH,ComponentDrill
T3C0.750
; #@! TA.AperFunction,Plated,PTH,ComponentDrill
T4C1.000
; #@! TA.AperFunction,Plated,PTH,ComponentDrill
T5C1.500
; #@! TA.AperFunction,Plated,PTH,ComponentDrill
T6C1.700
; #@! TA.AperFunction,Plated,PTH,ComponentDrill
T7C3.200
; #@! TA.AperFunction,Plated,PTH,ComponentDrill
T8C6.000
%
G90
G05
T1
X87.0Y-74.9
X87.0Y-75.9
X88.85Y-67.4
X89.7Y-67.4
X90.3Y-82.0
X90.3Y-84.6
X90.38Y-79.52
X90.4Y-87.2
X90.4Y-89.7
X91.29Y-75.39
X91.6Y-67.4
X91.6Y-71.9
X92.2Y-57.4
X93.1Y-57.4
X93.4Y-74.9
X93.4Y-75.9
X94.8Y-72.2
X95.5Y-73.8
X95.8Y-66.7
X97.3Y-65.5
X97.3Y-66.5
X97.3Y-69.6
X97.3Y-70.6
X98.725Y-100.525
X99.1Y-79.5
X99.1Y-87.1
X99.125Y-82.0
X99.125Y-84.5
X99.225Y-89.7
X99.5Y-69.1
X99.7Y-76.3
X101.0Y-99.9
X101.3Y-65.1
X101.3Y-69.0
X102.5Y-93.575
X103.7Y-64.75
X104.673Y-90.8
X106.1Y-93.6
X106.4Y-99.4
X107.0Y-66.3
X110.3Y-92.7
X110.6Y-99.4
X111.9Y-92.7
X113.3Y-77.8
X113.75Y-55.0
X113.75Y-59.25
X113.75Y-61.25
X113.75Y-63.25
X113.75Y-65.0
X113.75Y-67.0
X113.75Y-69.0
X113.75Y-71.0
X113.75Y-73.25
X113.75Y-75.25
X114.475Y-96.375
X115.5Y-67.5
X115.5Y-69.5
X115.5Y-71.5
X115.75Y-55.0
X116.5Y-66.5
X116.5Y-68.5
X116.5Y-70.5
X116.5Y-72.5
X117.75Y-55.0
X119.75Y-55.0
X120.2Y-85.8
X121.5Y-55.0
X122.5Y-62.0
X122.5Y-64.0
X122.5Y-71.75
X123.5Y-55.0
X123.5Y-63.0
X124.5Y-62.0
X124.5Y-64.0
X124.5Y-71.75
X125.5Y-55.0
X125.5Y-63.0
X126.5Y-62.0
X126.5Y-64.0
X126.5Y-71.75
X127.5Y-55.0
X127.5Y-63.0
X128.5Y-62.0
X128.5Y-64.0
X128.5Y-71.75
X129.25Y-55.0
X130.085Y-93.2
X130.085Y-96.9
X130.185Y-100.5
X130.385Y-89.0
X130.5Y-82.005
X131.25Y-55.0
X133.25Y-55.0
X135.0Y-55.0
X135.0Y-66.25
X135.0Y-68.25
X135.0Y-70.25
X135.0Y-72.25
X136.0Y-67.25
X136.0Y-69.25
X136.0Y-71.25
X137.0Y-55.0
X139.0Y-55.0
X141.0Y-55.0
X149.5Y-57.25
X149.5Y-59.25
X149.5Y-61.25
X149.5Y-63.0
X149.5Y-65.0
X149.5Y-67.0
T2
X75.1Y-58.5
X75.1Y-99.5
X75.803Y-56.803
X75.803Y-60.197
X75.803Y-97.803
X75.803Y-101.197
X77.5Y-56.1
X77.5Y-60.9
X77.5Y-97.1
X77.5Y-101.9
X79.197Y-56.803
X79.197Y-60.197
X79.197Y-97.803
X79.197Y-101.197
X79.9Y-58.5
X79.9Y-99.5
X142.6Y-58.5
X142.6Y-99.5
X143.303Y-56.803
X143.303Y-60.197
X143.303Y-97.803
X143.303Y-101.197
X145.0Y-56.1
X145.0Y-60.9
X145.0Y-97.1
X145.0Y-101.9
X146.697Y-56.803
X146.697Y-60.197
X146.697Y-97.803
X146.697Y-101.197
X147.4Y-58.5
X147.4Y-99.5
T3
X86.5Y-60.65
X88.5Y-60.65
X108.6Y-56.3
X110.6Y-56.3
T4
X77.485Y-67.62
X77.485Y-70.16
X77.485Y-72.7
X77.485Y-75.24
X77.485Y-77.78
X77.485Y-80.32
X77.485Y-82.86
X77.485Y-85.4
X77.485Y-87.94
X77.485Y-90.48
X120.2Y-96.125
X120.2Y-98.665
T5
X86.46Y-97.46
T6
X83.92Y-94.92
X83.92Y-100.0
X89.0Y-94.92
X89.0Y-100.0
T7
X77.5Y-58.5
X77.5Y-99.5
X145.0Y-58.5
X145.0Y-99.5
T8
X145.0Y-70.9
X145.0Y-86.9
M30
