%TF.GenerationSoftware,KiCad,Pcbnew,9.0.6*%
%TF.CreationDate,2026-02-07T23:32:21+00:00*%
%TF.ProjectId,vccs,76636373-2e6b-4696-9361-645f70636258,rev?*%
%TF.SameCoordinates,Original*%
%TF.FileFunction,Copper,L3,Inr*%
%TF.FilePolarity,Positive*%
%FSLAX46Y46*%
G04 Gerber Fmt 4.6, Leading zero omitted, Abs format (unit mm)*
G04 Created by KiCad (PCBNEW 9.0.6) date 2026-02-07 23:32:21*
%MOMM*%
%LPD*%
G01*
G04 APERTURE LIST*
G04 Aperture macros list*
%AMRoundRect*
0 Rectangle with rounded corners*
0 $1 Rounding radius*
0 $2 $3 $4 $5 $6 $7 $8 $9 X,Y pos of 4 corners*
0 Add a 4 corners polygon primitive as box body*
4,1,4,$2,$3,$4,$5,$6,$7,$8,$9,$2,$3,0*
0 Add four circle primitives for the rounded corners*
1,1,$1+$1,$2,$3*
1,1,$1+$1,$4,$5*
1,1,$1+$1,$6,$7*
1,1,$1+$1,$8,$9*
0 Add four rect primitives between the rounded corners*
20,1,$1+$1,$2,$3,$4,$5,0*
20,1,$1+$1,$4,$5,$6,$7,0*
20,1,$1+$1,$6,$7,$8,$9,0*
20,1,$1+$1,$8,$9,$2,$3,0*%
G04 Aperture macros list end*
%TA.AperFunction,ComponentPad*%
%ADD10C,0.800000*%
%TD*%
%TA.AperFunction,ComponentPad*%
%ADD11C,6.400000*%
%TD*%
%TA.AperFunction,ComponentPad*%
%ADD12C,10.000000*%
%TD*%
%TA.AperFunction,ComponentPad*%
%ADD13RoundRect,0.250000X-0.350000X-0.625000X0.350000X-0.625000X0.350000X0.625000X-0.350000X0.625000X0*%
%TD*%
%TA.AperFunction,ComponentPad*%
%ADD14O,1.200000X1.750000*%
%TD*%
%TA.AperFunction,ComponentPad*%
%ADD15RoundRect,0.250000X0.350000X0.625000X-0.350000X0.625000X-0.350000X-0.625000X0.350000X-0.625000X0*%
%TD*%
%TA.AperFunction,ComponentPad*%
%ADD16R,1.700000X1.700000*%
%TD*%
%TA.AperFunction,ComponentPad*%
%ADD17C,1.700000*%
%TD*%
%TA.AperFunction,ViaPad*%
%ADD18C,0.650000*%
%TD*%
%TA.AperFunction,Conductor*%
%ADD19C,0.200000*%
%TD*%
G04 APERTURE END LIST*
D10*
%TO.N,unconnected-(H2-Pad1)_8*%
%TO.C,H2*%
X147400000Y-58500000D03*
%TO.N,unconnected-(H2-Pad1)_7*%
X146697056Y-60197056D03*
%TO.N,unconnected-(H2-Pad1)_6*%
X146697056Y-56802944D03*
%TO.N,unconnected-(H2-Pad1)_5*%
X145000000Y-60900000D03*
D11*
%TO.N,unconnected-(H2-Pad1)_4*%
X145000000Y-58500000D03*
D10*
%TO.N,unconnected-(H2-Pad1)_3*%
X145000000Y-56100000D03*
%TO.N,unconnected-(H2-Pad1)_2*%
X143302944Y-60197056D03*
%TO.N,unconnected-(H2-Pad1)_1*%
X143302944Y-56802944D03*
%TO.N,unconnected-(H2-Pad1)*%
X142600000Y-58500000D03*
%TD*%
%TO.N,unconnected-(H1-Pad1)_8*%
%TO.C,H1*%
X79900000Y-58500000D03*
%TO.N,unconnected-(H1-Pad1)_7*%
X79197056Y-60197056D03*
%TO.N,unconnected-(H1-Pad1)_6*%
X79197056Y-56802944D03*
%TO.N,unconnected-(H1-Pad1)_5*%
X77500000Y-60900000D03*
D11*
%TO.N,unconnected-(H1-Pad1)_4*%
X77500000Y-58500000D03*
D10*
%TO.N,unconnected-(H1-Pad1)_3*%
X77500000Y-56100000D03*
%TO.N,unconnected-(H1-Pad1)_2*%
X75802944Y-60197056D03*
%TO.N,unconnected-(H1-Pad1)_1*%
X75802944Y-56802944D03*
%TO.N,unconnected-(H1-Pad1)*%
X75100000Y-58500000D03*
%TD*%
D12*
%TO.N,/sink/SINK_IN*%
%TO.C,J1*%
X145000000Y-70900000D03*
%TD*%
%TO.N,GND*%
%TO.C,J2*%
X145000000Y-86900000D03*
%TD*%
D10*
%TO.N,unconnected-(H3-Pad1)*%
%TO.C,H3*%
X75100000Y-99500000D03*
%TO.N,unconnected-(H3-Pad1)_1*%
X75802944Y-97802944D03*
%TO.N,unconnected-(H3-Pad1)_2*%
X75802944Y-101197056D03*
%TO.N,unconnected-(H3-Pad1)_3*%
X77500000Y-97100000D03*
D11*
%TO.N,unconnected-(H3-Pad1)_4*%
X77500000Y-99500000D03*
D10*
%TO.N,unconnected-(H3-Pad1)_5*%
X77500000Y-101900000D03*
%TO.N,unconnected-(H3-Pad1)_6*%
X79197056Y-97802944D03*
%TO.N,unconnected-(H3-Pad1)_7*%
X79197056Y-101197056D03*
%TO.N,unconnected-(H3-Pad1)_8*%
X79900000Y-99500000D03*
%TD*%
D13*
%TO.N,+5V*%
%TO.C,J3*%
X108599999Y-56300000D03*
D14*
%TO.N,Net-(D1-A)*%
X110600000Y-56300000D03*
%TD*%
D15*
%TO.N,+5V*%
%TO.C,J5*%
X88500000Y-60650000D03*
D14*
%TO.N,GND*%
X86499999Y-60650000D03*
%TD*%
D16*
%TO.N,/VCONTROL*%
%TO.C,J6*%
X77485000Y-90480000D03*
D17*
%TO.N,GND*%
X77485000Y-87940000D03*
%TO.N,/SINK_SELECT0*%
X77485000Y-85400001D03*
%TO.N,/SINK_SELECT1*%
X77485000Y-82860000D03*
%TO.N,/SINK_SELECT2*%
X77485000Y-80320000D03*
%TO.N,/SINK_SELECT3*%
X77485000Y-77780000D03*
%TO.N,/SINK_SELECT4*%
X77485000Y-75240000D03*
%TO.N,/FAN_EN*%
X77485000Y-72699999D03*
%TO.N,GND*%
X77485000Y-70160000D03*
%TO.N,+5V*%
X77485000Y-67620000D03*
%TD*%
D16*
%TO.N,/sink/ISENSE*%
%TO.C,J7*%
X120200000Y-96125000D03*
D17*
%TO.N,GND*%
X120200000Y-98665000D03*
%TD*%
D10*
%TO.N,unconnected-(H4-Pad1)*%
%TO.C,H4*%
X142600000Y-99500000D03*
%TO.N,unconnected-(H4-Pad1)_1*%
X143302944Y-97802944D03*
%TO.N,unconnected-(H4-Pad1)_2*%
X143302944Y-101197056D03*
%TO.N,unconnected-(H4-Pad1)_3*%
X145000000Y-97100000D03*
D11*
%TO.N,unconnected-(H4-Pad1)_4*%
X145000000Y-99500000D03*
D10*
%TO.N,unconnected-(H4-Pad1)_5*%
X145000000Y-101900000D03*
%TO.N,unconnected-(H4-Pad1)_6*%
X146697056Y-97802944D03*
%TO.N,unconnected-(H4-Pad1)_7*%
X146697056Y-101197056D03*
%TO.N,unconnected-(H4-Pad1)_8*%
X147400000Y-99500000D03*
%TD*%
D18*
%TO.N,Net-(C1-Pad1)*%
X106100000Y-93600000D03*
X120200000Y-85800000D03*
%TO.N,GND*%
X93100000Y-57400000D03*
X93400000Y-75900000D03*
X92200000Y-57400000D03*
X99500000Y-69100000D03*
X104672501Y-90800000D03*
X103700000Y-64750001D03*
X110600000Y-99400000D03*
X97300000Y-65500000D03*
X98725000Y-100525000D03*
X101000000Y-99900000D03*
X110300000Y-92700000D03*
X93400000Y-74900000D03*
X97300000Y-66500000D03*
%TO.N,+2V5*%
X97300000Y-69600000D03*
X97300000Y-70600000D03*
X111900000Y-92700000D03*
%TO.N,-2V5*%
X106400000Y-99400000D03*
X87000000Y-75900000D03*
X87000000Y-74900000D03*
%TO.N,/sink/SINK_IN*%
X149500000Y-67000000D03*
X129250000Y-55000000D03*
X135000000Y-72250000D03*
X123500000Y-55000000D03*
X128500000Y-71750000D03*
X135000000Y-70250000D03*
X124500000Y-62000000D03*
X122500000Y-71750000D03*
X135000000Y-66250000D03*
X123500000Y-63000000D03*
X128500000Y-64000000D03*
X135000000Y-55000000D03*
X127500000Y-55000000D03*
X122500000Y-64000000D03*
X126500000Y-62000000D03*
X116500000Y-72500000D03*
X136000000Y-71250000D03*
X136000000Y-67250000D03*
X113750000Y-61250001D03*
X124500000Y-71750000D03*
X133250000Y-55000000D03*
X149500000Y-57250000D03*
X115500000Y-69500000D03*
X125500000Y-63000000D03*
X113750000Y-65000000D03*
X117750000Y-55000000D03*
X121500000Y-55000000D03*
X139000000Y-55000000D03*
X141000000Y-55000000D03*
X115500000Y-67500000D03*
X126500000Y-64000000D03*
X113750000Y-59250000D03*
X124500000Y-64000000D03*
X149500000Y-61250000D03*
X116500000Y-66500000D03*
X115750000Y-55000000D03*
X113750000Y-75250000D03*
X149500000Y-63000000D03*
X113750000Y-71000000D03*
X149500000Y-64999999D03*
X113750000Y-73250001D03*
X119750000Y-55000000D03*
X136000000Y-69250000D03*
X113750000Y-69000000D03*
X113750000Y-63250000D03*
X135000000Y-68250001D03*
X115500000Y-71500000D03*
X131250000Y-55000000D03*
X122500000Y-62000000D03*
X128500000Y-62000000D03*
X116500000Y-68500000D03*
X126500000Y-71750000D03*
X127500000Y-63000000D03*
X113750000Y-55000000D03*
X125500000Y-55000000D03*
X137000000Y-55000000D03*
X113750000Y-67000001D03*
X116500000Y-70499999D03*
X149500000Y-59249999D03*
%TO.N,/SINK_SELECT0*%
X90400000Y-89700000D03*
X99225000Y-89700000D03*
X130500000Y-82005000D03*
%TO.N,/SINK_SELECT1*%
X90400000Y-87200000D03*
X130385001Y-89000000D03*
X99100000Y-87100000D03*
%TO.N,/SINK_SELECT2*%
X130085001Y-93200000D03*
X90300000Y-84600000D03*
X99125000Y-84500000D03*
%TO.N,/SINK_SELECT3*%
X90300000Y-82000000D03*
X99125000Y-82000000D03*
X130085001Y-96900000D03*
%TO.N,/SINK_SELECT4*%
X90380000Y-79520000D03*
X130185001Y-100500000D03*
X99100000Y-79500000D03*
%TO.N,+5V*%
X94800000Y-72200000D03*
X99700000Y-76300000D03*
X113300000Y-77800000D03*
X91600000Y-67400000D03*
X101300000Y-69000000D03*
%TO.N,/power/PGOOD*%
X89700000Y-67400000D03*
X95500000Y-73800000D03*
%TO.N,Net-(U3-FB-)*%
X91600000Y-71900000D03*
X91290000Y-75390000D03*
%TO.N,Net-(U3-FB+)*%
X88849997Y-67400000D03*
X95800000Y-66700000D03*
%TO.N,Net-(U1B--)*%
X102500000Y-93575000D03*
X114475000Y-96375000D03*
%TO.N,/FAN_EN*%
X101300000Y-65100000D03*
X107000000Y-66300000D03*
%TD*%
D19*
%TO.N,/SINK_SELECT1*%
X106400000Y-79800000D02*
X99100000Y-87100000D01*
X132299000Y-87086000D02*
X132299000Y-82866100D01*
X132299000Y-82866100D02*
X129232900Y-79800000D01*
X129232900Y-79800000D02*
X106400000Y-79800000D01*
X130385001Y-89000000D02*
X132299000Y-87086000D01*
%TO.N,Net-(C1-Pad1)*%
X120200000Y-89900000D02*
X116500000Y-93600000D01*
X116500000Y-93600000D02*
X106100000Y-93600000D01*
X120200000Y-85800000D02*
X120200000Y-89900000D01*
%TO.N,/SINK_SELECT0*%
X99225000Y-89675000D02*
X108500000Y-80400000D01*
X99225000Y-89700000D02*
X99225000Y-89675000D01*
X130500000Y-82000000D02*
X130500000Y-82005000D01*
X108500000Y-80400000D02*
X128900000Y-80400000D01*
X128900000Y-80400000D02*
X130500000Y-82000000D01*
%TO.N,/SINK_SELECT2*%
X129400000Y-79400000D02*
X132700000Y-82700000D01*
X130300000Y-93200000D02*
X130085001Y-93200000D01*
X99125000Y-84500000D02*
X104225000Y-79400000D01*
X104225000Y-79400000D02*
X129400000Y-79400000D01*
X132700000Y-82700000D02*
X132700000Y-90800000D01*
X132700000Y-90800000D02*
X130300000Y-93200000D01*
%TO.N,/SINK_SELECT3*%
X133300000Y-82500000D02*
X133300000Y-95800000D01*
X132200000Y-96900000D02*
X130085001Y-96900000D01*
X102225000Y-78900000D02*
X129700000Y-78900000D01*
X129700000Y-78900000D02*
X133300000Y-82500000D01*
X99125000Y-82000000D02*
X102225000Y-78900000D01*
X133300000Y-95800000D02*
X132200000Y-96900000D01*
%TO.N,/SINK_SELECT4*%
X132800000Y-78500000D02*
X100100000Y-78500000D01*
X130185001Y-100500000D02*
X134100000Y-96585002D01*
X100100000Y-78500000D02*
X99100000Y-79500000D01*
X134100000Y-79800000D02*
X132800000Y-78500000D01*
X134100000Y-96585002D02*
X134100000Y-79800000D01*
%TO.N,Net-(U3-FB-)*%
X91290000Y-72210000D02*
X91290000Y-75390000D01*
X91600000Y-71900000D02*
X91290000Y-72210000D01*
%TO.N,Net-(U3-FB+)*%
X88849997Y-67400000D02*
X88849997Y-67364705D01*
X88849997Y-67364705D02*
X89514702Y-66700000D01*
X89514702Y-66700000D02*
X95800000Y-66700000D01*
%TO.N,Net-(U1B--)*%
X105300000Y-96375000D02*
X102500000Y-93575000D01*
X114475000Y-96375000D02*
X105300000Y-96375000D01*
%TD*%
%TA.AperFunction,Conductor*%
%TO.N,+2V5*%
G36*
X97817183Y-68718907D02*
G01*
X97828996Y-68728996D01*
X98771004Y-69671004D01*
X98798781Y-69725521D01*
X98800000Y-69741008D01*
X98800000Y-79015822D01*
X98781093Y-79074013D01*
X98771004Y-79085825D01*
X98679497Y-79177332D01*
X98679495Y-79177334D01*
X98679495Y-79177335D01*
X98610312Y-79297164D01*
X98574500Y-79430817D01*
X98574500Y-79569183D01*
X98610312Y-79702836D01*
X98679495Y-79822665D01*
X98771005Y-79914175D01*
X98798781Y-79968690D01*
X98800000Y-79984177D01*
X98800000Y-81540822D01*
X98781093Y-81599013D01*
X98771004Y-81610825D01*
X98704497Y-81677332D01*
X98704495Y-81677334D01*
X98704495Y-81677335D01*
X98635312Y-81797164D01*
X98599500Y-81930817D01*
X98599500Y-82069183D01*
X98635312Y-82202836D01*
X98704495Y-82322665D01*
X98771005Y-82389175D01*
X98798781Y-82443690D01*
X98800000Y-82459177D01*
X98800000Y-84040822D01*
X98781093Y-84099013D01*
X98771004Y-84110825D01*
X98704497Y-84177332D01*
X98704495Y-84177334D01*
X98704495Y-84177335D01*
X98635312Y-84297164D01*
X98599500Y-84430817D01*
X98599500Y-84569183D01*
X98635312Y-84702836D01*
X98704495Y-84822665D01*
X98771005Y-84889175D01*
X98798781Y-84943690D01*
X98800000Y-84959177D01*
X98800000Y-86615822D01*
X98781093Y-86674013D01*
X98771004Y-86685825D01*
X98679497Y-86777332D01*
X98679495Y-86777334D01*
X98679495Y-86777335D01*
X98610312Y-86897164D01*
X98574500Y-87030817D01*
X98574500Y-87169183D01*
X98610312Y-87302836D01*
X98679495Y-87422665D01*
X98771005Y-87514175D01*
X98798781Y-87568690D01*
X98800000Y-87584177D01*
X98800000Y-89358592D01*
X98786737Y-89408091D01*
X98735312Y-89497162D01*
X98711437Y-89586266D01*
X98699500Y-89630817D01*
X98699500Y-89769183D01*
X98735312Y-89902836D01*
X98804495Y-90022665D01*
X98902335Y-90120505D01*
X99022164Y-90189688D01*
X99155817Y-90225500D01*
X99155819Y-90225500D01*
X99294181Y-90225500D01*
X99294183Y-90225500D01*
X99376763Y-90203372D01*
X99402385Y-90200000D01*
X104292114Y-90200000D01*
X104350305Y-90218907D01*
X104386269Y-90268407D01*
X104386269Y-90329593D01*
X104354318Y-90374800D01*
X104354425Y-90374907D01*
X104353805Y-90375526D01*
X104352381Y-90377542D01*
X104349841Y-90379490D01*
X104349836Y-90379495D01*
X104251996Y-90477335D01*
X104182813Y-90597164D01*
X104147001Y-90730817D01*
X104147001Y-90869183D01*
X104182813Y-91002836D01*
X104251996Y-91122665D01*
X104349836Y-91220505D01*
X104469665Y-91289688D01*
X104603318Y-91325500D01*
X104603320Y-91325500D01*
X104741682Y-91325500D01*
X104741684Y-91325500D01*
X104875337Y-91289688D01*
X104995166Y-91220505D01*
X105093006Y-91122665D01*
X105162189Y-91002836D01*
X105198001Y-90869183D01*
X105198001Y-90730817D01*
X105162189Y-90597164D01*
X105093006Y-90477335D01*
X104995166Y-90379495D01*
X104995163Y-90379493D01*
X104995160Y-90379490D01*
X104992621Y-90377542D01*
X104991322Y-90375652D01*
X104990577Y-90374907D01*
X104990715Y-90374768D01*
X104957965Y-90327118D01*
X104959566Y-90265953D01*
X104996813Y-90217412D01*
X105052888Y-90200000D01*
X111258992Y-90200000D01*
X111317183Y-90218907D01*
X111328996Y-90228996D01*
X112671004Y-91571004D01*
X112698781Y-91625521D01*
X112700000Y-91641008D01*
X112700000Y-93200500D01*
X112681093Y-93258691D01*
X112631593Y-93294655D01*
X112601000Y-93299500D01*
X110681038Y-93299500D01*
X110622847Y-93280593D01*
X110586883Y-93231093D01*
X110586883Y-93169907D01*
X110618357Y-93125374D01*
X110618076Y-93125093D01*
X110619713Y-93123455D01*
X110620774Y-93121955D01*
X110622655Y-93120510D01*
X110622665Y-93120505D01*
X110720505Y-93022665D01*
X110789688Y-92902836D01*
X110825500Y-92769183D01*
X110825500Y-92630817D01*
X110789688Y-92497164D01*
X110720505Y-92377335D01*
X110622665Y-92279495D01*
X110502836Y-92210312D01*
X110369183Y-92174500D01*
X110230817Y-92174500D01*
X110097164Y-92210312D01*
X109977335Y-92279495D01*
X109879495Y-92377335D01*
X109810312Y-92497164D01*
X109774500Y-92630817D01*
X109774500Y-92769183D01*
X109810312Y-92902836D01*
X109879495Y-93022665D01*
X109977335Y-93120505D01*
X109977340Y-93120508D01*
X109979226Y-93121955D01*
X109980193Y-93123362D01*
X109981924Y-93125093D01*
X109981603Y-93125413D01*
X110013884Y-93172378D01*
X110012285Y-93233543D01*
X109975040Y-93282086D01*
X109918962Y-93299500D01*
X106583677Y-93299500D01*
X106525486Y-93280593D01*
X106513679Y-93270509D01*
X106422665Y-93179495D01*
X106302836Y-93110312D01*
X106169183Y-93074500D01*
X106030817Y-93074500D01*
X105897164Y-93110312D01*
X105777335Y-93179495D01*
X105679493Y-93277337D01*
X105637253Y-93350500D01*
X105591784Y-93391441D01*
X105551517Y-93400000D01*
X103062917Y-93400000D01*
X103004726Y-93381093D01*
X102977181Y-93350500D01*
X102920506Y-93252337D01*
X102920505Y-93252335D01*
X102822665Y-93154495D01*
X102702836Y-93085312D01*
X102569183Y-93049500D01*
X102430817Y-93049500D01*
X102297164Y-93085312D01*
X102177335Y-93154495D01*
X102079493Y-93252337D01*
X102022819Y-93350500D01*
X101977350Y-93391441D01*
X101937083Y-93400000D01*
X97141008Y-93400000D01*
X97082817Y-93381093D01*
X97071004Y-93371004D01*
X91728996Y-88028996D01*
X91701219Y-87974479D01*
X91700000Y-87958992D01*
X91700000Y-75757386D01*
X91713264Y-75707886D01*
X91779686Y-75592839D01*
X91779688Y-75592836D01*
X91815500Y-75459183D01*
X91815500Y-75320817D01*
X91779688Y-75187164D01*
X91713262Y-75072111D01*
X91700000Y-75022613D01*
X91700000Y-74830817D01*
X92874500Y-74830817D01*
X92874500Y-74969183D01*
X92910312Y-75102836D01*
X92979495Y-75222665D01*
X93077335Y-75320505D01*
X93077337Y-75320506D01*
X93077338Y-75320507D01*
X93078576Y-75321457D01*
X93079209Y-75322378D01*
X93081924Y-75325093D01*
X93081420Y-75325596D01*
X93113233Y-75371880D01*
X93111632Y-75433045D01*
X93081514Y-75474497D01*
X93081924Y-75474907D01*
X93079341Y-75477489D01*
X93078576Y-75478543D01*
X93077338Y-75479492D01*
X93077335Y-75479495D01*
X92979495Y-75577335D01*
X92910312Y-75697164D01*
X92874500Y-75830817D01*
X92874500Y-75969183D01*
X92910312Y-76102836D01*
X92979495Y-76222665D01*
X93077335Y-76320505D01*
X93197164Y-76389688D01*
X93330817Y-76425500D01*
X93330819Y-76425500D01*
X93469181Y-76425500D01*
X93469183Y-76425500D01*
X93602836Y-76389688D01*
X93722665Y-76320505D01*
X93820505Y-76222665D01*
X93889688Y-76102836D01*
X93925500Y-75969183D01*
X93925500Y-75830817D01*
X93889688Y-75697164D01*
X93820505Y-75577335D01*
X93722665Y-75479495D01*
X93722659Y-75479491D01*
X93721429Y-75478548D01*
X93720795Y-75477626D01*
X93718076Y-75474907D01*
X93718579Y-75474403D01*
X93686769Y-75428127D01*
X93688364Y-75366962D01*
X93718485Y-75325502D01*
X93718076Y-75325093D01*
X93720663Y-75322505D01*
X93721429Y-75321452D01*
X93722654Y-75320511D01*
X93722665Y-75320505D01*
X93820505Y-75222665D01*
X93889688Y-75102836D01*
X93925500Y-74969183D01*
X93925500Y-74830817D01*
X93889688Y-74697164D01*
X93820505Y-74577335D01*
X93722665Y-74479495D01*
X93602836Y-74410312D01*
X93469183Y-74374500D01*
X93330817Y-74374500D01*
X93197164Y-74410312D01*
X93077335Y-74479495D01*
X92979495Y-74577335D01*
X92910312Y-74697164D01*
X92874500Y-74830817D01*
X91700000Y-74830817D01*
X91700000Y-73899000D01*
X91718907Y-73840809D01*
X91768407Y-73804845D01*
X91799000Y-73800000D01*
X94879997Y-73800000D01*
X94938188Y-73818907D01*
X94974152Y-73868407D01*
X94975621Y-73873368D01*
X95010312Y-74002836D01*
X95079495Y-74122665D01*
X95177335Y-74220505D01*
X95297164Y-74289688D01*
X95430817Y-74325500D01*
X95430819Y-74325500D01*
X95569181Y-74325500D01*
X95569183Y-74325500D01*
X95702836Y-74289688D01*
X95822665Y-74220505D01*
X95920505Y-74122665D01*
X95989688Y-74002836D01*
X96025500Y-73869183D01*
X96025500Y-73730817D01*
X95989688Y-73597164D01*
X95920505Y-73477335D01*
X95822665Y-73379495D01*
X95702836Y-73310312D01*
X95702835Y-73310311D01*
X95702832Y-73310310D01*
X95696841Y-73307829D01*
X95697919Y-73305226D01*
X95656483Y-73278306D01*
X95634568Y-73221180D01*
X95650415Y-73162082D01*
X95668998Y-73140858D01*
X96300000Y-72600000D01*
X96300000Y-68799000D01*
X96318907Y-68740809D01*
X96368407Y-68704845D01*
X96399000Y-68700000D01*
X97758992Y-68700000D01*
X97817183Y-68718907D01*
G37*
%TD.AperFunction*%
%TD*%
%TA.AperFunction,Conductor*%
%TO.N,-2V5*%
G36*
X88117183Y-74118907D02*
G01*
X88128996Y-74128996D01*
X91465504Y-77465504D01*
X91493281Y-77520021D01*
X91494500Y-77535508D01*
X91494500Y-87958992D01*
X91494943Y-87970279D01*
X91495134Y-87975123D01*
X91496353Y-87990602D01*
X91496354Y-87990607D01*
X91518115Y-88067769D01*
X91518117Y-88067775D01*
X91545894Y-88122291D01*
X91583681Y-88174300D01*
X91583683Y-88174302D01*
X91583686Y-88174306D01*
X96925694Y-93516314D01*
X96925707Y-93516326D01*
X96925714Y-93516333D01*
X96937534Y-93527260D01*
X96937544Y-93527269D01*
X96949357Y-93537358D01*
X97019315Y-93576536D01*
X97077506Y-93595443D01*
X97090206Y-93597454D01*
X97141004Y-93605500D01*
X97264492Y-93605500D01*
X97322683Y-93624407D01*
X97334496Y-93634496D01*
X102300000Y-98600000D01*
X108001000Y-98600000D01*
X108059191Y-98618907D01*
X108095155Y-98668407D01*
X108100000Y-98699000D01*
X108100000Y-100601000D01*
X108081093Y-100659191D01*
X108031593Y-100695155D01*
X108001000Y-100700000D01*
X99349457Y-100700000D01*
X99291266Y-100681093D01*
X99255302Y-100631593D01*
X99252453Y-100600672D01*
X99250500Y-100600672D01*
X99250500Y-100455818D01*
X99250500Y-100455817D01*
X99214688Y-100322164D01*
X99145505Y-100202335D01*
X99047665Y-100104495D01*
X98927836Y-100035312D01*
X98794183Y-99999500D01*
X98655817Y-99999500D01*
X98522164Y-100035312D01*
X98402335Y-100104495D01*
X98304495Y-100202335D01*
X98235312Y-100322164D01*
X98207624Y-100425500D01*
X98199500Y-100455818D01*
X98199500Y-100600672D01*
X98196372Y-100600672D01*
X98187520Y-100648286D01*
X98143115Y-100690379D01*
X98100543Y-100700000D01*
X97141008Y-100700000D01*
X97082817Y-100681093D01*
X97071004Y-100671004D01*
X96230817Y-99830817D01*
X100474500Y-99830817D01*
X100474500Y-99969183D01*
X100510312Y-100102836D01*
X100579495Y-100222665D01*
X100677335Y-100320505D01*
X100797164Y-100389688D01*
X100930817Y-100425500D01*
X100930819Y-100425500D01*
X101069181Y-100425500D01*
X101069183Y-100425500D01*
X101202836Y-100389688D01*
X101322665Y-100320505D01*
X101420505Y-100222665D01*
X101489688Y-100102836D01*
X101525500Y-99969183D01*
X101525500Y-99830817D01*
X101489688Y-99697164D01*
X101420505Y-99577335D01*
X101322665Y-99479495D01*
X101202836Y-99410312D01*
X101069183Y-99374500D01*
X100930817Y-99374500D01*
X100797164Y-99410312D01*
X100677335Y-99479495D01*
X100579495Y-99577335D01*
X100510312Y-99697164D01*
X100474500Y-99830817D01*
X96230817Y-99830817D01*
X86030817Y-89630817D01*
X89874500Y-89630817D01*
X89874500Y-89769183D01*
X89910312Y-89902836D01*
X89979495Y-90022665D01*
X90077335Y-90120505D01*
X90197164Y-90189688D01*
X90330817Y-90225500D01*
X90330819Y-90225500D01*
X90469181Y-90225500D01*
X90469183Y-90225500D01*
X90602836Y-90189688D01*
X90722665Y-90120505D01*
X90820505Y-90022665D01*
X90889688Y-89902836D01*
X90925500Y-89769183D01*
X90925500Y-89630817D01*
X90889688Y-89497164D01*
X90820505Y-89377335D01*
X90722665Y-89279495D01*
X90602836Y-89210312D01*
X90469183Y-89174500D01*
X90330817Y-89174500D01*
X90197164Y-89210312D01*
X90077335Y-89279495D01*
X89979495Y-89377335D01*
X89910312Y-89497164D01*
X89874500Y-89630817D01*
X86030817Y-89630817D01*
X85728996Y-89328996D01*
X85701219Y-89274479D01*
X85700000Y-89258992D01*
X85700000Y-87130817D01*
X89874500Y-87130817D01*
X89874500Y-87269183D01*
X89910312Y-87402836D01*
X89979495Y-87522665D01*
X90077335Y-87620505D01*
X90197164Y-87689688D01*
X90330817Y-87725500D01*
X90330819Y-87725500D01*
X90469181Y-87725500D01*
X90469183Y-87725500D01*
X90602836Y-87689688D01*
X90722665Y-87620505D01*
X90820505Y-87522665D01*
X90889688Y-87402836D01*
X90925500Y-87269183D01*
X90925500Y-87130817D01*
X90889688Y-86997164D01*
X90820505Y-86877335D01*
X90722665Y-86779495D01*
X90602836Y-86710312D01*
X90469183Y-86674500D01*
X90330817Y-86674500D01*
X90197164Y-86710312D01*
X90077335Y-86779495D01*
X89979495Y-86877335D01*
X89910312Y-86997164D01*
X89874500Y-87130817D01*
X85700000Y-87130817D01*
X85700000Y-84530817D01*
X89774500Y-84530817D01*
X89774500Y-84669183D01*
X89810312Y-84802836D01*
X89879495Y-84922665D01*
X89977335Y-85020505D01*
X90097164Y-85089688D01*
X90230817Y-85125500D01*
X90230819Y-85125500D01*
X90369181Y-85125500D01*
X90369183Y-85125500D01*
X90502836Y-85089688D01*
X90622665Y-85020505D01*
X90720505Y-84922665D01*
X90789688Y-84802836D01*
X90825500Y-84669183D01*
X90825500Y-84530817D01*
X90789688Y-84397164D01*
X90720505Y-84277335D01*
X90622665Y-84179495D01*
X90502836Y-84110312D01*
X90369183Y-84074500D01*
X90230817Y-84074500D01*
X90097164Y-84110312D01*
X89977335Y-84179495D01*
X89879495Y-84277335D01*
X89810312Y-84397164D01*
X89774500Y-84530817D01*
X85700000Y-84530817D01*
X85700000Y-81930817D01*
X89774500Y-81930817D01*
X89774500Y-82069183D01*
X89810312Y-82202836D01*
X89879495Y-82322665D01*
X89977335Y-82420505D01*
X90097164Y-82489688D01*
X90230817Y-82525500D01*
X90230819Y-82525500D01*
X90369181Y-82525500D01*
X90369183Y-82525500D01*
X90502836Y-82489688D01*
X90622665Y-82420505D01*
X90720505Y-82322665D01*
X90789688Y-82202836D01*
X90825500Y-82069183D01*
X90825500Y-81930817D01*
X90789688Y-81797164D01*
X90720505Y-81677335D01*
X90622665Y-81579495D01*
X90502836Y-81510312D01*
X90369183Y-81474500D01*
X90230817Y-81474500D01*
X90097164Y-81510312D01*
X89977335Y-81579495D01*
X89879495Y-81677335D01*
X89810312Y-81797164D01*
X89774500Y-81930817D01*
X85700000Y-81930817D01*
X85700000Y-79450817D01*
X89854500Y-79450817D01*
X89854500Y-79589183D01*
X89890312Y-79722836D01*
X89959495Y-79842665D01*
X90057335Y-79940505D01*
X90177164Y-80009688D01*
X90310817Y-80045500D01*
X90310819Y-80045500D01*
X90449181Y-80045500D01*
X90449183Y-80045500D01*
X90582836Y-80009688D01*
X90702665Y-79940505D01*
X90800505Y-79842665D01*
X90869688Y-79722836D01*
X90905500Y-79589183D01*
X90905500Y-79450817D01*
X90869688Y-79317164D01*
X90800505Y-79197335D01*
X90702665Y-79099495D01*
X90582836Y-79030312D01*
X90449183Y-78994500D01*
X90310817Y-78994500D01*
X90177164Y-79030312D01*
X90057335Y-79099495D01*
X89959495Y-79197335D01*
X89890312Y-79317164D01*
X89854500Y-79450817D01*
X85700000Y-79450817D01*
X85700000Y-74341008D01*
X85718907Y-74282817D01*
X85728996Y-74271004D01*
X85871004Y-74128996D01*
X85925521Y-74101219D01*
X85941008Y-74100000D01*
X88058992Y-74100000D01*
X88117183Y-74118907D01*
G37*
%TD.AperFunction*%
%TD*%
%TA.AperFunction,Conductor*%
%TO.N,+5V*%
G36*
X106153691Y-54519407D02*
G01*
X106189655Y-54568907D01*
X106194500Y-54599500D01*
X106194500Y-55633370D01*
X106194500Y-58343036D01*
X106194500Y-65919613D01*
X106203744Y-65980553D01*
X106221156Y-66036627D01*
X106221158Y-66036634D01*
X106233961Y-66068295D01*
X106233963Y-66068299D01*
X106292307Y-66138718D01*
X106292308Y-66138719D01*
X106292311Y-66138722D01*
X106317868Y-66158332D01*
X106340847Y-66175966D01*
X106353983Y-66184288D01*
X106365934Y-66198712D01*
X106381093Y-66209726D01*
X106384985Y-66221705D01*
X106393020Y-66231403D01*
X106400000Y-66267917D01*
X106400000Y-66332602D01*
X106381093Y-66390793D01*
X106352106Y-66416698D01*
X106352115Y-66416711D01*
X106351995Y-66416797D01*
X106349866Y-66418701D01*
X106347626Y-66419971D01*
X106332698Y-66430817D01*
X106304208Y-66451517D01*
X106298116Y-66455943D01*
X106270372Y-66480183D01*
X106223464Y-66558693D01*
X106223462Y-66558696D01*
X106204556Y-66616885D01*
X106194500Y-66680382D01*
X106194500Y-66680386D01*
X106194500Y-70681925D01*
X106194500Y-74658992D01*
X106195134Y-74675117D01*
X106196353Y-74690604D01*
X106218116Y-74767772D01*
X106221296Y-74774014D01*
X106223464Y-74780685D01*
X106237944Y-74814562D01*
X106251803Y-74830425D01*
X106283686Y-74874306D01*
X108225694Y-76816314D01*
X108237544Y-76827269D01*
X108249357Y-76837358D01*
X108319315Y-76876536D01*
X108377506Y-76895443D01*
X108389560Y-76897352D01*
X108441004Y-76905500D01*
X113664492Y-76905500D01*
X113722683Y-76924407D01*
X113734496Y-76934496D01*
X114071004Y-77271004D01*
X114098781Y-77325521D01*
X114100000Y-77341008D01*
X114100000Y-78058992D01*
X114097531Y-78066589D01*
X114098781Y-78074479D01*
X114088256Y-78095134D01*
X114081093Y-78117183D01*
X114071004Y-78128996D01*
X114029496Y-78170504D01*
X113974979Y-78198281D01*
X113959492Y-78199500D01*
X100139562Y-78199500D01*
X100060438Y-78199500D01*
X100013661Y-78212033D01*
X99984007Y-78219979D01*
X99915493Y-78259536D01*
X99915488Y-78259540D01*
X99604024Y-78571004D01*
X99549508Y-78598781D01*
X99534021Y-78600000D01*
X99104500Y-78600000D01*
X99046309Y-78581093D01*
X99010345Y-78531593D01*
X99005500Y-78501000D01*
X99005500Y-69741021D01*
X99005500Y-69741008D01*
X99004866Y-69724883D01*
X99003647Y-69709396D01*
X98981884Y-69632228D01*
X98954107Y-69577711D01*
X98916314Y-69525694D01*
X98421437Y-69030817D01*
X98974500Y-69030817D01*
X98974500Y-69169183D01*
X99010312Y-69302836D01*
X99079495Y-69422665D01*
X99177335Y-69520505D01*
X99297164Y-69589688D01*
X99430817Y-69625500D01*
X99430819Y-69625500D01*
X99569181Y-69625500D01*
X99569183Y-69625500D01*
X99702836Y-69589688D01*
X99822665Y-69520505D01*
X99920505Y-69422665D01*
X99989688Y-69302836D01*
X100025500Y-69169183D01*
X100025500Y-69030817D01*
X99989688Y-68897164D01*
X99920505Y-68777335D01*
X99822665Y-68679495D01*
X99702836Y-68610312D01*
X99569183Y-68574500D01*
X99430817Y-68574500D01*
X99297164Y-68610312D01*
X99177335Y-68679495D01*
X99079495Y-68777335D01*
X99010312Y-68897164D01*
X98974500Y-69030817D01*
X98421437Y-69030817D01*
X97974306Y-68583686D01*
X97974292Y-68583673D01*
X97974285Y-68583666D01*
X97962465Y-68572739D01*
X97962456Y-68572731D01*
X97950643Y-68562642D01*
X97880685Y-68523464D01*
X97822494Y-68504557D01*
X97822491Y-68504556D01*
X97822492Y-68504556D01*
X97758995Y-68494500D01*
X97758992Y-68494500D01*
X96399000Y-68494500D01*
X96366856Y-68497030D01*
X96336206Y-68501883D01*
X96331718Y-68502646D01*
X96331713Y-68502647D01*
X96247617Y-68538591D01*
X96198118Y-68574555D01*
X96170372Y-68598797D01*
X96123464Y-68677307D01*
X96123462Y-68677310D01*
X96104556Y-68735499D01*
X96094500Y-68798996D01*
X96094500Y-72459950D01*
X96075593Y-72518141D01*
X96059928Y-72535116D01*
X95535271Y-72984820D01*
X95535261Y-72984830D01*
X95514383Y-73005490D01*
X95514382Y-73005491D01*
X95495798Y-73026715D01*
X95494681Y-73028002D01*
X95494675Y-73028011D01*
X95451928Y-73108855D01*
X95451925Y-73108861D01*
X95436079Y-73167957D01*
X95436076Y-73167970D01*
X95428431Y-73211924D01*
X95426000Y-73211501D01*
X95410026Y-73258211D01*
X95359980Y-73293410D01*
X95356470Y-73294420D01*
X95297164Y-73310312D01*
X95177335Y-73379495D01*
X95079494Y-73477336D01*
X95034823Y-73554708D01*
X94989353Y-73595648D01*
X94933603Y-73602989D01*
X94889434Y-73595994D01*
X94879997Y-73594500D01*
X91799000Y-73594500D01*
X91766856Y-73597030D01*
X91736206Y-73601883D01*
X91731718Y-73602646D01*
X91731709Y-73602648D01*
X91728400Y-73604063D01*
X91726244Y-73604256D01*
X91726118Y-73604294D01*
X91726110Y-73604268D01*
X91667461Y-73609542D01*
X91614939Y-73578155D01*
X91590898Y-73521891D01*
X91590500Y-73513026D01*
X91590500Y-72522548D01*
X91609407Y-72464357D01*
X91658907Y-72428393D01*
X91663877Y-72426921D01*
X91669180Y-72425500D01*
X91669183Y-72425500D01*
X91802836Y-72389688D01*
X91922665Y-72320505D01*
X92020505Y-72222665D01*
X92089688Y-72102836D01*
X92125500Y-71969183D01*
X92125500Y-71830817D01*
X92089688Y-71697164D01*
X92020505Y-71577335D01*
X91922665Y-71479495D01*
X91802836Y-71410312D01*
X91669183Y-71374500D01*
X91530817Y-71374500D01*
X91397164Y-71410312D01*
X91277335Y-71479495D01*
X91179495Y-71577335D01*
X91110312Y-71697164D01*
X91074500Y-71830818D01*
X91074500Y-71959521D01*
X91055593Y-72017712D01*
X91053406Y-72020274D01*
X91053491Y-72020339D01*
X91049540Y-72025487D01*
X91009980Y-72094007D01*
X91009978Y-72094011D01*
X90989500Y-72170435D01*
X90989500Y-74906323D01*
X90970593Y-74964514D01*
X90960509Y-74976320D01*
X90869495Y-75067335D01*
X90800312Y-75187164D01*
X90764500Y-75320817D01*
X90764500Y-75459183D01*
X90800312Y-75592836D01*
X90869495Y-75712665D01*
X90967335Y-75810505D01*
X91087164Y-75879688D01*
X91220817Y-75915500D01*
X91220819Y-75915500D01*
X91359181Y-75915500D01*
X91359183Y-75915500D01*
X91369878Y-75912634D01*
X91430978Y-75915836D01*
X91478528Y-75954342D01*
X91494500Y-76008261D01*
X91494500Y-76964872D01*
X91475593Y-77023063D01*
X91426093Y-77059027D01*
X91364907Y-77059027D01*
X91325496Y-77034876D01*
X89809334Y-75518714D01*
X88274306Y-73983686D01*
X88274292Y-73983673D01*
X88274286Y-73983667D01*
X88262465Y-73972739D01*
X88262456Y-73972731D01*
X88250643Y-73962642D01*
X88180685Y-73923464D01*
X88122494Y-73904557D01*
X88122491Y-73904556D01*
X88122492Y-73904556D01*
X88058995Y-73894500D01*
X88058992Y-73894500D01*
X85941008Y-73894500D01*
X85930258Y-73894922D01*
X85924876Y-73895134D01*
X85911331Y-73896200D01*
X85909396Y-73896353D01*
X85909393Y-73896353D01*
X85909392Y-73896354D01*
X85832230Y-73918115D01*
X85832224Y-73918117D01*
X85777708Y-73945894D01*
X85725699Y-73983681D01*
X85583666Y-74125714D01*
X85572739Y-74137534D01*
X85562645Y-74149353D01*
X85562639Y-74149362D01*
X85523464Y-74219314D01*
X85504556Y-74277507D01*
X85494500Y-74341004D01*
X85494500Y-78501000D01*
X85475593Y-78559191D01*
X85426093Y-78595155D01*
X85395500Y-78600000D01*
X83699000Y-78600000D01*
X83640809Y-78581093D01*
X83604845Y-78531593D01*
X83600000Y-78501000D01*
X83600000Y-67330817D01*
X88324497Y-67330817D01*
X88324497Y-67469183D01*
X88360309Y-67602836D01*
X88429492Y-67722665D01*
X88527332Y-67820505D01*
X88647161Y-67889688D01*
X88780814Y-67925500D01*
X88780816Y-67925500D01*
X88919178Y-67925500D01*
X88919180Y-67925500D01*
X89052833Y-67889688D01*
X89172662Y-67820505D01*
X89204997Y-67788169D01*
X89259510Y-67760394D01*
X89319942Y-67769965D01*
X89344998Y-67788168D01*
X89377335Y-67820505D01*
X89497164Y-67889688D01*
X89630817Y-67925500D01*
X89630819Y-67925500D01*
X89769181Y-67925500D01*
X89769183Y-67925500D01*
X89902836Y-67889688D01*
X90022665Y-67820505D01*
X90120505Y-67722665D01*
X90189688Y-67602836D01*
X90225500Y-67469183D01*
X90225500Y-67330817D01*
X90189688Y-67197164D01*
X90161879Y-67148998D01*
X90149159Y-67089151D01*
X90174046Y-67033256D01*
X90227034Y-67002663D01*
X90247617Y-67000500D01*
X95316323Y-67000500D01*
X95374514Y-67019407D01*
X95386320Y-67029490D01*
X95477335Y-67120505D01*
X95597164Y-67189688D01*
X95730817Y-67225500D01*
X95730819Y-67225500D01*
X95869181Y-67225500D01*
X95869183Y-67225500D01*
X96002836Y-67189688D01*
X96122665Y-67120505D01*
X96220505Y-67022665D01*
X96289688Y-66902836D01*
X96325500Y-66769183D01*
X96325500Y-66630817D01*
X96289688Y-66497164D01*
X96220505Y-66377335D01*
X96122665Y-66279495D01*
X96002836Y-66210312D01*
X95869183Y-66174500D01*
X95730817Y-66174500D01*
X95597164Y-66210312D01*
X95477335Y-66279495D01*
X95386324Y-66370505D01*
X95331810Y-66398281D01*
X95316323Y-66399500D01*
X89475137Y-66399500D01*
X89398713Y-66419978D01*
X89344088Y-66451517D01*
X89344084Y-66451519D01*
X89330192Y-66459538D01*
X88944226Y-66845504D01*
X88889710Y-66873281D01*
X88874223Y-66874500D01*
X88780814Y-66874500D01*
X88647161Y-66910312D01*
X88527332Y-66979495D01*
X88429492Y-67077335D01*
X88360309Y-67197164D01*
X88324497Y-67330817D01*
X83600000Y-67330817D01*
X83600000Y-65430817D01*
X96774500Y-65430817D01*
X96774500Y-65569183D01*
X96810312Y-65702836D01*
X96879495Y-65822665D01*
X96977335Y-65920505D01*
X96977337Y-65920506D01*
X96977338Y-65920507D01*
X96978576Y-65921457D01*
X96979209Y-65922378D01*
X96981924Y-65925093D01*
X96981420Y-65925596D01*
X97013233Y-65971880D01*
X97011632Y-66033045D01*
X96981514Y-66074497D01*
X96981924Y-66074907D01*
X96979341Y-66077489D01*
X96978576Y-66078543D01*
X96977338Y-66079492D01*
X96977335Y-66079495D01*
X96879495Y-66177335D01*
X96810312Y-66297164D01*
X96774500Y-66430817D01*
X96774500Y-66569183D01*
X96810312Y-66702836D01*
X96879495Y-66822665D01*
X96977335Y-66920505D01*
X97097164Y-66989688D01*
X97230817Y-67025500D01*
X97230819Y-67025500D01*
X97369181Y-67025500D01*
X97369183Y-67025500D01*
X97502836Y-66989688D01*
X97622665Y-66920505D01*
X97720505Y-66822665D01*
X97789688Y-66702836D01*
X97825500Y-66569183D01*
X97825500Y-66430817D01*
X97789688Y-66297164D01*
X97720505Y-66177335D01*
X97622665Y-66079495D01*
X97622659Y-66079491D01*
X97621429Y-66078548D01*
X97620795Y-66077626D01*
X97618076Y-66074907D01*
X97618579Y-66074403D01*
X97586769Y-66028127D01*
X97588364Y-65966962D01*
X97618485Y-65925502D01*
X97618076Y-65925093D01*
X97620663Y-65922505D01*
X97621429Y-65921452D01*
X97622654Y-65920511D01*
X97622665Y-65920505D01*
X97720505Y-65822665D01*
X97789688Y-65702836D01*
X97825500Y-65569183D01*
X97825500Y-65430817D01*
X97789688Y-65297164D01*
X97720505Y-65177335D01*
X97622665Y-65079495D01*
X97538352Y-65030817D01*
X100774500Y-65030817D01*
X100774500Y-65169183D01*
X100810312Y-65302836D01*
X100879495Y-65422665D01*
X100977335Y-65520505D01*
X101097164Y-65589688D01*
X101230817Y-65625500D01*
X101230819Y-65625500D01*
X101369181Y-65625500D01*
X101369183Y-65625500D01*
X101502836Y-65589688D01*
X101622665Y-65520505D01*
X101720505Y-65422665D01*
X101789688Y-65302836D01*
X101825500Y-65169183D01*
X101825500Y-65030817D01*
X101789688Y-64897164D01*
X101720505Y-64777335D01*
X101623988Y-64680818D01*
X103174500Y-64680818D01*
X103174500Y-64819184D01*
X103210312Y-64952837D01*
X103279495Y-65072666D01*
X103377335Y-65170506D01*
X103497164Y-65239689D01*
X103630817Y-65275501D01*
X103630819Y-65275501D01*
X103769181Y-65275501D01*
X103769183Y-65275501D01*
X103902836Y-65239689D01*
X104022665Y-65170506D01*
X104120505Y-65072666D01*
X104189688Y-64952837D01*
X104225500Y-64819184D01*
X104225500Y-64680818D01*
X104189688Y-64547165D01*
X104120505Y-64427336D01*
X104022665Y-64329496D01*
X103902836Y-64260313D01*
X103769183Y-64224501D01*
X103630817Y-64224501D01*
X103497164Y-64260313D01*
X103377335Y-64329496D01*
X103279495Y-64427336D01*
X103210312Y-64547165D01*
X103174500Y-64680818D01*
X101623988Y-64680818D01*
X101622665Y-64679495D01*
X101502836Y-64610312D01*
X101369183Y-64574500D01*
X101230817Y-64574500D01*
X101097164Y-64610312D01*
X100977335Y-64679495D01*
X100879495Y-64777335D01*
X100810312Y-64897164D01*
X100774500Y-65030817D01*
X97538352Y-65030817D01*
X97502836Y-65010312D01*
X97369183Y-64974500D01*
X97230817Y-64974500D01*
X97097164Y-65010312D01*
X96977335Y-65079495D01*
X96879495Y-65177335D01*
X96810312Y-65297164D01*
X96774500Y-65430817D01*
X83600000Y-65430817D01*
X83600000Y-60296155D01*
X85699499Y-60296155D01*
X85699499Y-61003844D01*
X85730262Y-61158496D01*
X85730262Y-61158498D01*
X85790602Y-61304174D01*
X85790608Y-61304185D01*
X85843311Y-61383059D01*
X85878210Y-61435289D01*
X85989710Y-61546789D01*
X86064542Y-61596790D01*
X86120813Y-61634390D01*
X86120824Y-61634396D01*
X86174637Y-61656685D01*
X86266502Y-61694737D01*
X86421157Y-61725500D01*
X86421158Y-61725500D01*
X86578840Y-61725500D01*
X86578841Y-61725500D01*
X86733496Y-61694737D01*
X86879178Y-61634394D01*
X87010288Y-61546789D01*
X87121788Y-61435289D01*
X87209393Y-61304179D01*
X87269736Y-61158497D01*
X87300499Y-61003842D01*
X87300499Y-60296158D01*
X87269736Y-60141503D01*
X87209393Y-59995821D01*
X87209392Y-59995819D01*
X87209389Y-59995814D01*
X87192667Y-59970788D01*
X87700000Y-59970788D01*
X87700000Y-60549999D01*
X87700001Y-60550000D01*
X88138566Y-60550000D01*
X88125000Y-60600630D01*
X88125000Y-60699370D01*
X88138566Y-60750000D01*
X87700002Y-60750000D01*
X87700001Y-60750001D01*
X87700001Y-61329203D01*
X87702850Y-61359600D01*
X87702850Y-61359602D01*
X87747654Y-61487647D01*
X87828207Y-61596790D01*
X87828209Y-61596792D01*
X87937352Y-61677345D01*
X88065398Y-61722149D01*
X88095789Y-61724999D01*
X88399998Y-61724999D01*
X88400000Y-61724998D01*
X88400000Y-61011433D01*
X88450630Y-61025000D01*
X88549370Y-61025000D01*
X88600000Y-61011433D01*
X88600000Y-61724998D01*
X88600001Y-61724999D01*
X88904203Y-61724999D01*
X88934600Y-61722149D01*
X88934602Y-61722149D01*
X89062647Y-61677345D01*
X89171790Y-61596792D01*
X89171792Y-61596790D01*
X89252345Y-61487647D01*
X89297149Y-61359601D01*
X89299999Y-61329211D01*
X89300000Y-61329210D01*
X89300000Y-60750001D01*
X89299999Y-60750000D01*
X88861434Y-60750000D01*
X88875000Y-60699370D01*
X88875000Y-60600630D01*
X88861434Y-60550000D01*
X89299998Y-60550000D01*
X89299999Y-60549999D01*
X89299999Y-59970796D01*
X89297149Y-59940399D01*
X89297149Y-59940397D01*
X89252345Y-59812352D01*
X89171792Y-59703209D01*
X89171790Y-59703207D01*
X89062647Y-59622654D01*
X88934601Y-59577850D01*
X88904211Y-59575000D01*
X88600001Y-59575000D01*
X88600000Y-59575001D01*
X88600000Y-60288566D01*
X88549370Y-60275000D01*
X88450630Y-60275000D01*
X88400000Y-60288566D01*
X88400000Y-59575001D01*
X88399999Y-59575000D01*
X88095796Y-59575000D01*
X88065399Y-59577850D01*
X88065397Y-59577850D01*
X87937352Y-59622654D01*
X87828209Y-59703207D01*
X87828207Y-59703209D01*
X87747654Y-59812352D01*
X87702850Y-59940398D01*
X87700000Y-59970788D01*
X87192667Y-59970788D01*
X87172360Y-59940397D01*
X87121788Y-59864711D01*
X87010288Y-59753211D01*
X86935452Y-59703207D01*
X86879184Y-59665609D01*
X86879173Y-59665603D01*
X86733496Y-59605263D01*
X86578843Y-59574500D01*
X86578841Y-59574500D01*
X86421157Y-59574500D01*
X86421154Y-59574500D01*
X86266502Y-59605263D01*
X86266500Y-59605263D01*
X86120824Y-59665603D01*
X86120813Y-59665609D01*
X85989710Y-59753211D01*
X85989706Y-59753214D01*
X85878213Y-59864707D01*
X85878210Y-59864711D01*
X85790608Y-59995814D01*
X85790602Y-59995825D01*
X85730262Y-60141501D01*
X85730262Y-60141503D01*
X85699499Y-60296155D01*
X83600000Y-60296155D01*
X83600000Y-57330817D01*
X91674500Y-57330817D01*
X91674500Y-57469183D01*
X91710312Y-57602836D01*
X91779495Y-57722665D01*
X91877335Y-57820505D01*
X91997164Y-57889688D01*
X92130817Y-57925500D01*
X92130819Y-57925500D01*
X92269181Y-57925500D01*
X92269183Y-57925500D01*
X92402836Y-57889688D01*
X92522665Y-57820505D01*
X92579998Y-57763171D01*
X92634513Y-57735396D01*
X92694945Y-57744967D01*
X92720000Y-57763170D01*
X92777335Y-57820505D01*
X92897164Y-57889688D01*
X93030817Y-57925500D01*
X93030819Y-57925500D01*
X93169181Y-57925500D01*
X93169183Y-57925500D01*
X93302836Y-57889688D01*
X93422665Y-57820505D01*
X93520505Y-57722665D01*
X93589688Y-57602836D01*
X93625500Y-57469183D01*
X93625500Y-57330817D01*
X93589688Y-57197164D01*
X93520505Y-57077335D01*
X93422665Y-56979495D01*
X93302836Y-56910312D01*
X93169183Y-56874500D01*
X93030817Y-56874500D01*
X92897164Y-56910312D01*
X92777335Y-56979495D01*
X92720001Y-57036828D01*
X92665487Y-57064604D01*
X92605055Y-57055033D01*
X92579999Y-57036829D01*
X92522665Y-56979495D01*
X92402836Y-56910312D01*
X92269183Y-56874500D01*
X92130817Y-56874500D01*
X91997164Y-56910312D01*
X91877335Y-56979495D01*
X91779495Y-57077335D01*
X91710312Y-57197164D01*
X91674500Y-57330817D01*
X83600000Y-57330817D01*
X83600000Y-54599500D01*
X83618907Y-54541309D01*
X83668407Y-54505345D01*
X83699000Y-54500500D01*
X106095500Y-54500500D01*
X106153691Y-54519407D01*
G37*
%TD.AperFunction*%
%TD*%
%TA.AperFunction,Conductor*%
%TO.N,/sink/SINK_IN*%
G36*
X148002992Y-54500681D02*
G01*
X148295309Y-54518362D01*
X148307164Y-54519802D01*
X148592281Y-54572051D01*
X148603883Y-54574911D01*
X148880623Y-54661147D01*
X148891786Y-54665380D01*
X149156119Y-54784347D01*
X149166704Y-54789903D01*
X149414758Y-54939856D01*
X149424583Y-54946638D01*
X149619697Y-55099500D01*
X149652755Y-55125399D01*
X149661704Y-55133326D01*
X149866673Y-55338295D01*
X149874600Y-55347244D01*
X149995481Y-55501538D01*
X150053356Y-55575409D01*
X150060145Y-55585245D01*
X150081595Y-55620727D01*
X150210096Y-55833295D01*
X150215652Y-55843880D01*
X150334616Y-56108206D01*
X150338855Y-56119384D01*
X150425087Y-56396113D01*
X150427948Y-56407721D01*
X150480196Y-56692828D01*
X150481637Y-56704695D01*
X150499319Y-56997006D01*
X150499500Y-57002984D01*
X150499500Y-76601000D01*
X150480593Y-76659191D01*
X150431093Y-76695155D01*
X150400500Y-76700000D01*
X108441008Y-76700000D01*
X108382817Y-76681093D01*
X108371004Y-76671004D01*
X106428996Y-74728996D01*
X106425369Y-74721878D01*
X106418907Y-74717183D01*
X106411743Y-74695134D01*
X106401219Y-74674479D01*
X106400000Y-74658992D01*
X106400000Y-70672954D01*
X139800000Y-70672954D01*
X139800000Y-71127045D01*
X139839574Y-71579376D01*
X139839574Y-71579381D01*
X139918422Y-72026551D01*
X139918423Y-72026554D01*
X140035943Y-72465148D01*
X140191247Y-72891841D01*
X140383152Y-73303386D01*
X140610179Y-73696609D01*
X140610193Y-73696631D01*
X140870625Y-74068566D01*
X140870637Y-74068582D01*
X141162495Y-74416405D01*
X141252333Y-74506243D01*
X142807967Y-72950608D01*
X142949390Y-73092031D01*
X141393756Y-74647666D01*
X141483594Y-74737504D01*
X141831417Y-75029362D01*
X141831433Y-75029374D01*
X142203368Y-75289806D01*
X142203390Y-75289820D01*
X142596613Y-75516847D01*
X143008158Y-75708752D01*
X143434851Y-75864056D01*
X143434850Y-75864056D01*
X143873445Y-75981576D01*
X143873448Y-75981577D01*
X144320620Y-76060425D01*
X144772955Y-76100000D01*
X145227045Y-76100000D01*
X145679376Y-76060425D01*
X145679381Y-76060425D01*
X146126551Y-75981577D01*
X146126554Y-75981576D01*
X146565148Y-75864056D01*
X146991841Y-75708752D01*
X147403386Y-75516847D01*
X147796609Y-75289820D01*
X147796631Y-75289806D01*
X148168566Y-75029374D01*
X148168582Y-75029362D01*
X148516411Y-74737499D01*
X148606244Y-74647666D01*
X147050609Y-73092031D01*
X147192032Y-72950609D01*
X148747666Y-74506243D01*
X148837499Y-74416411D01*
X149129362Y-74068582D01*
X149129374Y-74068566D01*
X149389806Y-73696631D01*
X149389820Y-73696609D01*
X149616847Y-73303386D01*
X149808752Y-72891841D01*
X149964056Y-72465148D01*
X150081576Y-72026554D01*
X150081577Y-72026551D01*
X150160425Y-71579381D01*
X150160425Y-71579376D01*
X150200000Y-71127045D01*
X150200000Y-70672954D01*
X150160425Y-70220623D01*
X150160425Y-70220618D01*
X150081577Y-69773448D01*
X150081576Y-69773445D01*
X149964056Y-69334851D01*
X149808752Y-68908158D01*
X149616847Y-68496613D01*
X149389820Y-68103390D01*
X149389806Y-68103368D01*
X149129374Y-67731433D01*
X149129362Y-67731417D01*
X148837504Y-67383594D01*
X148747666Y-67293756D01*
X147192031Y-68849390D01*
X147050608Y-68707967D01*
X148606243Y-67152333D01*
X148516405Y-67062495D01*
X148168582Y-66770637D01*
X148168566Y-66770625D01*
X147796631Y-66510193D01*
X147796609Y-66510179D01*
X147403386Y-66283152D01*
X146991841Y-66091247D01*
X146565148Y-65935943D01*
X146565149Y-65935943D01*
X146126554Y-65818423D01*
X146126551Y-65818422D01*
X145679379Y-65739574D01*
X145227045Y-65700000D01*
X144772955Y-65700000D01*
X144320623Y-65739574D01*
X144320618Y-65739574D01*
X143873448Y-65818422D01*
X143873445Y-65818423D01*
X143434851Y-65935943D01*
X143008158Y-66091247D01*
X142596613Y-66283152D01*
X142203390Y-66510179D01*
X142203368Y-66510193D01*
X141831433Y-66770625D01*
X141831417Y-66770637D01*
X141483588Y-67062500D01*
X141393755Y-67152332D01*
X142949391Y-68707968D01*
X142807968Y-68849391D01*
X141252332Y-67293755D01*
X141162500Y-67383588D01*
X140870637Y-67731417D01*
X140870625Y-67731433D01*
X140610193Y-68103368D01*
X140610179Y-68103390D01*
X140383152Y-68496613D01*
X140191247Y-68908158D01*
X140035943Y-69334851D01*
X139918423Y-69773445D01*
X139918422Y-69773448D01*
X139839574Y-70220618D01*
X139839574Y-70220623D01*
X139800000Y-70672954D01*
X106400000Y-70672954D01*
X106400000Y-66680386D01*
X106418907Y-66622195D01*
X106468407Y-66586231D01*
X106529593Y-66586231D01*
X106574799Y-66618183D01*
X106574907Y-66618076D01*
X106575530Y-66618699D01*
X106577546Y-66620124D01*
X106579493Y-66622662D01*
X106579495Y-66622665D01*
X106677335Y-66720505D01*
X106797164Y-66789688D01*
X106930817Y-66825500D01*
X106930819Y-66825500D01*
X107069181Y-66825500D01*
X107069183Y-66825500D01*
X107202836Y-66789688D01*
X107322665Y-66720505D01*
X107420505Y-66622665D01*
X107489688Y-66502836D01*
X107525500Y-66369183D01*
X107525500Y-66230817D01*
X107489688Y-66097164D01*
X107420505Y-65977335D01*
X107322665Y-65879495D01*
X107202836Y-65810312D01*
X107069183Y-65774500D01*
X106930817Y-65774500D01*
X106797164Y-65810312D01*
X106677335Y-65879495D01*
X106579490Y-65977340D01*
X106577542Y-65979880D01*
X106575652Y-65981178D01*
X106574907Y-65981924D01*
X106574768Y-65981785D01*
X106527118Y-66014536D01*
X106465953Y-66012935D01*
X106417412Y-65975688D01*
X106400000Y-65919613D01*
X106400000Y-58332946D01*
X141599500Y-58332946D01*
X141599500Y-58667053D01*
X141632248Y-58999555D01*
X141697431Y-59327253D01*
X141794414Y-59646967D01*
X141922273Y-59955645D01*
X141922286Y-59955672D01*
X142079773Y-60250312D01*
X142218993Y-60458667D01*
X142265399Y-60528118D01*
X142477357Y-60786390D01*
X142713610Y-61022643D01*
X142971882Y-61234601D01*
X143110783Y-61327412D01*
X143249687Y-61420226D01*
X143544327Y-61577713D01*
X143544346Y-61577723D01*
X143853024Y-61705582D01*
X143853026Y-61705582D01*
X143853032Y-61705585D01*
X144129376Y-61789412D01*
X144172749Y-61802569D01*
X144500441Y-61867751D01*
X144832944Y-61900500D01*
X144832947Y-61900500D01*
X145167053Y-61900500D01*
X145167056Y-61900500D01*
X145499559Y-61867751D01*
X145827251Y-61802569D01*
X146016857Y-61745052D01*
X146146967Y-61705585D01*
X146146969Y-61705583D01*
X146146976Y-61705582D01*
X146455654Y-61577723D01*
X146599640Y-61500760D01*
X146750312Y-61420226D01*
X146750315Y-61420224D01*
X147028118Y-61234601D01*
X147286390Y-61022643D01*
X147522643Y-60786390D01*
X147734601Y-60528118D01*
X147920224Y-60250315D01*
X148077723Y-59955654D01*
X148205582Y-59646976D01*
X148302569Y-59327251D01*
X148367751Y-58999559D01*
X148400500Y-58667056D01*
X148400500Y-58332944D01*
X148367751Y-58000441D01*
X148302569Y-57672749D01*
X148289412Y-57629376D01*
X148205585Y-57353032D01*
X148195131Y-57327792D01*
X148077723Y-57044346D01*
X148054020Y-57000000D01*
X147920226Y-56749687D01*
X147743867Y-56485750D01*
X147734601Y-56471882D01*
X147522643Y-56213610D01*
X147286390Y-55977357D01*
X147028118Y-55765399D01*
X146958667Y-55718993D01*
X146750312Y-55579773D01*
X146455672Y-55422286D01*
X146455660Y-55422280D01*
X146455654Y-55422277D01*
X146455649Y-55422274D01*
X146455645Y-55422273D01*
X146146967Y-55294414D01*
X145827253Y-55197431D01*
X145504973Y-55133326D01*
X145499559Y-55132249D01*
X145499557Y-55132248D01*
X145256491Y-55108308D01*
X145167056Y-55099500D01*
X144832944Y-55099500D01*
X144734700Y-55109176D01*
X144500444Y-55132248D01*
X144172746Y-55197431D01*
X143853032Y-55294414D01*
X143544354Y-55422273D01*
X143544327Y-55422286D01*
X143249687Y-55579773D01*
X142971880Y-55765400D01*
X142713615Y-55977352D01*
X142477352Y-56213615D01*
X142265400Y-56471880D01*
X142079773Y-56749687D01*
X141922286Y-57044327D01*
X141922273Y-57044354D01*
X141794414Y-57353032D01*
X141697431Y-57672746D01*
X141632248Y-58000444D01*
X141599500Y-58332946D01*
X106400000Y-58332946D01*
X106400000Y-55620725D01*
X107799499Y-55620725D01*
X107799499Y-56979274D01*
X107802352Y-57009694D01*
X107802354Y-57009703D01*
X107847206Y-57137883D01*
X107927844Y-57247144D01*
X107927846Y-57247146D01*
X107927849Y-57247150D01*
X107927852Y-57247152D01*
X107927854Y-57247154D01*
X108037115Y-57327792D01*
X108037116Y-57327792D01*
X108037117Y-57327793D01*
X108165300Y-57372646D01*
X108195724Y-57375499D01*
X108195726Y-57375500D01*
X108195733Y-57375500D01*
X109004272Y-57375500D01*
X109004272Y-57375499D01*
X109034698Y-57372646D01*
X109162881Y-57327793D01*
X109272149Y-57247150D01*
X109352792Y-57137882D01*
X109397645Y-57009699D01*
X109400498Y-56979273D01*
X109400499Y-56979273D01*
X109400499Y-55946155D01*
X109799500Y-55946155D01*
X109799500Y-56653844D01*
X109830263Y-56808496D01*
X109830263Y-56808498D01*
X109890603Y-56954174D01*
X109890609Y-56954185D01*
X109923216Y-57002984D01*
X109978211Y-57085289D01*
X110089711Y-57196789D01*
X110167876Y-57249017D01*
X110220814Y-57284390D01*
X110220825Y-57284396D01*
X110274638Y-57306685D01*
X110366503Y-57344737D01*
X110521158Y-57375500D01*
X110521159Y-57375500D01*
X110678841Y-57375500D01*
X110678842Y-57375500D01*
X110833497Y-57344737D01*
X110979179Y-57284394D01*
X111110289Y-57196789D01*
X111221789Y-57085289D01*
X111309394Y-56954179D01*
X111369737Y-56808497D01*
X111400500Y-56653842D01*
X111400500Y-55946158D01*
X111369737Y-55791503D01*
X111309394Y-55645821D01*
X111309393Y-55645819D01*
X111309390Y-55645814D01*
X111262346Y-55575409D01*
X111221789Y-55514711D01*
X111110289Y-55403211D01*
X111026529Y-55347244D01*
X110979185Y-55315609D01*
X110979174Y-55315603D01*
X110833497Y-55255263D01*
X110678844Y-55224500D01*
X110678842Y-55224500D01*
X110521158Y-55224500D01*
X110521155Y-55224500D01*
X110366503Y-55255263D01*
X110366501Y-55255263D01*
X110220825Y-55315603D01*
X110220814Y-55315609D01*
X110089711Y-55403211D01*
X110089707Y-55403214D01*
X109978214Y-55514707D01*
X109978211Y-55514711D01*
X109890609Y-55645814D01*
X109890603Y-55645825D01*
X109830263Y-55791501D01*
X109830263Y-55791503D01*
X109799500Y-55946155D01*
X109400499Y-55946155D01*
X109400499Y-55620727D01*
X109400498Y-55620725D01*
X109397645Y-55590305D01*
X109397645Y-55590301D01*
X109352792Y-55462118D01*
X109323388Y-55422277D01*
X109272153Y-55352855D01*
X109272151Y-55352853D01*
X109272149Y-55352850D01*
X109272145Y-55352847D01*
X109272143Y-55352845D01*
X109162882Y-55272207D01*
X109034702Y-55227355D01*
X109034693Y-55227353D01*
X109004273Y-55224500D01*
X109004265Y-55224500D01*
X108195733Y-55224500D01*
X108195724Y-55224500D01*
X108165304Y-55227353D01*
X108165295Y-55227355D01*
X108037115Y-55272207D01*
X107927854Y-55352845D01*
X107927844Y-55352855D01*
X107847206Y-55462116D01*
X107802354Y-55590296D01*
X107802352Y-55590305D01*
X107799499Y-55620725D01*
X106400000Y-55620725D01*
X106400000Y-54599500D01*
X106418907Y-54541309D01*
X106468407Y-54505345D01*
X106499000Y-54500500D01*
X147934108Y-54500500D01*
X147997015Y-54500500D01*
X148002992Y-54500681D01*
G37*
%TD.AperFunction*%
%TD*%
M02*
