%TF.GenerationSoftware,KiCad,Pcbnew,9.0.6*%
%TF.CreationDate,2026-02-07T23:32:21+00:00*%
%TF.ProjectId,vccs,76636373-2e6b-4696-9361-645f70636258,rev?*%
%TF.SameCoordinates,Original*%
%TF.FileFunction,Copper,L1,Top*%
%TF.FilePolarity,Positive*%
%FSLAX46Y46*%
G04 Gerber Fmt 4.6, Leading zero omitted, Abs format (unit mm)*
G04 Created by KiCad (PCBNEW 9.0.6) date 2026-02-07 23:32:21*
%MOMM*%
%LPD*%
G01*
G04 APERTURE LIST*
G04 Aperture macros list*
%AMRoundRect*
0 Rectangle with rounded corners*
0 $1 Rounding radius*
0 $2 $3 $4 $5 $6 $7 $8 $9 X,Y pos of 4 corners*
0 Add a 4 corners polygon primitive as box body*
4,1,4,$2,$3,$4,$5,$6,$7,$8,$9,$2,$3,0*
0 Add four circle primitives for the rounded corners*
1,1,$1+$1,$2,$3*
1,1,$1+$1,$4,$5*
1,1,$1+$1,$6,$7*
1,1,$1+$1,$8,$9*
0 Add four rect primitives between the rounded corners*
20,1,$1+$1,$2,$3,$4,$5,0*
20,1,$1+$1,$4,$5,$6,$7,0*
20,1,$1+$1,$6,$7,$8,$9,0*
20,1,$1+$1,$8,$9,$2,$3,0*%
%AMFreePoly0*
4,1,9,3.862500,-0.866500,0.737500,-0.866500,0.737500,-0.450000,-0.737500,-0.450000,-0.737500,0.450000,0.737500,0.450000,0.737500,0.866500,3.862500,0.866500,3.862500,-0.866500,3.862500,-0.866500,$1*%
G04 Aperture macros list end*
%TA.AperFunction,ComponentPad*%
%ADD10C,0.800000*%
%TD*%
%TA.AperFunction,ComponentPad*%
%ADD11C,6.400000*%
%TD*%
%TA.AperFunction,SMDPad,CuDef*%
%ADD12RoundRect,0.250000X0.500000X0.300000X-0.500000X0.300000X-0.500000X-0.300000X0.500000X-0.300000X0*%
%TD*%
%TA.AperFunction,ComponentPad*%
%ADD13C,10.000000*%
%TD*%
%TA.AperFunction,SMDPad,CuDef*%
%ADD14R,4.000000X13.200000*%
%TD*%
%TA.AperFunction,SMDPad,CuDef*%
%ADD15RoundRect,0.250000X0.350000X-0.850000X0.350000X0.850000X-0.350000X0.850000X-0.350000X-0.850000X0*%
%TD*%
%TA.AperFunction,SMDPad,CuDef*%
%ADD16RoundRect,0.249997X2.650003X-2.950003X2.650003X2.950003X-2.650003X2.950003X-2.650003X-2.950003X0*%
%TD*%
%TA.AperFunction,SMDPad,CuDef*%
%ADD17RoundRect,0.102500X0.257500X0.102500X-0.257500X0.102500X-0.257500X-0.102500X0.257500X-0.102500X0*%
%TD*%
%TA.AperFunction,SMDPad,CuDef*%
%ADD18R,0.510000X0.585000*%
%TD*%
%TA.AperFunction,SMDPad,CuDef*%
%ADD19R,3.990000X3.960000*%
%TD*%
%TA.AperFunction,SMDPad,CuDef*%
%ADD20R,0.410000X0.470000*%
%TD*%
%TA.AperFunction,SMDPad,CuDef*%
%ADD21RoundRect,0.150000X0.512500X0.150000X-0.512500X0.150000X-0.512500X-0.150000X0.512500X-0.150000X0*%
%TD*%
%TA.AperFunction,SMDPad,CuDef*%
%ADD22RoundRect,0.225000X-0.225000X-0.375000X0.225000X-0.375000X0.225000X0.375000X-0.225000X0.375000X0*%
%TD*%
%TA.AperFunction,SMDPad,CuDef*%
%ADD23RoundRect,0.225000X-0.250000X0.225000X-0.250000X-0.225000X0.250000X-0.225000X0.250000X0.225000X0*%
%TD*%
%TA.AperFunction,SMDPad,CuDef*%
%ADD24RoundRect,0.200000X-0.200000X-0.275000X0.200000X-0.275000X0.200000X0.275000X-0.200000X0.275000X0*%
%TD*%
%TA.AperFunction,SMDPad,CuDef*%
%ADD25RoundRect,0.250000X0.475000X-0.250000X0.475000X0.250000X-0.475000X0.250000X-0.475000X-0.250000X0*%
%TD*%
%TA.AperFunction,SMDPad,CuDef*%
%ADD26RoundRect,0.160000X0.222500X0.160000X-0.222500X0.160000X-0.222500X-0.160000X0.222500X-0.160000X0*%
%TD*%
%TA.AperFunction,SMDPad,CuDef*%
%ADD27RoundRect,0.225000X0.225000X0.250000X-0.225000X0.250000X-0.225000X-0.250000X0.225000X-0.250000X0*%
%TD*%
%TA.AperFunction,SMDPad,CuDef*%
%ADD28RoundRect,0.250000X-0.312500X-0.625000X0.312500X-0.625000X0.312500X0.625000X-0.312500X0.625000X0*%
%TD*%
%TA.AperFunction,SMDPad,CuDef*%
%ADD29RoundRect,0.200000X0.275000X-0.200000X0.275000X0.200000X-0.275000X0.200000X-0.275000X-0.200000X0*%
%TD*%
%TA.AperFunction,SMDPad,CuDef*%
%ADD30RoundRect,0.225000X-0.225000X-0.250000X0.225000X-0.250000X0.225000X0.250000X-0.225000X0.250000X0*%
%TD*%
%TA.AperFunction,SMDPad,CuDef*%
%ADD31RoundRect,0.200000X-0.275000X0.200000X-0.275000X-0.200000X0.275000X-0.200000X0.275000X0.200000X0*%
%TD*%
%TA.AperFunction,SMDPad,CuDef*%
%ADD32RoundRect,0.062500X-0.187500X-0.062500X0.187500X-0.062500X0.187500X0.062500X-0.187500X0.062500X0*%
%TD*%
%TA.AperFunction,SMDPad,CuDef*%
%ADD33R,1.000000X2.650000*%
%TD*%
%TA.AperFunction,ComponentPad*%
%ADD34RoundRect,0.250000X-0.350000X-0.625000X0.350000X-0.625000X0.350000X0.625000X-0.350000X0.625000X0*%
%TD*%
%TA.AperFunction,ComponentPad*%
%ADD35O,1.200000X1.750000*%
%TD*%
%TA.AperFunction,SMDPad,CuDef*%
%ADD36RoundRect,0.135000X0.135000X0.185000X-0.135000X0.185000X-0.135000X-0.185000X0.135000X-0.185000X0*%
%TD*%
%TA.AperFunction,SMDPad,CuDef*%
%ADD37RoundRect,0.135000X0.185000X-0.135000X0.185000X0.135000X-0.185000X0.135000X-0.185000X-0.135000X0*%
%TD*%
%TA.AperFunction,SMDPad,CuDef*%
%ADD38RoundRect,0.225000X0.250000X-0.225000X0.250000X0.225000X-0.250000X0.225000X-0.250000X-0.225000X0*%
%TD*%
%TA.AperFunction,SMDPad,CuDef*%
%ADD39RoundRect,0.140000X-0.170000X0.140000X-0.170000X-0.140000X0.170000X-0.140000X0.170000X0.140000X0*%
%TD*%
%TA.AperFunction,ComponentPad*%
%ADD40RoundRect,0.250000X0.350000X0.625000X-0.350000X0.625000X-0.350000X-0.625000X0.350000X-0.625000X0*%
%TD*%
%TA.AperFunction,ComponentPad*%
%ADD41R,1.700000X1.700000*%
%TD*%
%TA.AperFunction,ComponentPad*%
%ADD42C,1.700000*%
%TD*%
%TA.AperFunction,ComponentPad*%
%ADD43RoundRect,0.200100X-0.949900X-0.949900X0.949900X-0.949900X0.949900X0.949900X-0.949900X0.949900X0*%
%TD*%
%TA.AperFunction,ComponentPad*%
%ADD44C,2.500000*%
%TD*%
%TA.AperFunction,SMDPad,CuDef*%
%ADD45RoundRect,0.150000X-0.150000X0.512500X-0.150000X-0.512500X0.150000X-0.512500X0.150000X0.512500X0*%
%TD*%
%TA.AperFunction,SMDPad,CuDef*%
%ADD46RoundRect,0.125000X-0.687500X-0.125000X0.687500X-0.125000X0.687500X0.125000X-0.687500X0.125000X0*%
%TD*%
%TA.AperFunction,SMDPad,CuDef*%
%ADD47RoundRect,0.160000X-0.222500X-0.160000X0.222500X-0.160000X0.222500X0.160000X-0.222500X0.160000X0*%
%TD*%
%TA.AperFunction,SMDPad,CuDef*%
%ADD48RoundRect,0.225000X0.425000X0.225000X-0.425000X0.225000X-0.425000X-0.225000X0.425000X-0.225000X0*%
%TD*%
%TA.AperFunction,SMDPad,CuDef*%
%ADD49FreePoly0,180.000000*%
%TD*%
%TA.AperFunction,SMDPad,CuDef*%
%ADD50RoundRect,0.250000X-1.100000X0.412500X-1.100000X-0.412500X1.100000X-0.412500X1.100000X0.412500X0*%
%TD*%
%TA.AperFunction,ViaPad*%
%ADD51C,0.650000*%
%TD*%
%TA.AperFunction,Conductor*%
%ADD52C,0.200000*%
%TD*%
%TA.AperFunction,Conductor*%
%ADD53C,0.500000*%
%TD*%
%TA.AperFunction,Conductor*%
%ADD54C,0.150000*%
%TD*%
%TA.AperFunction,Conductor*%
%ADD55C,0.300000*%
%TD*%
%TA.AperFunction,Conductor*%
%ADD56C,0.250000*%
%TD*%
%TA.AperFunction,Conductor*%
%ADD57C,0.800000*%
%TD*%
G04 APERTURE END LIST*
D10*
%TO.P,H2,1,1*%
%TO.N,unconnected-(H2-Pad1)_8*%
X147400000Y-58500000D03*
%TO.N,unconnected-(H2-Pad1)_7*%
X146697056Y-60197056D03*
%TO.N,unconnected-(H2-Pad1)_6*%
X146697056Y-56802944D03*
%TO.N,unconnected-(H2-Pad1)_5*%
X145000000Y-60900000D03*
D11*
%TO.N,unconnected-(H2-Pad1)_4*%
X145000000Y-58500000D03*
D10*
%TO.N,unconnected-(H2-Pad1)_3*%
X145000000Y-56100000D03*
%TO.N,unconnected-(H2-Pad1)_2*%
X143302944Y-60197056D03*
%TO.N,unconnected-(H2-Pad1)_1*%
X143302944Y-56802944D03*
%TO.N,unconnected-(H2-Pad1)*%
X142600000Y-58500000D03*
%TD*%
%TO.P,H1,1,1*%
%TO.N,unconnected-(H1-Pad1)_8*%
X79900000Y-58500000D03*
%TO.N,unconnected-(H1-Pad1)_7*%
X79197056Y-60197056D03*
%TO.N,unconnected-(H1-Pad1)_6*%
X79197056Y-56802944D03*
%TO.N,unconnected-(H1-Pad1)_5*%
X77500000Y-60900000D03*
D11*
%TO.N,unconnected-(H1-Pad1)_4*%
X77500000Y-58500000D03*
D10*
%TO.N,unconnected-(H1-Pad1)_3*%
X77500000Y-56100000D03*
%TO.N,unconnected-(H1-Pad1)_2*%
X75802944Y-60197056D03*
%TO.N,unconnected-(H1-Pad1)_1*%
X75802944Y-56802944D03*
%TO.N,unconnected-(H1-Pad1)*%
X75100000Y-58500000D03*
%TD*%
D12*
%TO.P,SW1,1*%
%TO.N,+5V*%
X97250000Y-89680000D03*
%TO.P,SW1,2*%
X97250000Y-87140000D03*
%TO.P,SW1,3*%
X97250000Y-84600000D03*
%TO.P,SW1,4*%
X97250000Y-82060000D03*
%TO.P,SW1,5*%
X97250000Y-79520000D03*
%TO.P,SW1,6*%
%TO.N,/SINK_SELECT4*%
X88350000Y-79520000D03*
%TO.P,SW1,7*%
%TO.N,/SINK_SELECT3*%
X88350000Y-82060000D03*
%TO.P,SW1,8*%
%TO.N,/SINK_SELECT2*%
X88350000Y-84600000D03*
%TO.P,SW1,9*%
%TO.N,/SINK_SELECT1*%
X88350000Y-87140000D03*
%TO.P,SW1,10*%
%TO.N,/SINK_SELECT0*%
X88350000Y-89680000D03*
%TD*%
D13*
%TO.P,J1,1,Pin_1*%
%TO.N,/sink/SINK_IN*%
X145000000Y-70900000D03*
%TD*%
%TO.P,J2,1,Pin_1*%
%TO.N,GND*%
X145000000Y-86900000D03*
%TD*%
D14*
%TO.P,HS1,1*%
%TO.N,/sink/SINK_IN*%
X119100000Y-69200000D03*
X132300000Y-69200000D03*
%TD*%
D15*
%TO.P,Q1,1,B*%
%TO.N,Net-(Q1-B)*%
X123420000Y-74240000D03*
D16*
%TO.P,Q1,2,C*%
%TO.N,/sink/SINK_IN*%
X125700000Y-67940000D03*
D15*
%TO.P,Q1,3,E*%
%TO.N,/sink/ISENSE*%
X127980000Y-74240000D03*
%TD*%
D17*
%TO.P,Q3,1,G*%
%TO.N,/SINK_SELECT0*%
X128615000Y-82005000D03*
%TO.P,Q3,2,S*%
%TO.N,Net-(Q3-S-Pad2)*%
X128615000Y-80735000D03*
%TO.P,Q3,3,S*%
X128615000Y-79465000D03*
%TO.P,Q3,4,S*%
X128615000Y-78195000D03*
D18*
%TO.P,Q3,5,D*%
%TO.N,/sink/ISENSE*%
X125900000Y-82372500D03*
X125900000Y-77827500D03*
D19*
X124820000Y-80100000D03*
D20*
X123030000Y-82315000D03*
X123030000Y-77885000D03*
%TD*%
D17*
%TO.P,Q4,1,G*%
%TO.N,/SINK_SELECT1*%
X128515000Y-89005000D03*
%TO.P,Q4,2,S*%
%TO.N,Net-(Q4-S-Pad2)*%
X128515000Y-87735000D03*
%TO.P,Q4,3,S*%
X128515000Y-86465000D03*
%TO.P,Q4,4,S*%
X128515000Y-85195000D03*
D18*
%TO.P,Q4,5,D*%
%TO.N,/sink/ISENSE*%
X125800000Y-89372500D03*
X125800000Y-84827500D03*
D19*
X124720000Y-87100000D03*
D20*
X122930000Y-89315000D03*
X122930000Y-84885000D03*
%TD*%
D21*
%TO.P,Q7,1,G*%
%TO.N,/SINK_SELECT4*%
X128237500Y-100500001D03*
%TO.P,Q7,2,S*%
%TO.N,Net-(Q7-S)*%
X128237500Y-98600001D03*
%TO.P,Q7,3,D*%
%TO.N,/sink/ISENSE*%
X125962500Y-99550001D03*
%TD*%
%TO.P,Q6,1,G*%
%TO.N,/SINK_SELECT3*%
X128200000Y-96900001D03*
%TO.P,Q6,2,S*%
%TO.N,Net-(Q6-S)*%
X128200000Y-95000001D03*
%TO.P,Q6,3,D*%
%TO.N,/sink/ISENSE*%
X125925000Y-95950001D03*
%TD*%
%TO.P,Q5,1,G*%
%TO.N,/SINK_SELECT2*%
X128237500Y-93250000D03*
%TO.P,Q5,2,S*%
%TO.N,Net-(Q5-S)*%
X128237500Y-91350000D03*
%TO.P,Q5,3,D*%
%TO.N,/sink/ISENSE*%
X125962500Y-92300000D03*
%TD*%
D22*
%TO.P,D1,1,K*%
%TO.N,+5V*%
X107800000Y-63600000D03*
%TO.P,D1,2,A*%
%TO.N,Net-(D1-A)*%
X111100000Y-63600000D03*
%TD*%
D23*
%TO.P,C13,1*%
%TO.N,+5V*%
X85800000Y-68625000D03*
%TO.P,C13,2*%
%TO.N,GND*%
X85800000Y-70175000D03*
%TD*%
D24*
%TO.P,R12,1*%
%TO.N,/SINK_SELECT1*%
X100275000Y-87100000D03*
%TO.P,R12,2*%
%TO.N,Net-(LD2-A)*%
X101925000Y-87100000D03*
%TD*%
D25*
%TO.P,C12,1*%
%TO.N,+5V*%
X92600000Y-60649999D03*
%TO.P,C12,2*%
%TO.N,GND*%
X92600000Y-58750001D03*
%TD*%
D26*
%TO.P,LD5,1,K*%
%TO.N,GND*%
X104672501Y-79500001D03*
%TO.P,LD5,2,A*%
%TO.N,Net-(LD5-A)*%
X103527499Y-79500001D03*
%TD*%
D27*
%TO.P,C7,1*%
%TO.N,GND*%
X90675000Y-73200000D03*
%TO.P,C7,2*%
%TO.N,-2V5*%
X89125000Y-73200000D03*
%TD*%
D28*
%TO.P,R9,1*%
%TO.N,Net-(Q6-S)*%
X131737500Y-95000000D03*
%TO.P,R9,2*%
%TO.N,GND*%
X134662500Y-95000000D03*
%TD*%
D29*
%TO.P,R22,1*%
%TO.N,+5V*%
X101300000Y-67925000D03*
%TO.P,R22,2*%
%TO.N,/FAN_EN*%
X101300000Y-66275000D03*
%TD*%
D30*
%TO.P,C5,1*%
%TO.N,-2V5*%
X107725000Y-99400000D03*
%TO.P,C5,2*%
%TO.N,GND*%
X109275000Y-99400000D03*
%TD*%
D26*
%TO.P,LD1,1,K*%
%TO.N,GND*%
X104672501Y-89699999D03*
%TO.P,LD1,2,A*%
%TO.N,Net-(LD1-A)*%
X103527499Y-89699999D03*
%TD*%
%TO.P,LD4,1,K*%
%TO.N,GND*%
X104672500Y-82000000D03*
%TO.P,LD4,2,A*%
%TO.N,Net-(LD4-A)*%
X103527498Y-82000000D03*
%TD*%
D10*
%TO.P,H3,1,1*%
%TO.N,unconnected-(H3-Pad1)*%
X75100000Y-99500000D03*
%TO.N,unconnected-(H3-Pad1)_1*%
X75802944Y-97802944D03*
%TO.N,unconnected-(H3-Pad1)_2*%
X75802944Y-101197056D03*
%TO.N,unconnected-(H3-Pad1)_3*%
X77500000Y-97100000D03*
D11*
%TO.N,unconnected-(H3-Pad1)_4*%
X77500000Y-99500000D03*
D10*
%TO.N,unconnected-(H3-Pad1)_5*%
X77500000Y-101900000D03*
%TO.N,unconnected-(H3-Pad1)_6*%
X79197056Y-97802944D03*
%TO.N,unconnected-(H3-Pad1)_7*%
X79197056Y-101197056D03*
%TO.N,unconnected-(H3-Pad1)_8*%
X79900000Y-99500000D03*
%TD*%
D24*
%TO.P,R5,1*%
%TO.N,/VCONTROL*%
X97275000Y-97100000D03*
%TO.P,R5,2*%
%TO.N,Net-(C3-Pad2)*%
X98925000Y-97100000D03*
%TD*%
%TO.P,R15,1*%
%TO.N,/SINK_SELECT4*%
X100175000Y-79500000D03*
%TO.P,R15,2*%
%TO.N,Net-(LD5-A)*%
X101825000Y-79500000D03*
%TD*%
D31*
%TO.P,R23,1*%
%TO.N,/FAN_EN*%
X99500000Y-66275000D03*
%TO.P,R23,2*%
%TO.N,GND*%
X99500000Y-67925000D03*
%TD*%
D32*
%TO.P,U3,1,PGOOD*%
%TO.N,/power/PGOOD*%
X89650000Y-68650000D03*
%TO.P,U3,2,FB+*%
%TO.N,Net-(U3-FB+)*%
X89650000Y-69150000D03*
%TO.P,U3,3,VIN*%
%TO.N,+5V*%
X89650000Y-69650000D03*
%TO.P,U3,4,GND*%
%TO.N,GND*%
X89650000Y-70150000D03*
%TO.P,U3,5,CP*%
%TO.N,Net-(U3-CP)*%
X89650000Y-70650000D03*
%TO.P,U3,6,OUT-*%
%TO.N,-2V5*%
X89650000Y-71150000D03*
%TO.P,U3,7,FB-*%
%TO.N,Net-(U3-FB-)*%
X91550000Y-71150000D03*
%TO.P,U3,8,EN-*%
%TO.N,+5V*%
X91550000Y-70650000D03*
%TO.P,U3,9,C-*%
%TO.N,Net-(U3-C-)*%
X91550000Y-70150000D03*
%TO.P,U3,10,C+*%
%TO.N,Net-(U3-C+)*%
X91550000Y-69650000D03*
%TO.P,U3,11,OUT+*%
%TO.N,+2V5*%
X91550000Y-69150000D03*
%TO.P,U3,12,EN+*%
%TO.N,+5V*%
X91550000Y-68650000D03*
D33*
%TO.P,U3,13,PAD*%
%TO.N,GND*%
X90600000Y-69900000D03*
%TD*%
D29*
%TO.P,R2,1*%
%TO.N,Net-(Q2-C)*%
X114700000Y-79425000D03*
%TO.P,R2,2*%
%TO.N,+5V*%
X114700000Y-77775000D03*
%TD*%
D34*
%TO.P,J3,1,Pin_1*%
%TO.N,+5V*%
X108599999Y-56300000D03*
D35*
%TO.P,J3,2,Pin_2*%
%TO.N,Net-(D1-A)*%
X110600000Y-56300000D03*
%TD*%
D36*
%TO.P,R20,1*%
%TO.N,Net-(U3-FB-)*%
X90109998Y-74600000D03*
%TO.P,R20,2*%
%TO.N,-2V5*%
X89090000Y-74600000D03*
%TD*%
D37*
%TO.P,R17,1*%
%TO.N,+2V5*%
X94999999Y-68809999D03*
%TO.P,R17,2*%
%TO.N,Net-(U3-FB+)*%
X94999999Y-67790001D03*
%TD*%
D38*
%TO.P,C6,1*%
%TO.N,+2V5*%
X93500000Y-68775000D03*
%TO.P,C6,2*%
%TO.N,GND*%
X93500000Y-67225000D03*
%TD*%
D36*
%TO.P,R19,1*%
%TO.N,GND*%
X92309998Y-74600000D03*
%TO.P,R19,2*%
%TO.N,Net-(U3-FB-)*%
X91290000Y-74600000D03*
%TD*%
D26*
%TO.P,LD2,1,K*%
%TO.N,GND*%
X104672501Y-87100000D03*
%TO.P,LD2,2,A*%
%TO.N,Net-(LD2-A)*%
X103527499Y-87100000D03*
%TD*%
D39*
%TO.P,C8,1*%
%TO.N,Net-(U3-C+)*%
X93400000Y-70320000D03*
%TO.P,C8,2*%
%TO.N,Net-(U3-C-)*%
X93400000Y-71280000D03*
%TD*%
D29*
%TO.P,R21,1*%
%TO.N,GND*%
X97300000Y-100525000D03*
%TO.P,R21,2*%
%TO.N,/VCONTROL*%
X97300000Y-98875000D03*
%TD*%
D26*
%TO.P,LD3,1,K*%
%TO.N,GND*%
X104697501Y-84540000D03*
%TO.P,LD3,2,A*%
%TO.N,Net-(LD3-A)*%
X103552499Y-84540000D03*
%TD*%
D28*
%TO.P,R10,1*%
%TO.N,Net-(Q7-S)*%
X131737500Y-98600000D03*
%TO.P,R10,2*%
%TO.N,GND*%
X134662500Y-98600000D03*
%TD*%
%TO.P,R6,1*%
%TO.N,Net-(Q3-S-Pad2)*%
X131737500Y-79499999D03*
%TO.P,R6,2*%
%TO.N,GND*%
X134662500Y-79499999D03*
%TD*%
D30*
%TO.P,C9,1*%
%TO.N,GND*%
X85325000Y-72200000D03*
%TO.P,C9,2*%
%TO.N,Net-(U3-CP)*%
X86875000Y-72200000D03*
%TD*%
D23*
%TO.P,C14,1*%
%TO.N,+5V*%
X87400000Y-68625000D03*
%TO.P,C14,2*%
%TO.N,GND*%
X87400000Y-70175000D03*
%TD*%
D40*
%TO.P,J5,1,Pin_1*%
%TO.N,+5V*%
X88500000Y-60650000D03*
D35*
%TO.P,J5,2,Pin_2*%
%TO.N,GND*%
X86499999Y-60650000D03*
%TD*%
D41*
%TO.P,J6,1,Pin_1*%
%TO.N,/VCONTROL*%
X77485000Y-90480000D03*
D42*
%TO.P,J6,2,Pin_2*%
%TO.N,GND*%
X77485000Y-87940000D03*
%TO.P,J6,3,Pin_3*%
%TO.N,/SINK_SELECT0*%
X77485000Y-85400001D03*
%TO.P,J6,4,Pin_4*%
%TO.N,/SINK_SELECT1*%
X77485000Y-82860000D03*
%TO.P,J6,5,Pin_5*%
%TO.N,/SINK_SELECT2*%
X77485000Y-80320000D03*
%TO.P,J6,6,Pin_6*%
%TO.N,/SINK_SELECT3*%
X77485000Y-77780000D03*
%TO.P,J6,7,Pin_7*%
%TO.N,/SINK_SELECT4*%
X77485000Y-75240000D03*
%TO.P,J6,8,Pin_8*%
%TO.N,/FAN_EN*%
X77485000Y-72699999D03*
%TO.P,J6,9,Pin_9*%
%TO.N,GND*%
X77485000Y-70160000D03*
%TO.P,J6,10,Pin_10*%
%TO.N,+5V*%
X77485000Y-67620000D03*
%TD*%
D43*
%TO.P,J4,1,In*%
%TO.N,/VCONTROL*%
X86460000Y-97460000D03*
D44*
%TO.P,J4,2,Ext*%
%TO.N,GND*%
X83920000Y-94920000D03*
X83920000Y-100000000D03*
X89000000Y-94920000D03*
X89000000Y-100000000D03*
%TD*%
D41*
%TO.P,J7,1,Pin_1*%
%TO.N,/sink/ISENSE*%
X120200000Y-96125000D03*
D42*
%TO.P,J7,2,Pin_2*%
%TO.N,GND*%
X120200000Y-98665000D03*
%TD*%
D29*
%TO.P,R3,1*%
%TO.N,Net-(U1A--)*%
X103500000Y-95225000D03*
%TO.P,R3,2*%
%TO.N,Net-(U1B--)*%
X103500000Y-93575000D03*
%TD*%
D45*
%TO.P,Q8,1,G*%
%TO.N,/FAN_EN*%
X105549999Y-66262500D03*
%TO.P,Q8,2,S*%
%TO.N,GND*%
X103650001Y-66262500D03*
%TO.P,Q8,3,D*%
%TO.N,Net-(D1-A)*%
X104600000Y-68537500D03*
%TD*%
D28*
%TO.P,R7,1*%
%TO.N,Net-(Q4-S-Pad2)*%
X131837500Y-86500000D03*
%TO.P,R7,2*%
%TO.N,GND*%
X134762500Y-86500000D03*
%TD*%
D37*
%TO.P,R18,1*%
%TO.N,Net-(U3-FB+)*%
X95000000Y-66709999D03*
%TO.P,R18,2*%
%TO.N,GND*%
X95000000Y-65690001D03*
%TD*%
D46*
%TO.P,U1,1*%
%TO.N,Net-(C1-Pad1)*%
X107687500Y-95725000D03*
%TO.P,U1,2,-*%
%TO.N,Net-(U1A--)*%
X107687500Y-96375000D03*
%TO.P,U1,3,+*%
%TO.N,Net-(U1A-+)*%
X107687500Y-97025000D03*
%TO.P,U1,4,V-*%
%TO.N,-2V5*%
X107687500Y-97675000D03*
%TO.P,U1,5,+*%
%TO.N,/sink/ISENSE*%
X111912500Y-97675000D03*
%TO.P,U1,6,-*%
%TO.N,Net-(U1B--)*%
X111912500Y-97025000D03*
%TO.P,U1,7*%
X111912500Y-96375000D03*
%TO.P,U1,8,V+*%
%TO.N,+2V5*%
X111912500Y-95725000D03*
%TD*%
D10*
%TO.P,H4,1,1*%
%TO.N,unconnected-(H4-Pad1)*%
X142600000Y-99500000D03*
%TO.N,unconnected-(H4-Pad1)_1*%
X143302944Y-97802944D03*
%TO.N,unconnected-(H4-Pad1)_2*%
X143302944Y-101197056D03*
%TO.N,unconnected-(H4-Pad1)_3*%
X145000000Y-97100000D03*
D11*
%TO.N,unconnected-(H4-Pad1)_4*%
X145000000Y-99500000D03*
D10*
%TO.N,unconnected-(H4-Pad1)_5*%
X145000000Y-101900000D03*
%TO.N,unconnected-(H4-Pad1)_6*%
X146697056Y-97802944D03*
%TO.N,unconnected-(H4-Pad1)_7*%
X146697056Y-101197056D03*
%TO.N,unconnected-(H4-Pad1)_8*%
X147400000Y-99500000D03*
%TD*%
D24*
%TO.P,R4,1*%
%TO.N,Net-(C3-Pad2)*%
X103075000Y-97000000D03*
%TO.P,R4,2*%
%TO.N,Net-(U1A-+)*%
X104725000Y-97000000D03*
%TD*%
D38*
%TO.P,C3,1*%
%TO.N,GND*%
X101000000Y-98575000D03*
%TO.P,C3,2*%
%TO.N,Net-(C3-Pad2)*%
X101000000Y-97025000D03*
%TD*%
D28*
%TO.P,R8,1*%
%TO.N,Net-(Q5-S)*%
X131837500Y-91400000D03*
%TO.P,R8,2*%
%TO.N,GND*%
X134762500Y-91400000D03*
%TD*%
D24*
%TO.P,R14,1*%
%TO.N,/SINK_SELECT3*%
X100175000Y-82000000D03*
%TO.P,R14,2*%
%TO.N,Net-(LD4-A)*%
X101825000Y-82000000D03*
%TD*%
D47*
%TO.P,LD6,1,K*%
%TO.N,/power/PGOOD*%
X97027500Y-73750000D03*
%TO.P,LD6,2,A*%
%TO.N,Net-(LD6-A)*%
X98172500Y-73750000D03*
%TD*%
D38*
%TO.P,C1,1*%
%TO.N,Net-(C1-Pad1)*%
X120200000Y-84675000D03*
%TO.P,C1,2*%
%TO.N,Net-(Q2-B)*%
X120200000Y-83125000D03*
%TD*%
D24*
%TO.P,R13,1*%
%TO.N,/SINK_SELECT2*%
X100200000Y-84540000D03*
%TO.P,R13,2*%
%TO.N,Net-(LD3-A)*%
X101850000Y-84540000D03*
%TD*%
D48*
%TO.P,Q2,1,B*%
%TO.N,Net-(Q2-B)*%
X120150000Y-80900000D03*
D49*
%TO.P,Q2,2,C*%
%TO.N,Net-(Q2-C)*%
X120062499Y-79400000D03*
D48*
%TO.P,Q2,3,E*%
%TO.N,Net-(Q1-B)*%
X120150000Y-77900000D03*
%TD*%
D24*
%TO.P,R11,1*%
%TO.N,/SINK_SELECT0*%
X100275000Y-89700000D03*
%TO.P,R11,2*%
%TO.N,Net-(LD1-A)*%
X101925000Y-89700000D03*
%TD*%
D50*
%TO.P,C11,1*%
%TO.N,+5V*%
X103700000Y-58337500D03*
%TO.P,C11,2*%
%TO.N,GND*%
X103700000Y-61462500D03*
%TD*%
D24*
%TO.P,R16,1*%
%TO.N,+5V*%
X96575000Y-72200000D03*
%TO.P,R16,2*%
%TO.N,Net-(LD6-A)*%
X98225000Y-72200000D03*
%TD*%
D29*
%TO.P,R1,1*%
%TO.N,Net-(C1-Pad1)*%
X118600000Y-84725000D03*
%TO.P,R1,2*%
%TO.N,Net-(Q2-B)*%
X118600000Y-83075000D03*
%TD*%
D50*
%TO.P,C10,1*%
%TO.N,+5V*%
X99900000Y-58337500D03*
%TO.P,C10,2*%
%TO.N,GND*%
X99900000Y-61462500D03*
%TD*%
D30*
%TO.P,C4,1*%
%TO.N,GND*%
X110325000Y-94000000D03*
%TO.P,C4,2*%
%TO.N,+2V5*%
X111875000Y-94000000D03*
%TD*%
D38*
%TO.P,C2,1*%
%TO.N,Net-(U1A--)*%
X105000000Y-95175000D03*
%TO.P,C2,2*%
%TO.N,Net-(C1-Pad1)*%
X105000000Y-93625000D03*
%TD*%
D51*
%TO.N,Net-(C1-Pad1)*%
X106100000Y-93600000D03*
X120200000Y-85800000D03*
%TO.N,GND*%
X93100000Y-57400000D03*
X93400000Y-75900000D03*
X92200000Y-57400000D03*
X99500000Y-69100000D03*
X104672501Y-90800000D03*
X103700000Y-64750001D03*
X110600000Y-99400000D03*
X97300000Y-65500000D03*
X98725000Y-100525000D03*
X101000000Y-99900000D03*
X110300000Y-92700000D03*
X93400000Y-74900000D03*
X97300000Y-66500000D03*
%TO.N,+2V5*%
X97300000Y-69600000D03*
X97300000Y-70600000D03*
X111900000Y-92700000D03*
%TO.N,-2V5*%
X106400000Y-99400000D03*
X87000000Y-75900000D03*
X87000000Y-74900000D03*
%TO.N,/sink/SINK_IN*%
X149500000Y-67000000D03*
X129250000Y-55000000D03*
X135000000Y-72250000D03*
X123500000Y-55000000D03*
X128500000Y-71750000D03*
X135000000Y-70250000D03*
X124500000Y-62000000D03*
X122500000Y-71750000D03*
X135000000Y-66250000D03*
X123500000Y-63000000D03*
X128500000Y-64000000D03*
X135000000Y-55000000D03*
X127500000Y-55000000D03*
X122500000Y-64000000D03*
X126500000Y-62000000D03*
X116500000Y-72500000D03*
X136000000Y-71250000D03*
X136000000Y-67250000D03*
X113750000Y-61250001D03*
X124500000Y-71750000D03*
X133250000Y-55000000D03*
X149500000Y-57250000D03*
X115500000Y-69500000D03*
X125500000Y-63000000D03*
X113750000Y-65000000D03*
X117750000Y-55000000D03*
X121500000Y-55000000D03*
X139000000Y-55000000D03*
X141000000Y-55000000D03*
X115500000Y-67500000D03*
X126500000Y-64000000D03*
X113750000Y-59250000D03*
X124500000Y-64000000D03*
X149500000Y-61250000D03*
X116500000Y-66500000D03*
X115750000Y-55000000D03*
X113750000Y-75250000D03*
X149500000Y-63000000D03*
X113750000Y-71000000D03*
X149500000Y-64999999D03*
X113750000Y-73250001D03*
X119750000Y-55000000D03*
X136000000Y-69250000D03*
X113750000Y-69000000D03*
X113750000Y-63250000D03*
X135000000Y-68250001D03*
X115500000Y-71500000D03*
X131250000Y-55000000D03*
X122500000Y-62000000D03*
X128500000Y-62000000D03*
X116500000Y-68500000D03*
X126500000Y-71750000D03*
X127500000Y-63000000D03*
X113750000Y-55000000D03*
X125500000Y-55000000D03*
X137000000Y-55000000D03*
X113750000Y-67000001D03*
X116500000Y-70499999D03*
X149500000Y-59249999D03*
%TO.N,/SINK_SELECT0*%
X90400000Y-89700000D03*
X99225000Y-89700000D03*
X130500000Y-82005000D03*
%TO.N,/SINK_SELECT1*%
X90400000Y-87200000D03*
X130385001Y-89000000D03*
X99100000Y-87100000D03*
%TO.N,/SINK_SELECT2*%
X130085001Y-93200000D03*
X90300000Y-84600000D03*
X99125000Y-84500000D03*
%TO.N,/SINK_SELECT3*%
X90300000Y-82000000D03*
X99125000Y-82000000D03*
X130085001Y-96900000D03*
%TO.N,/SINK_SELECT4*%
X90380000Y-79520000D03*
X130185001Y-100500000D03*
X99100000Y-79500000D03*
%TO.N,+5V*%
X94800000Y-72200000D03*
X99700000Y-76300000D03*
X113300000Y-77800000D03*
X91600000Y-67400000D03*
X101300000Y-69000000D03*
%TO.N,/power/PGOOD*%
X89700000Y-67400000D03*
X95500000Y-73800000D03*
%TO.N,Net-(U3-FB-)*%
X91600000Y-71900000D03*
X91290000Y-75390000D03*
%TO.N,Net-(U3-FB+)*%
X88849997Y-67400000D03*
X95800000Y-66700000D03*
%TO.N,Net-(U1B--)*%
X102500000Y-93575000D03*
X114475000Y-96375000D03*
%TO.N,/FAN_EN*%
X101300000Y-65100000D03*
X107000000Y-66300000D03*
%TD*%
D52*
%TO.N,Net-(LD1-A)*%
X101925000Y-89700000D02*
X103527499Y-89699999D01*
%TO.N,Net-(LD2-A)*%
X101925000Y-87100000D02*
X103527499Y-87100000D01*
%TO.N,Net-(LD3-A)*%
X101850000Y-84540000D02*
X103552499Y-84540000D01*
%TO.N,Net-(LD4-A)*%
X101825000Y-82000000D02*
X103527498Y-82000000D01*
%TO.N,Net-(LD5-A)*%
X101825000Y-79500000D02*
X103527499Y-79500001D01*
D53*
%TO.N,Net-(Q1-B)*%
X121300000Y-77900000D02*
X120150000Y-77900000D01*
X122000000Y-77200000D02*
X121300000Y-77900000D01*
X122560000Y-74240000D02*
X122000000Y-74800000D01*
X123420000Y-74240000D02*
X122560000Y-74240000D01*
X122000000Y-74800000D02*
X122000000Y-77200000D01*
D54*
%TO.N,GND*%
X90600000Y-70600000D02*
X90150000Y-71050000D01*
X90150000Y-71050000D02*
X90150000Y-71650000D01*
X90600000Y-69700001D02*
X90600000Y-70600000D01*
X90600000Y-70600000D02*
X90600000Y-69800000D01*
X91074000Y-71074000D02*
X90600000Y-70600000D01*
X91074000Y-71574000D02*
X91074000Y-71074000D01*
X91050000Y-68550000D02*
X91050000Y-67950000D01*
X90600000Y-69000000D02*
X91050000Y-68550000D01*
X90600000Y-69900000D02*
X90600000Y-69000000D01*
X90600000Y-69000000D02*
X90600000Y-69800000D01*
X90126000Y-68526000D02*
X90600000Y-69000000D01*
X90126000Y-68026000D02*
X90126000Y-68526000D01*
D52*
%TO.N,Net-(C1-Pad1)*%
X118650000Y-84675000D02*
X118600000Y-84725000D01*
X106100000Y-93600000D02*
X106100000Y-95300000D01*
X120200000Y-84675000D02*
X118650000Y-84675000D01*
X106525000Y-95725000D02*
X107687500Y-95725000D01*
X120200000Y-84675000D02*
X120200000Y-85800000D01*
X106075000Y-93625000D02*
X105000000Y-93625000D01*
X106100000Y-93600000D02*
X106075000Y-93625000D01*
X106100000Y-95300000D02*
X106525000Y-95725000D01*
%TO.N,Net-(U1A--)*%
X105000000Y-95175000D02*
X103550000Y-95175000D01*
X105000000Y-95175000D02*
X106200000Y-96375000D01*
X106200000Y-96375000D02*
X107687500Y-96375000D01*
X103550000Y-95175000D02*
X103500000Y-95225000D01*
D55*
%TO.N,GND*%
X92600000Y-58750001D02*
X93100000Y-58250001D01*
D52*
X84060000Y-91860000D02*
X84060000Y-95160000D01*
D53*
X103700000Y-64750001D02*
X103650001Y-64800000D01*
D52*
X98725000Y-100525000D02*
X98800000Y-100600000D01*
X97300000Y-100525000D02*
X98725000Y-100525000D01*
X80140000Y-87940000D02*
X84060000Y-91860000D01*
D56*
X85825000Y-70150000D02*
X85800000Y-70175000D01*
D52*
X110325000Y-94000000D02*
X110325000Y-92725000D01*
D56*
X89650000Y-70150000D02*
X85825000Y-70150000D01*
D57*
X103700000Y-64750001D02*
X103700000Y-61462500D01*
D52*
X104672501Y-79500001D02*
X104672501Y-90800000D01*
D53*
X103650001Y-66262500D02*
X103612501Y-66300000D01*
D55*
X92200000Y-58350001D02*
X92600000Y-58750001D01*
D52*
X110325000Y-92725000D02*
X110300000Y-92700000D01*
X104672501Y-90800000D02*
X104672501Y-90872501D01*
X101000000Y-98475000D02*
X101000000Y-99900000D01*
D53*
X103650001Y-64800000D02*
X103650001Y-66262500D01*
D57*
X99900000Y-61462500D02*
X103700000Y-61462500D01*
D52*
X77485000Y-87940000D02*
X80140000Y-87940000D01*
X99500000Y-67925000D02*
X99500000Y-69100000D01*
D55*
X92200000Y-57400000D02*
X92200000Y-58350001D01*
D52*
X109275000Y-99400000D02*
X110600000Y-99400000D01*
D55*
X93100000Y-58250001D02*
X93100000Y-57400000D01*
D52*
%TO.N,Net-(C3-Pad2)*%
X101200000Y-97000000D02*
X103075000Y-97000000D01*
X101175000Y-97025000D02*
X101200000Y-97000000D01*
X101000000Y-97025000D02*
X101175000Y-97025000D01*
X98925000Y-97100000D02*
X100925000Y-97100000D01*
X100925000Y-97100000D02*
X101000000Y-97025000D01*
%TO.N,+2V5*%
X111900000Y-94024999D02*
X111900000Y-92700000D01*
X111875000Y-94000000D02*
X111875000Y-95687500D01*
X92275000Y-68775000D02*
X93500000Y-68775000D01*
X91900000Y-69150000D02*
X92275000Y-68775000D01*
X91550000Y-69150000D02*
X91900000Y-69150000D01*
X111875000Y-95687500D02*
X111912500Y-95725000D01*
%TO.N,-2V5*%
X89150000Y-71150000D02*
X89100000Y-71200000D01*
X89600000Y-71200000D02*
X89600000Y-71900000D01*
X107725000Y-99400000D02*
X107725000Y-97712500D01*
X107725000Y-97712500D02*
X107687500Y-97675000D01*
X107724999Y-99400000D02*
X106400000Y-99400000D01*
X89650000Y-71150000D02*
X89150000Y-71150000D01*
X89650000Y-71150000D02*
X89600000Y-71200000D01*
%TO.N,Net-(U3-C+)*%
X92720000Y-70320000D02*
X93400000Y-70320000D01*
X91550000Y-69650000D02*
X92050000Y-69650000D01*
X92050000Y-69650000D02*
X92720000Y-70320000D01*
%TO.N,Net-(U3-C-)*%
X91917100Y-70150000D02*
X91550000Y-70150000D01*
X92883550Y-71116450D02*
X93236450Y-71116450D01*
X93236450Y-71116450D02*
X93400000Y-71280000D01*
X92883550Y-71116450D02*
X91917100Y-70150000D01*
%TO.N,Net-(U3-CP)*%
X89650000Y-70650000D02*
X89050000Y-70650000D01*
X89050000Y-70650000D02*
X87500000Y-72200000D01*
X87500000Y-72200000D02*
X86875000Y-72200000D01*
%TO.N,/SINK_SELECT0*%
X85180000Y-89680000D02*
X88350000Y-89680000D01*
X80900001Y-85400001D02*
X85180000Y-89680000D01*
X77485000Y-85400001D02*
X80900001Y-85400001D01*
X128614999Y-82005000D02*
X130500000Y-82005000D01*
X88370000Y-89700000D02*
X90400000Y-89700000D01*
X100300000Y-89700000D02*
X99225000Y-89700000D01*
%TO.N,/SINK_SELECT1*%
X81060000Y-82860000D02*
X85340000Y-87140000D01*
X77485000Y-82860000D02*
X81060000Y-82860000D01*
X128500000Y-89000000D02*
X130385001Y-89000000D01*
X100200000Y-87100000D02*
X100300000Y-87200000D01*
X85340000Y-87140000D02*
X88350000Y-87140000D01*
X99100000Y-87100000D02*
X100200000Y-87100000D01*
X88370000Y-87200000D02*
X90400000Y-87200000D01*
%TO.N,/SINK_SELECT2*%
X88270000Y-84600000D02*
X90300000Y-84600000D01*
X81320000Y-80320000D02*
X85600000Y-84600000D01*
X100200000Y-84500000D02*
X99125000Y-84500000D01*
X85600000Y-84600000D02*
X88350000Y-84600000D01*
X77485000Y-80320000D02*
X81320000Y-80320000D01*
X128200000Y-93200000D02*
X130085001Y-93200000D01*
D53*
%TO.N,Net-(Q5-S)*%
X131787501Y-91350001D02*
X131837500Y-91400000D01*
X128237500Y-91350001D02*
X131787501Y-91350001D01*
%TO.N,Net-(Q6-S)*%
X131737498Y-95000002D02*
X131737500Y-95000000D01*
X128200000Y-95000002D02*
X131737498Y-95000002D01*
D52*
%TO.N,/SINK_SELECT3*%
X81480000Y-77780000D02*
X85760000Y-82060000D01*
X77485000Y-77780000D02*
X81480000Y-77780000D01*
X88270000Y-82000000D02*
X90300000Y-82000000D01*
X100200000Y-82000000D02*
X99125000Y-82000000D01*
X128200000Y-96900000D02*
X130085001Y-96900000D01*
X85760000Y-82060000D02*
X88350000Y-82060000D01*
%TO.N,/SINK_SELECT4*%
X100175000Y-79500000D02*
X99100000Y-79500000D01*
X77485000Y-75240000D02*
X81840000Y-75240000D01*
X128300000Y-100500000D02*
X130185001Y-100500000D01*
X86120000Y-79520000D02*
X88350000Y-79520000D01*
X88350000Y-79520000D02*
X90380000Y-79520000D01*
X81840000Y-75240000D02*
X86120000Y-79520000D01*
D53*
%TO.N,Net-(Q7-S)*%
X128237500Y-98600002D02*
X131737498Y-98600002D01*
X131737498Y-98600002D02*
X131737500Y-98600000D01*
D57*
%TO.N,+5V*%
X108599999Y-56300000D02*
X108600001Y-56300002D01*
D52*
X101300000Y-67925000D02*
X101300000Y-69000000D01*
X92300000Y-71100000D02*
X92300000Y-71500000D01*
X97800000Y-76300000D02*
X97250000Y-76850000D01*
X113950000Y-77800000D02*
X113975000Y-77775000D01*
X94800000Y-72200000D02*
X96575000Y-72200000D01*
X99700000Y-76300000D02*
X97800000Y-76300000D01*
X93000000Y-72200000D02*
X94800000Y-72200000D01*
X113300000Y-77800000D02*
X113950000Y-77800000D01*
X91550000Y-70650000D02*
X91850000Y-70650000D01*
X91850000Y-70650000D02*
X92300000Y-71100000D01*
D57*
X108600001Y-56300002D02*
X108600001Y-62799999D01*
D52*
X97250000Y-76850000D02*
X97250000Y-89680000D01*
X91600000Y-67400000D02*
X91600000Y-68600000D01*
D56*
X89650000Y-69650000D02*
X88925000Y-69650000D01*
D52*
X113975000Y-77775000D02*
X114700000Y-77775000D01*
D57*
X108600001Y-62799999D02*
X107800000Y-63600000D01*
D52*
X91600000Y-68600000D02*
X91550000Y-68650000D01*
X92300000Y-71500000D02*
X93000000Y-72200000D01*
%TO.N,Net-(U1A-+)*%
X104725000Y-97000000D02*
X107662500Y-97000000D01*
X107662500Y-97000000D02*
X107687500Y-97025000D01*
%TO.N,/VCONTROL*%
X97275000Y-97100000D02*
X97275000Y-98850000D01*
X86600000Y-97700000D02*
X86700000Y-97700000D01*
X86600000Y-97700000D02*
X83100000Y-97700000D01*
X79380000Y-90480000D02*
X77485000Y-90480000D01*
X86700000Y-97700000D02*
X87300000Y-97100000D01*
X97275000Y-98850000D02*
X97300000Y-98875000D01*
X87300000Y-97100000D02*
X97275000Y-97100000D01*
X83100000Y-97700000D02*
X81400000Y-96000000D01*
X81400000Y-92500000D02*
X79380000Y-90480000D01*
X81400000Y-96000000D02*
X81400000Y-92500000D01*
%TO.N,/power/PGOOD*%
X89700000Y-67400000D02*
X89650000Y-67450000D01*
X97027500Y-73750000D02*
X95550000Y-73750000D01*
X95550000Y-73750000D02*
X95500000Y-73800000D01*
X89650000Y-67450000D02*
X89650000Y-68650000D01*
%TO.N,Net-(U3-FB-)*%
X91550000Y-71850000D02*
X91550000Y-71150000D01*
X91600000Y-71900000D02*
X91550000Y-71850000D01*
X91290000Y-74600000D02*
X91290000Y-75390000D01*
X90109998Y-74600000D02*
X91290000Y-74600000D01*
%TO.N,Net-(U3-FB+)*%
X88900000Y-68900000D02*
X89150000Y-69150000D01*
X94999999Y-67790001D02*
X95000000Y-66709999D01*
X95000000Y-66709999D02*
X95790001Y-66709999D01*
X88849997Y-67400000D02*
X88900000Y-67450003D01*
X95790001Y-66709999D02*
X95800000Y-66700000D01*
X88900000Y-67450003D02*
X88900000Y-68900000D01*
X89150000Y-69150000D02*
X89650000Y-69150000D01*
%TO.N,Net-(U1B--)*%
X111912500Y-96375000D02*
X114475000Y-96375000D01*
X113275000Y-97025000D02*
X111912500Y-97025000D01*
X113400000Y-96900000D02*
X113275000Y-97025000D01*
X113275000Y-96375000D02*
X113400000Y-96500000D01*
X103500000Y-93575000D02*
X102500000Y-93575000D01*
X111912500Y-96375000D02*
X113275000Y-96375000D01*
X113400000Y-96500000D02*
X113400000Y-96900000D01*
D57*
%TO.N,Net-(D1-A)*%
X110600000Y-56300000D02*
X110600002Y-56300002D01*
X110600002Y-63100002D02*
X111100000Y-63600000D01*
X111100000Y-66900000D02*
X111100000Y-63600000D01*
X110600002Y-56300002D02*
X110600002Y-63100002D01*
X104600000Y-68537500D02*
X109462500Y-68537500D01*
X109462500Y-68537500D02*
X111100000Y-66900000D01*
D52*
%TO.N,/FAN_EN*%
X101300000Y-66275000D02*
X101300000Y-65100000D01*
X99500000Y-66275000D02*
X101300000Y-66275000D01*
X105549999Y-66262500D02*
X106962500Y-66262500D01*
X106962500Y-66262500D02*
X107000000Y-66300000D01*
%TO.N,Net-(Q2-B)*%
X118650000Y-83125000D02*
X118600000Y-83075000D01*
X120150000Y-83075000D02*
X120200000Y-83125000D01*
X120200000Y-83125000D02*
X118650000Y-83125000D01*
X120150000Y-80900000D02*
X120150000Y-83075000D01*
%TO.N,Net-(Q2-C)*%
X114700000Y-79425000D02*
X120037499Y-79425000D01*
X120037499Y-79425000D02*
X120062499Y-79400000D01*
%TO.N,Net-(LD6-A)*%
X98225000Y-73697500D02*
X98172500Y-73750000D01*
X98225000Y-72200000D02*
X98225000Y-73697500D01*
%TO.N,/sink/ISENSE*%
X120200000Y-96125000D02*
X118650000Y-97675000D01*
X118650000Y-97675000D02*
X111912500Y-97675000D01*
X125750001Y-96125000D02*
X125925000Y-95950001D01*
X120200000Y-96125000D02*
X125750001Y-96125000D01*
%TD*%
%TA.AperFunction,Conductor*%
%TO.N,+5V*%
G36*
X109559191Y-54618907D02*
G01*
X109595155Y-54668407D01*
X109600000Y-54699000D01*
X109600000Y-60001000D01*
X109581093Y-60059191D01*
X109531593Y-60095155D01*
X109501000Y-60100000D01*
X96099998Y-60100000D01*
X93900001Y-62199998D01*
X93900000Y-62200000D01*
X93900000Y-64595500D01*
X93881093Y-64653691D01*
X93831593Y-64689655D01*
X93801000Y-64694500D01*
X90141008Y-64694500D01*
X90130258Y-64694922D01*
X90124876Y-64695134D01*
X90111331Y-64696200D01*
X90109396Y-64696353D01*
X90109393Y-64696353D01*
X90109392Y-64696354D01*
X90032230Y-64718115D01*
X90032224Y-64718117D01*
X89977708Y-64745894D01*
X89925699Y-64783681D01*
X89883666Y-64825714D01*
X89872739Y-64837534D01*
X89862641Y-64849357D01*
X89837521Y-64894212D01*
X89823465Y-64919313D01*
X89821298Y-64925980D01*
X89818114Y-64932231D01*
X89804405Y-64966407D01*
X89802988Y-64987396D01*
X89801370Y-64997609D01*
X89801370Y-64997613D01*
X89794500Y-65041006D01*
X89794500Y-65101000D01*
X89775593Y-65159191D01*
X89726093Y-65195155D01*
X89695500Y-65200000D01*
X87400000Y-65200000D01*
X87400000Y-59799000D01*
X87418907Y-59740809D01*
X87468407Y-59704845D01*
X87499000Y-59700000D01*
X87647441Y-59700000D01*
X87705632Y-59718907D01*
X87741596Y-59768407D01*
X87741596Y-59829593D01*
X87740886Y-59831697D01*
X87702850Y-59940398D01*
X87700000Y-59970788D01*
X87700000Y-60549999D01*
X87700001Y-60550000D01*
X88138566Y-60550000D01*
X88125000Y-60600630D01*
X88125000Y-60699370D01*
X88138566Y-60750000D01*
X87700002Y-60750000D01*
X87700001Y-60750001D01*
X87700001Y-61329203D01*
X87702850Y-61359600D01*
X87702850Y-61359602D01*
X87747654Y-61487647D01*
X87828207Y-61596790D01*
X87828209Y-61596792D01*
X87937352Y-61677345D01*
X88065398Y-61722149D01*
X88095789Y-61724999D01*
X88399998Y-61724999D01*
X88400000Y-61724998D01*
X88400000Y-61011433D01*
X88450630Y-61025000D01*
X88549370Y-61025000D01*
X88600000Y-61011433D01*
X88600000Y-61724998D01*
X88600001Y-61724999D01*
X88904203Y-61724999D01*
X88934600Y-61722149D01*
X88934602Y-61722149D01*
X89062647Y-61677345D01*
X89171790Y-61596792D01*
X89171792Y-61596790D01*
X89252345Y-61487647D01*
X89297149Y-61359601D01*
X89299999Y-61329211D01*
X89300000Y-61329210D01*
X89300000Y-60750001D01*
X89299999Y-60750000D01*
X91675001Y-60750000D01*
X91675001Y-60954202D01*
X91677850Y-60984599D01*
X91677850Y-60984601D01*
X91722654Y-61112646D01*
X91803207Y-61221789D01*
X91803209Y-61221791D01*
X91912352Y-61302344D01*
X92040398Y-61347148D01*
X92070789Y-61349998D01*
X92499998Y-61349998D01*
X92500000Y-61349997D01*
X92500000Y-60750000D01*
X92700000Y-60750000D01*
X92700000Y-61349997D01*
X92700001Y-61349998D01*
X93129203Y-61349998D01*
X93159600Y-61347148D01*
X93159602Y-61347148D01*
X93287647Y-61302344D01*
X93396790Y-61221791D01*
X93396792Y-61221789D01*
X93477345Y-61112646D01*
X93522149Y-60984600D01*
X93524999Y-60954210D01*
X93525000Y-60954209D01*
X93525000Y-60750000D01*
X93524999Y-60749999D01*
X92700001Y-60749999D01*
X92700000Y-60750000D01*
X92500000Y-60750000D01*
X92499999Y-60749999D01*
X91675002Y-60749999D01*
X91675001Y-60750000D01*
X89299999Y-60750000D01*
X88861434Y-60750000D01*
X88875000Y-60699370D01*
X88875000Y-60600630D01*
X88861434Y-60550000D01*
X89299998Y-60550000D01*
X89299999Y-60549999D01*
X89299999Y-60345787D01*
X91675000Y-60345787D01*
X91675000Y-60549998D01*
X91675001Y-60549999D01*
X92499999Y-60549999D01*
X92500000Y-60549998D01*
X92500000Y-59950000D01*
X92700000Y-59950000D01*
X92700000Y-60549998D01*
X92700001Y-60549999D01*
X93524998Y-60549999D01*
X93524999Y-60549998D01*
X93524999Y-60345795D01*
X93522149Y-60315398D01*
X93522149Y-60315396D01*
X93477345Y-60187351D01*
X93396792Y-60078208D01*
X93396790Y-60078206D01*
X93287647Y-59997653D01*
X93159601Y-59952849D01*
X93129211Y-59949999D01*
X92700001Y-59949999D01*
X92700000Y-59950000D01*
X92500000Y-59950000D01*
X92499999Y-59949999D01*
X92070796Y-59949999D01*
X92040399Y-59952849D01*
X92040397Y-59952849D01*
X91912352Y-59997653D01*
X91803209Y-60078206D01*
X91803207Y-60078208D01*
X91722654Y-60187351D01*
X91677850Y-60315397D01*
X91675000Y-60345787D01*
X89299999Y-60345787D01*
X89299999Y-59970796D01*
X89297149Y-59940399D01*
X89297149Y-59940397D01*
X89259114Y-59831697D01*
X89257742Y-59770527D01*
X89292586Y-59720233D01*
X89350338Y-59700025D01*
X89352559Y-59700000D01*
X93299999Y-59700000D01*
X93300000Y-59700000D01*
X94562499Y-58437501D01*
X98350001Y-58437501D01*
X98350001Y-58804203D01*
X98352850Y-58834600D01*
X98352850Y-58834602D01*
X98397654Y-58962647D01*
X98478207Y-59071790D01*
X98478209Y-59071792D01*
X98587352Y-59152345D01*
X98715398Y-59197149D01*
X98745789Y-59199999D01*
X99799998Y-59199999D01*
X99800000Y-59199998D01*
X99800000Y-58437501D01*
X100000000Y-58437501D01*
X100000000Y-59199998D01*
X100000001Y-59199999D01*
X101054203Y-59199999D01*
X101084600Y-59197149D01*
X101084602Y-59197149D01*
X101212647Y-59152345D01*
X101321790Y-59071792D01*
X101321792Y-59071790D01*
X101402345Y-58962647D01*
X101447149Y-58834601D01*
X101449999Y-58804211D01*
X101450000Y-58804210D01*
X101450000Y-58437501D01*
X102150001Y-58437501D01*
X102150001Y-58804203D01*
X102152850Y-58834600D01*
X102152850Y-58834602D01*
X102197654Y-58962647D01*
X102278207Y-59071790D01*
X102278209Y-59071792D01*
X102387352Y-59152345D01*
X102515398Y-59197149D01*
X102545789Y-59199999D01*
X103599998Y-59199999D01*
X103600000Y-59199998D01*
X103600000Y-58437501D01*
X103800000Y-58437501D01*
X103800000Y-59199998D01*
X103800001Y-59199999D01*
X104854203Y-59199999D01*
X104884600Y-59197149D01*
X104884602Y-59197149D01*
X105012647Y-59152345D01*
X105121790Y-59071792D01*
X105121792Y-59071790D01*
X105202345Y-58962647D01*
X105247149Y-58834601D01*
X105249999Y-58804211D01*
X105250000Y-58804210D01*
X105250000Y-58437501D01*
X105249999Y-58437500D01*
X103800001Y-58437500D01*
X103800000Y-58437501D01*
X103600000Y-58437501D01*
X103599999Y-58437500D01*
X102150002Y-58437500D01*
X102150001Y-58437501D01*
X101450000Y-58437501D01*
X101449999Y-58437500D01*
X100000001Y-58437500D01*
X100000000Y-58437501D01*
X99800000Y-58437501D01*
X99799999Y-58437500D01*
X98350002Y-58437500D01*
X98350001Y-58437501D01*
X94562499Y-58437501D01*
X95129212Y-57870788D01*
X98350000Y-57870788D01*
X98350000Y-58237499D01*
X98350001Y-58237500D01*
X99799999Y-58237500D01*
X99800000Y-58237499D01*
X99800000Y-57475001D01*
X100000000Y-57475001D01*
X100000000Y-58237499D01*
X100000001Y-58237500D01*
X101449998Y-58237500D01*
X101449999Y-58237499D01*
X101449999Y-57870796D01*
X101449998Y-57870788D01*
X102150000Y-57870788D01*
X102150000Y-58237499D01*
X102150001Y-58237500D01*
X103599999Y-58237500D01*
X103600000Y-58237499D01*
X103600000Y-57475001D01*
X103800000Y-57475001D01*
X103800000Y-58237499D01*
X103800001Y-58237500D01*
X105249998Y-58237500D01*
X105249999Y-58237499D01*
X105249999Y-57870796D01*
X105247149Y-57840399D01*
X105247149Y-57840397D01*
X105202345Y-57712352D01*
X105121792Y-57603209D01*
X105121790Y-57603207D01*
X105012647Y-57522654D01*
X104884601Y-57477850D01*
X104854211Y-57475000D01*
X103800001Y-57475000D01*
X103800000Y-57475001D01*
X103600000Y-57475001D01*
X103599999Y-57475000D01*
X102545796Y-57475000D01*
X102515399Y-57477850D01*
X102515397Y-57477850D01*
X102387352Y-57522654D01*
X102278209Y-57603207D01*
X102278207Y-57603209D01*
X102197654Y-57712352D01*
X102152850Y-57840398D01*
X102150000Y-57870788D01*
X101449998Y-57870788D01*
X101447149Y-57840399D01*
X101447149Y-57840397D01*
X101402345Y-57712352D01*
X101321792Y-57603209D01*
X101321790Y-57603207D01*
X101212647Y-57522654D01*
X101084601Y-57477850D01*
X101054211Y-57475000D01*
X100000001Y-57475000D01*
X100000000Y-57475001D01*
X99800000Y-57475001D01*
X99799999Y-57475000D01*
X98745796Y-57475000D01*
X98715399Y-57477850D01*
X98715397Y-57477850D01*
X98587352Y-57522654D01*
X98478209Y-57603207D01*
X98478207Y-57603209D01*
X98397654Y-57712352D01*
X98352850Y-57840398D01*
X98350000Y-57870788D01*
X95129212Y-57870788D01*
X97379212Y-55620788D01*
X107799999Y-55620788D01*
X107799999Y-56199999D01*
X107800000Y-56200000D01*
X108238565Y-56200000D01*
X108224999Y-56250630D01*
X108224999Y-56349370D01*
X108238565Y-56400000D01*
X107800001Y-56400000D01*
X107800000Y-56400001D01*
X107800000Y-56979203D01*
X107802849Y-57009600D01*
X107802849Y-57009602D01*
X107847653Y-57137647D01*
X107928206Y-57246790D01*
X107928208Y-57246792D01*
X108037351Y-57327345D01*
X108165397Y-57372149D01*
X108195788Y-57374999D01*
X108499997Y-57374999D01*
X108499999Y-57374998D01*
X108499999Y-56661433D01*
X108550629Y-56675000D01*
X108649369Y-56675000D01*
X108699999Y-56661433D01*
X108699999Y-57374998D01*
X108700000Y-57374999D01*
X109004202Y-57374999D01*
X109034599Y-57372149D01*
X109034601Y-57372149D01*
X109162646Y-57327345D01*
X109271789Y-57246792D01*
X109271791Y-57246790D01*
X109352344Y-57137647D01*
X109397148Y-57009601D01*
X109399998Y-56979211D01*
X109399999Y-56979210D01*
X109399999Y-56400001D01*
X109399998Y-56400000D01*
X108961433Y-56400000D01*
X108974999Y-56349370D01*
X108974999Y-56250630D01*
X108961433Y-56200000D01*
X109399997Y-56200000D01*
X109399998Y-56199999D01*
X109399998Y-55620796D01*
X109397148Y-55590399D01*
X109397148Y-55590397D01*
X109352344Y-55462352D01*
X109271791Y-55353209D01*
X109271789Y-55353207D01*
X109162646Y-55272654D01*
X109034600Y-55227850D01*
X109004210Y-55225000D01*
X108700000Y-55225000D01*
X108699999Y-55225001D01*
X108699999Y-55938566D01*
X108649369Y-55925000D01*
X108550629Y-55925000D01*
X108499999Y-55938566D01*
X108499999Y-55225001D01*
X108499998Y-55225000D01*
X108195795Y-55225000D01*
X108165398Y-55227850D01*
X108165396Y-55227850D01*
X108037351Y-55272654D01*
X107928208Y-55353207D01*
X107928206Y-55353209D01*
X107847653Y-55462352D01*
X107802849Y-55590398D01*
X107799999Y-55620788D01*
X97379212Y-55620788D01*
X98371004Y-54628996D01*
X98425521Y-54601219D01*
X98441008Y-54600000D01*
X109501000Y-54600000D01*
X109559191Y-54618907D01*
G37*
%TD.AperFunction*%
%TD*%
%TA.AperFunction,Conductor*%
%TO.N,GND*%
G36*
X150458691Y-77018907D02*
G01*
X150494655Y-77068407D01*
X150499500Y-77099000D01*
X150499500Y-100997015D01*
X150499319Y-101002993D01*
X150481637Y-101295304D01*
X150480196Y-101307171D01*
X150427948Y-101592278D01*
X150425087Y-101603886D01*
X150338855Y-101880615D01*
X150334616Y-101891793D01*
X150215652Y-102156119D01*
X150210096Y-102166704D01*
X150060147Y-102414751D01*
X150053356Y-102424590D01*
X149874600Y-102652755D01*
X149866673Y-102661704D01*
X149661704Y-102866673D01*
X149652755Y-102874600D01*
X149424590Y-103053356D01*
X149414751Y-103060147D01*
X149166704Y-103210096D01*
X149156119Y-103215652D01*
X148891793Y-103334616D01*
X148880615Y-103338855D01*
X148603886Y-103425087D01*
X148592278Y-103427948D01*
X148307171Y-103480196D01*
X148295304Y-103481637D01*
X148023993Y-103498048D01*
X148002991Y-103499319D01*
X147997015Y-103499500D01*
X133199000Y-103499500D01*
X133140809Y-103480593D01*
X133104845Y-103431093D01*
X133100000Y-103400500D01*
X133100000Y-98700001D01*
X133900001Y-98700001D01*
X133900001Y-99279203D01*
X133902850Y-99309600D01*
X133902850Y-99309602D01*
X133947654Y-99437647D01*
X134028207Y-99546790D01*
X134028209Y-99546792D01*
X134137352Y-99627345D01*
X134265398Y-99672149D01*
X134295789Y-99674999D01*
X134562498Y-99674999D01*
X134562500Y-99674998D01*
X134562500Y-98700001D01*
X134762500Y-98700001D01*
X134762500Y-99674998D01*
X134762501Y-99674999D01*
X135029203Y-99674999D01*
X135059600Y-99672149D01*
X135059602Y-99672149D01*
X135187647Y-99627345D01*
X135296790Y-99546792D01*
X135296792Y-99546790D01*
X135377345Y-99437647D01*
X135413981Y-99332944D01*
X141599500Y-99332944D01*
X141599500Y-99667056D01*
X141610233Y-99776033D01*
X141632248Y-99999555D01*
X141697431Y-100327253D01*
X141794414Y-100646967D01*
X141922273Y-100955645D01*
X141922286Y-100955672D01*
X142079773Y-101250312D01*
X142218993Y-101458667D01*
X142265399Y-101528118D01*
X142477357Y-101786390D01*
X142713610Y-102022643D01*
X142971882Y-102234601D01*
X143110783Y-102327412D01*
X143249687Y-102420226D01*
X143544327Y-102577713D01*
X143544346Y-102577723D01*
X143853024Y-102705582D01*
X143853026Y-102705582D01*
X143853032Y-102705585D01*
X144129376Y-102789412D01*
X144172749Y-102802569D01*
X144500441Y-102867751D01*
X144832944Y-102900500D01*
X144832947Y-102900500D01*
X145167053Y-102900500D01*
X145167056Y-102900500D01*
X145499559Y-102867751D01*
X145827251Y-102802569D01*
X146016857Y-102745052D01*
X146146967Y-102705585D01*
X146146969Y-102705583D01*
X146146976Y-102705582D01*
X146455654Y-102577723D01*
X146742147Y-102424590D01*
X146750312Y-102420226D01*
X146758506Y-102414751D01*
X147028118Y-102234601D01*
X147286390Y-102022643D01*
X147522643Y-101786390D01*
X147734601Y-101528118D01*
X147920224Y-101250315D01*
X148077723Y-100955654D01*
X148205582Y-100646976D01*
X148302569Y-100327251D01*
X148367751Y-99999559D01*
X148400500Y-99667056D01*
X148400500Y-99332944D01*
X148367751Y-99000441D01*
X148302569Y-98672749D01*
X148289412Y-98629376D01*
X148205585Y-98353032D01*
X148077726Y-98044354D01*
X148077723Y-98044346D01*
X148077713Y-98044327D01*
X147920226Y-97749687D01*
X147801935Y-97572654D01*
X147734601Y-97471882D01*
X147522643Y-97213610D01*
X147286390Y-96977357D01*
X147028118Y-96765399D01*
X146958667Y-96718993D01*
X146750312Y-96579773D01*
X146455672Y-96422286D01*
X146455660Y-96422280D01*
X146455654Y-96422277D01*
X146455649Y-96422274D01*
X146455645Y-96422273D01*
X146146967Y-96294414D01*
X145827253Y-96197431D01*
X145606777Y-96153576D01*
X145499559Y-96132249D01*
X145499557Y-96132248D01*
X145256491Y-96108308D01*
X145167056Y-96099500D01*
X144832944Y-96099500D01*
X144734700Y-96109176D01*
X144500444Y-96132248D01*
X144172746Y-96197431D01*
X143853032Y-96294414D01*
X143544354Y-96422273D01*
X143544327Y-96422286D01*
X143249687Y-96579773D01*
X142971880Y-96765400D01*
X142713615Y-96977352D01*
X142477352Y-97213615D01*
X142265400Y-97471880D01*
X142079773Y-97749687D01*
X141922286Y-98044327D01*
X141922273Y-98044354D01*
X141794414Y-98353032D01*
X141697431Y-98672746D01*
X141632248Y-99000444D01*
X141606655Y-99260292D01*
X141599500Y-99332944D01*
X135413981Y-99332944D01*
X135422149Y-99309601D01*
X135424999Y-99279211D01*
X135425000Y-99279210D01*
X135425000Y-98700001D01*
X135424999Y-98700000D01*
X134762501Y-98700000D01*
X134762500Y-98700001D01*
X134562500Y-98700001D01*
X134562499Y-98700000D01*
X133900002Y-98700000D01*
X133900001Y-98700001D01*
X133100000Y-98700001D01*
X133100000Y-97920788D01*
X133900000Y-97920788D01*
X133900000Y-98499999D01*
X133900001Y-98500000D01*
X134562499Y-98500000D01*
X134562500Y-98499999D01*
X134562500Y-97525001D01*
X134762500Y-97525001D01*
X134762500Y-98499999D01*
X134762501Y-98500000D01*
X135424998Y-98500000D01*
X135424999Y-98499999D01*
X135424999Y-97920796D01*
X135422149Y-97890399D01*
X135422149Y-97890397D01*
X135377345Y-97762352D01*
X135296792Y-97653209D01*
X135296790Y-97653207D01*
X135187647Y-97572654D01*
X135059601Y-97527850D01*
X135029211Y-97525000D01*
X134762501Y-97525000D01*
X134762500Y-97525001D01*
X134562500Y-97525001D01*
X134562499Y-97525000D01*
X134295796Y-97525000D01*
X134265399Y-97527850D01*
X134265397Y-97527850D01*
X134137352Y-97572654D01*
X134028209Y-97653207D01*
X134028207Y-97653209D01*
X133947654Y-97762352D01*
X133902850Y-97890398D01*
X133900000Y-97920788D01*
X133100000Y-97920788D01*
X133100000Y-95100001D01*
X133900001Y-95100001D01*
X133900001Y-95679203D01*
X133902850Y-95709600D01*
X133902850Y-95709602D01*
X133947654Y-95837647D01*
X134028207Y-95946790D01*
X134028209Y-95946792D01*
X134137352Y-96027345D01*
X134265398Y-96072149D01*
X134295789Y-96074999D01*
X134562498Y-96074999D01*
X134562500Y-96074998D01*
X134562500Y-95100001D01*
X134762500Y-95100001D01*
X134762500Y-96074998D01*
X134762501Y-96074999D01*
X135029203Y-96074999D01*
X135059600Y-96072149D01*
X135059602Y-96072149D01*
X135187647Y-96027345D01*
X135296790Y-95946792D01*
X135296792Y-95946790D01*
X135377345Y-95837647D01*
X135422149Y-95709601D01*
X135424999Y-95679211D01*
X135425000Y-95679210D01*
X135425000Y-95100001D01*
X135424999Y-95100000D01*
X134762501Y-95100000D01*
X134762500Y-95100001D01*
X134562500Y-95100001D01*
X134562499Y-95100000D01*
X133900002Y-95100000D01*
X133900001Y-95100001D01*
X133100000Y-95100001D01*
X133100000Y-94320788D01*
X133900000Y-94320788D01*
X133900000Y-94899999D01*
X133900001Y-94900000D01*
X134562499Y-94900000D01*
X134562500Y-94899999D01*
X134562500Y-93925001D01*
X134762500Y-93925001D01*
X134762500Y-94899999D01*
X134762501Y-94900000D01*
X135424998Y-94900000D01*
X135424999Y-94899999D01*
X135424999Y-94320796D01*
X135422149Y-94290399D01*
X135422149Y-94290397D01*
X135377345Y-94162352D01*
X135296792Y-94053209D01*
X135296790Y-94053207D01*
X135187647Y-93972654D01*
X135059601Y-93927850D01*
X135029211Y-93925000D01*
X134762501Y-93925000D01*
X134762500Y-93925001D01*
X134562500Y-93925001D01*
X134562499Y-93925000D01*
X134295796Y-93925000D01*
X134265399Y-93927850D01*
X134265397Y-93927850D01*
X134137352Y-93972654D01*
X134028209Y-94053207D01*
X134028207Y-94053209D01*
X133947654Y-94162352D01*
X133902850Y-94290398D01*
X133900000Y-94320788D01*
X133100000Y-94320788D01*
X133100000Y-91500001D01*
X134000001Y-91500001D01*
X134000001Y-92079203D01*
X134002850Y-92109600D01*
X134002850Y-92109602D01*
X134047654Y-92237647D01*
X134128207Y-92346790D01*
X134128209Y-92346792D01*
X134237352Y-92427345D01*
X134365398Y-92472149D01*
X134395789Y-92474999D01*
X134662498Y-92474999D01*
X134662500Y-92474998D01*
X134662500Y-91500001D01*
X134862500Y-91500001D01*
X134862500Y-92474998D01*
X134862501Y-92474999D01*
X135129203Y-92474999D01*
X135159600Y-92472149D01*
X135159602Y-92472149D01*
X135287647Y-92427345D01*
X135396790Y-92346792D01*
X135396792Y-92346790D01*
X135477345Y-92237647D01*
X135522149Y-92109601D01*
X135524999Y-92079211D01*
X135525000Y-92079210D01*
X135525000Y-91500001D01*
X135524999Y-91500000D01*
X134862501Y-91500000D01*
X134862500Y-91500001D01*
X134662500Y-91500001D01*
X134662499Y-91500000D01*
X134000002Y-91500000D01*
X134000001Y-91500001D01*
X133100000Y-91500001D01*
X133100000Y-90720788D01*
X134000000Y-90720788D01*
X134000000Y-91299999D01*
X134000001Y-91300000D01*
X134662499Y-91300000D01*
X134662500Y-91299999D01*
X134662500Y-90325001D01*
X134862500Y-90325001D01*
X134862500Y-91299999D01*
X134862501Y-91300000D01*
X135524998Y-91300000D01*
X135524999Y-91299999D01*
X135524999Y-90720796D01*
X135522149Y-90690399D01*
X135522148Y-90690393D01*
X135504290Y-90639357D01*
X135504289Y-90639356D01*
X135477344Y-90562352D01*
X135396792Y-90453209D01*
X135396790Y-90453207D01*
X135287647Y-90372654D01*
X135159601Y-90327850D01*
X135129211Y-90325000D01*
X134862501Y-90325000D01*
X134862500Y-90325001D01*
X134662500Y-90325001D01*
X134662499Y-90325000D01*
X134395796Y-90325000D01*
X134365399Y-90327850D01*
X134365397Y-90327850D01*
X134237352Y-90372654D01*
X134128209Y-90453207D01*
X134128207Y-90453209D01*
X134047654Y-90562352D01*
X134002850Y-90690398D01*
X134000000Y-90720788D01*
X133100000Y-90720788D01*
X133100000Y-86600001D01*
X134000001Y-86600001D01*
X134000001Y-87179203D01*
X134002850Y-87209600D01*
X134002850Y-87209602D01*
X134047654Y-87337647D01*
X134128207Y-87446790D01*
X134128209Y-87446792D01*
X134237352Y-87527345D01*
X134365398Y-87572149D01*
X134395789Y-87574999D01*
X134662498Y-87574999D01*
X134662500Y-87574998D01*
X134662500Y-86600001D01*
X134862500Y-86600001D01*
X134862500Y-87574998D01*
X134862501Y-87574999D01*
X135129203Y-87574999D01*
X135159600Y-87572149D01*
X135159602Y-87572149D01*
X135287647Y-87527345D01*
X135396790Y-87446792D01*
X135396792Y-87446790D01*
X135477345Y-87337647D01*
X135522149Y-87209601D01*
X135524999Y-87179211D01*
X135525000Y-87179210D01*
X135525000Y-86672954D01*
X139800000Y-86672954D01*
X139800000Y-87127045D01*
X139839574Y-87579376D01*
X139839574Y-87579381D01*
X139918422Y-88026551D01*
X139918423Y-88026554D01*
X140035943Y-88465148D01*
X140191247Y-88891841D01*
X140383152Y-89303386D01*
X140610179Y-89696609D01*
X140610193Y-89696631D01*
X140870625Y-90068566D01*
X140870637Y-90068582D01*
X141162495Y-90416405D01*
X141252333Y-90506243D01*
X142807967Y-88950608D01*
X142949390Y-89092031D01*
X141393756Y-90647666D01*
X141483594Y-90737504D01*
X141831417Y-91029362D01*
X141831433Y-91029374D01*
X142203368Y-91289806D01*
X142203390Y-91289820D01*
X142596613Y-91516847D01*
X143008158Y-91708752D01*
X143434851Y-91864056D01*
X143434850Y-91864056D01*
X143873445Y-91981576D01*
X143873448Y-91981577D01*
X144320620Y-92060425D01*
X144772955Y-92100000D01*
X145227045Y-92100000D01*
X145679376Y-92060425D01*
X145679381Y-92060425D01*
X146126551Y-91981577D01*
X146126554Y-91981576D01*
X146565148Y-91864056D01*
X146991841Y-91708752D01*
X147403386Y-91516847D01*
X147796609Y-91289820D01*
X147796631Y-91289806D01*
X148168566Y-91029374D01*
X148168582Y-91029362D01*
X148516411Y-90737499D01*
X148606244Y-90647666D01*
X147050609Y-89092031D01*
X147192032Y-88950609D01*
X148747666Y-90506243D01*
X148837499Y-90416411D01*
X149129362Y-90068582D01*
X149129374Y-90068566D01*
X149389806Y-89696631D01*
X149389820Y-89696609D01*
X149616847Y-89303386D01*
X149808752Y-88891841D01*
X149964056Y-88465148D01*
X150081576Y-88026554D01*
X150081577Y-88026551D01*
X150160425Y-87579381D01*
X150160425Y-87579376D01*
X150200000Y-87127045D01*
X150200000Y-86672954D01*
X150160425Y-86220623D01*
X150160425Y-86220618D01*
X150081577Y-85773448D01*
X150081576Y-85773445D01*
X149964056Y-85334851D01*
X149808752Y-84908158D01*
X149616847Y-84496613D01*
X149389820Y-84103390D01*
X149389806Y-84103368D01*
X149129374Y-83731433D01*
X149129362Y-83731417D01*
X148837504Y-83383594D01*
X148747666Y-83293756D01*
X147192031Y-84849390D01*
X147050608Y-84707967D01*
X148606243Y-83152333D01*
X148516405Y-83062495D01*
X148168582Y-82770637D01*
X148168566Y-82770625D01*
X147796631Y-82510193D01*
X147796609Y-82510179D01*
X147403386Y-82283152D01*
X146991841Y-82091247D01*
X146565148Y-81935943D01*
X146565149Y-81935943D01*
X146126554Y-81818423D01*
X146126551Y-81818422D01*
X145679379Y-81739574D01*
X145227045Y-81700000D01*
X144772955Y-81700000D01*
X144320623Y-81739574D01*
X144320618Y-81739574D01*
X143873448Y-81818422D01*
X143873445Y-81818423D01*
X143434851Y-81935943D01*
X143008158Y-82091247D01*
X142596613Y-82283152D01*
X142203390Y-82510179D01*
X142203368Y-82510193D01*
X141831433Y-82770625D01*
X141831417Y-82770637D01*
X141483588Y-83062500D01*
X141393755Y-83152332D01*
X142949391Y-84707968D01*
X142807968Y-84849391D01*
X141252332Y-83293755D01*
X141162500Y-83383588D01*
X140870637Y-83731417D01*
X140870625Y-83731433D01*
X140610193Y-84103368D01*
X140610179Y-84103390D01*
X140383152Y-84496613D01*
X140191247Y-84908158D01*
X140035943Y-85334851D01*
X139918423Y-85773445D01*
X139918422Y-85773448D01*
X139839574Y-86220618D01*
X139839574Y-86220623D01*
X139800000Y-86672954D01*
X135525000Y-86672954D01*
X135525000Y-86600001D01*
X135524999Y-86600000D01*
X134862501Y-86600000D01*
X134862500Y-86600001D01*
X134662500Y-86600001D01*
X134662499Y-86600000D01*
X134000002Y-86600000D01*
X134000001Y-86600001D01*
X133100000Y-86600001D01*
X133100000Y-85820788D01*
X134000000Y-85820788D01*
X134000000Y-86399999D01*
X134000001Y-86400000D01*
X134662499Y-86400000D01*
X134662500Y-86399999D01*
X134662500Y-85425001D01*
X134862500Y-85425001D01*
X134862500Y-86399999D01*
X134862501Y-86400000D01*
X135524998Y-86400000D01*
X135524999Y-86399999D01*
X135524999Y-85820796D01*
X135522149Y-85790399D01*
X135522149Y-85790397D01*
X135477345Y-85662352D01*
X135396792Y-85553209D01*
X135396790Y-85553207D01*
X135287647Y-85472654D01*
X135159601Y-85427850D01*
X135129211Y-85425000D01*
X134862501Y-85425000D01*
X134862500Y-85425001D01*
X134662500Y-85425001D01*
X134662499Y-85425000D01*
X134395796Y-85425000D01*
X134365399Y-85427850D01*
X134365397Y-85427850D01*
X134237352Y-85472654D01*
X134128209Y-85553207D01*
X134128207Y-85553209D01*
X134047654Y-85662352D01*
X134002850Y-85790398D01*
X134000000Y-85820788D01*
X133100000Y-85820788D01*
X133100000Y-79600000D01*
X133900001Y-79600000D01*
X133900001Y-80179202D01*
X133902850Y-80209599D01*
X133902850Y-80209601D01*
X133947654Y-80337646D01*
X134028207Y-80446789D01*
X134028209Y-80446791D01*
X134137352Y-80527344D01*
X134265398Y-80572148D01*
X134295789Y-80574998D01*
X134562498Y-80574998D01*
X134562500Y-80574997D01*
X134562500Y-79600000D01*
X134762500Y-79600000D01*
X134762500Y-80574997D01*
X134762501Y-80574998D01*
X135029203Y-80574998D01*
X135059600Y-80572148D01*
X135059602Y-80572148D01*
X135187647Y-80527344D01*
X135296790Y-80446791D01*
X135296792Y-80446789D01*
X135377345Y-80337646D01*
X135422149Y-80209600D01*
X135424999Y-80179210D01*
X135425000Y-80179209D01*
X135425000Y-79600000D01*
X135424999Y-79599999D01*
X134762501Y-79599999D01*
X134762500Y-79600000D01*
X134562500Y-79600000D01*
X134562499Y-79599999D01*
X133900002Y-79599999D01*
X133900001Y-79600000D01*
X133100000Y-79600000D01*
X133100000Y-78820787D01*
X133900000Y-78820787D01*
X133900000Y-79399998D01*
X133900001Y-79399999D01*
X134562499Y-79399999D01*
X134562500Y-79399998D01*
X134562500Y-78425000D01*
X134762500Y-78425000D01*
X134762500Y-79399998D01*
X134762501Y-79399999D01*
X135424998Y-79399999D01*
X135424999Y-79399998D01*
X135424999Y-78820795D01*
X135422149Y-78790398D01*
X135422149Y-78790396D01*
X135377345Y-78662351D01*
X135296792Y-78553208D01*
X135296790Y-78553206D01*
X135187647Y-78472653D01*
X135059601Y-78427849D01*
X135029211Y-78424999D01*
X134762501Y-78424999D01*
X134762500Y-78425000D01*
X134562500Y-78425000D01*
X134562499Y-78424999D01*
X134295796Y-78424999D01*
X134265399Y-78427849D01*
X134265397Y-78427849D01*
X134137352Y-78472653D01*
X134028209Y-78553206D01*
X134028207Y-78553208D01*
X133947654Y-78662351D01*
X133902850Y-78790397D01*
X133900000Y-78820787D01*
X133100000Y-78820787D01*
X133100000Y-77141008D01*
X133102468Y-77133410D01*
X133101219Y-77125521D01*
X133111743Y-77104865D01*
X133118907Y-77082817D01*
X133128996Y-77071004D01*
X133171004Y-77028996D01*
X133225521Y-77001219D01*
X133241008Y-77000000D01*
X150400500Y-77000000D01*
X150458691Y-77018907D01*
G37*
%TD.AperFunction*%
%TD*%
%TA.AperFunction,Conductor*%
%TO.N,Net-(Q3-S-Pad2)*%
G36*
X132853691Y-77218907D02*
G01*
X132889655Y-77268407D01*
X132894500Y-77299000D01*
X132894500Y-81401000D01*
X132875593Y-81459191D01*
X132826093Y-81495155D01*
X132795500Y-81500000D01*
X130658725Y-81500000D01*
X130633103Y-81496627D01*
X130604994Y-81489095D01*
X130569183Y-81479500D01*
X130430817Y-81479500D01*
X130395006Y-81489095D01*
X130366897Y-81496627D01*
X130341275Y-81500000D01*
X127799000Y-81500000D01*
X127740809Y-81481093D01*
X127704845Y-81431593D01*
X127700000Y-81401000D01*
X127700000Y-80835001D01*
X128055001Y-80835001D01*
X128055001Y-80882665D01*
X128057933Y-80907956D01*
X128103615Y-81011414D01*
X128183585Y-81091384D01*
X128287045Y-81137066D01*
X128312330Y-81139999D01*
X128514998Y-81139999D01*
X128515000Y-81139998D01*
X128515000Y-80835001D01*
X128715000Y-80835001D01*
X128715000Y-81139998D01*
X128715001Y-81139999D01*
X128917663Y-81139999D01*
X128917665Y-81139998D01*
X128942956Y-81137066D01*
X129046414Y-81091384D01*
X129126384Y-81011414D01*
X129172066Y-80907954D01*
X129174999Y-80882671D01*
X129175000Y-80882669D01*
X129175000Y-80835001D01*
X129174999Y-80835000D01*
X128715001Y-80835000D01*
X128715000Y-80835001D01*
X128515000Y-80835001D01*
X128514999Y-80835000D01*
X128055002Y-80835000D01*
X128055001Y-80835001D01*
X127700000Y-80835001D01*
X127700000Y-80587328D01*
X128055000Y-80587328D01*
X128055000Y-80634999D01*
X128055001Y-80635000D01*
X128514999Y-80635000D01*
X128515000Y-80634999D01*
X128515000Y-80330001D01*
X128715000Y-80330001D01*
X128715000Y-80634999D01*
X128715001Y-80635000D01*
X129174998Y-80635000D01*
X129174999Y-80634999D01*
X129174999Y-80587337D01*
X129174998Y-80587334D01*
X129172066Y-80562043D01*
X129126384Y-80458585D01*
X129046414Y-80378615D01*
X128942954Y-80332933D01*
X128917671Y-80330000D01*
X128715001Y-80330000D01*
X128715000Y-80330001D01*
X128515000Y-80330001D01*
X128514999Y-80330000D01*
X128312338Y-80330000D01*
X128312333Y-80330001D01*
X128287043Y-80332933D01*
X128183585Y-80378615D01*
X128103615Y-80458585D01*
X128057933Y-80562045D01*
X128055000Y-80587328D01*
X127700000Y-80587328D01*
X127700000Y-79565001D01*
X128055001Y-79565001D01*
X128055001Y-79612665D01*
X128057933Y-79637956D01*
X128103615Y-79741414D01*
X128183585Y-79821384D01*
X128287045Y-79867066D01*
X128312330Y-79869999D01*
X128514998Y-79869999D01*
X128515000Y-79869998D01*
X128515000Y-79565001D01*
X128715000Y-79565001D01*
X128715000Y-79869998D01*
X128715001Y-79869999D01*
X128917663Y-79869999D01*
X128917665Y-79869998D01*
X128942956Y-79867066D01*
X129046414Y-79821384D01*
X129126384Y-79741414D01*
X129172066Y-79637954D01*
X129174999Y-79612671D01*
X129175000Y-79612669D01*
X129175000Y-79600000D01*
X130975001Y-79600000D01*
X130975001Y-80179202D01*
X130977850Y-80209599D01*
X130977850Y-80209601D01*
X131022654Y-80337646D01*
X131103207Y-80446789D01*
X131103209Y-80446791D01*
X131212352Y-80527344D01*
X131340398Y-80572148D01*
X131370789Y-80574998D01*
X131637498Y-80574998D01*
X131637500Y-80574997D01*
X131637500Y-79600000D01*
X131837500Y-79600000D01*
X131837500Y-80574997D01*
X131837501Y-80574998D01*
X132104203Y-80574998D01*
X132134600Y-80572148D01*
X132134602Y-80572148D01*
X132262647Y-80527344D01*
X132371790Y-80446791D01*
X132371792Y-80446789D01*
X132452345Y-80337646D01*
X132497149Y-80209600D01*
X132499999Y-80179210D01*
X132500000Y-80179209D01*
X132500000Y-79600000D01*
X132499999Y-79599999D01*
X131837501Y-79599999D01*
X131837500Y-79600000D01*
X131637500Y-79600000D01*
X131637499Y-79599999D01*
X130975002Y-79599999D01*
X130975001Y-79600000D01*
X129175000Y-79600000D01*
X129175000Y-79565001D01*
X129174999Y-79565000D01*
X128715001Y-79565000D01*
X128715000Y-79565001D01*
X128515000Y-79565001D01*
X128514999Y-79565000D01*
X128055002Y-79565000D01*
X128055001Y-79565001D01*
X127700000Y-79565001D01*
X127700000Y-79317328D01*
X128055000Y-79317328D01*
X128055000Y-79364999D01*
X128055001Y-79365000D01*
X128514999Y-79365000D01*
X128515000Y-79364999D01*
X128515000Y-79060001D01*
X128715000Y-79060001D01*
X128715000Y-79364999D01*
X128715001Y-79365000D01*
X129174998Y-79365000D01*
X129174999Y-79364999D01*
X129174999Y-79317337D01*
X129174998Y-79317334D01*
X129172066Y-79292043D01*
X129126384Y-79188585D01*
X129046414Y-79108615D01*
X128942954Y-79062933D01*
X128917671Y-79060000D01*
X128715001Y-79060000D01*
X128715000Y-79060001D01*
X128515000Y-79060001D01*
X128514999Y-79060000D01*
X128312338Y-79060000D01*
X128312333Y-79060001D01*
X128287043Y-79062933D01*
X128183585Y-79108615D01*
X128103615Y-79188585D01*
X128057933Y-79292045D01*
X128055000Y-79317328D01*
X127700000Y-79317328D01*
X127700000Y-78820787D01*
X130975000Y-78820787D01*
X130975000Y-79399998D01*
X130975001Y-79399999D01*
X131637499Y-79399999D01*
X131637500Y-79399998D01*
X131637500Y-78425000D01*
X131837500Y-78425000D01*
X131837500Y-79399998D01*
X131837501Y-79399999D01*
X132499998Y-79399999D01*
X132499999Y-79399998D01*
X132499999Y-78820795D01*
X132497149Y-78790398D01*
X132497149Y-78790396D01*
X132452345Y-78662351D01*
X132371792Y-78553208D01*
X132371790Y-78553206D01*
X132262647Y-78472653D01*
X132134601Y-78427849D01*
X132104211Y-78424999D01*
X131837501Y-78424999D01*
X131837500Y-78425000D01*
X131637500Y-78425000D01*
X131637499Y-78424999D01*
X131370796Y-78424999D01*
X131340399Y-78427849D01*
X131340397Y-78427849D01*
X131212352Y-78472653D01*
X131103209Y-78553206D01*
X131103207Y-78553208D01*
X131022654Y-78662351D01*
X130977850Y-78790397D01*
X130975000Y-78820787D01*
X127700000Y-78820787D01*
X127700000Y-78295001D01*
X128055001Y-78295001D01*
X128055001Y-78342665D01*
X128057933Y-78367956D01*
X128103615Y-78471414D01*
X128183585Y-78551384D01*
X128287045Y-78597066D01*
X128312330Y-78599999D01*
X128514998Y-78599999D01*
X128515000Y-78599998D01*
X128515000Y-78295001D01*
X128715000Y-78295001D01*
X128715000Y-78599998D01*
X128715001Y-78599999D01*
X128917663Y-78599999D01*
X128917665Y-78599998D01*
X128942956Y-78597066D01*
X129046414Y-78551384D01*
X129126384Y-78471414D01*
X129172066Y-78367954D01*
X129174999Y-78342671D01*
X129175000Y-78342669D01*
X129175000Y-78295001D01*
X129174999Y-78295000D01*
X128715001Y-78295000D01*
X128715000Y-78295001D01*
X128515000Y-78295001D01*
X128514999Y-78295000D01*
X128055002Y-78295000D01*
X128055001Y-78295001D01*
X127700000Y-78295001D01*
X127700000Y-78047328D01*
X128055000Y-78047328D01*
X128055000Y-78094999D01*
X128055001Y-78095000D01*
X128514999Y-78095000D01*
X128515000Y-78094999D01*
X128515000Y-77790001D01*
X128715000Y-77790001D01*
X128715000Y-78094999D01*
X128715001Y-78095000D01*
X129174998Y-78095000D01*
X129174999Y-78094999D01*
X129174999Y-78047337D01*
X129174998Y-78047334D01*
X129172066Y-78022043D01*
X129126384Y-77918585D01*
X129046414Y-77838615D01*
X128942954Y-77792933D01*
X128917671Y-77790000D01*
X128715001Y-77790000D01*
X128715000Y-77790001D01*
X128515000Y-77790001D01*
X128514999Y-77790000D01*
X128312338Y-77790000D01*
X128312333Y-77790001D01*
X128287043Y-77792933D01*
X128183585Y-77838615D01*
X128103615Y-77918585D01*
X128057933Y-78022045D01*
X128055000Y-78047328D01*
X127700000Y-78047328D01*
X127700000Y-78041008D01*
X127704845Y-78026096D01*
X127704845Y-78013881D01*
X127712024Y-78003999D01*
X127718907Y-77982817D01*
X127728996Y-77971004D01*
X128471004Y-77228996D01*
X128525521Y-77201219D01*
X128541008Y-77200000D01*
X132795500Y-77200000D01*
X132853691Y-77218907D01*
G37*
%TD.AperFunction*%
%TD*%
%TA.AperFunction,Conductor*%
%TO.N,-2V5*%
G36*
X89245945Y-70975769D02*
G01*
X89289210Y-71019034D01*
X89300000Y-71063979D01*
X89300000Y-71400000D01*
X89601199Y-71400000D01*
X89659390Y-71418907D01*
X89695354Y-71468407D01*
X89698981Y-71514482D01*
X89695000Y-71539625D01*
X89695000Y-71932948D01*
X89694947Y-71936185D01*
X89694500Y-71949847D01*
X89694500Y-72486989D01*
X89675593Y-72545180D01*
X89626093Y-72581144D01*
X89564907Y-72581144D01*
X89550555Y-72575199D01*
X89482968Y-72540762D01*
X89383454Y-72525000D01*
X89225001Y-72525000D01*
X89225000Y-72525001D01*
X89225000Y-73874998D01*
X89225001Y-73874999D01*
X89383453Y-73874999D01*
X89482965Y-73859239D01*
X89482969Y-73859238D01*
X89550554Y-73824801D01*
X89610986Y-73815229D01*
X89665503Y-73843006D01*
X89693281Y-73897522D01*
X89694500Y-73913010D01*
X89694500Y-73980500D01*
X89697030Y-74012643D01*
X89701883Y-74043293D01*
X89702646Y-74047781D01*
X89702647Y-74047786D01*
X89725767Y-74101878D01*
X89731252Y-74162817D01*
X89716289Y-74196910D01*
X89711147Y-74204380D01*
X89695933Y-74219596D01*
X89685960Y-74240982D01*
X89681277Y-74247788D01*
X89663226Y-74261621D01*
X89647715Y-74278254D01*
X89639419Y-74279866D01*
X89632713Y-74285006D01*
X89609980Y-74285587D01*
X89587653Y-74289927D01*
X89579993Y-74286354D01*
X89571548Y-74286571D01*
X89552813Y-74273678D01*
X89532201Y-74264066D01*
X89525559Y-74254924D01*
X89521144Y-74251886D01*
X89519051Y-74245966D01*
X89509996Y-74233502D01*
X89503648Y-74219888D01*
X89420109Y-74136349D01*
X89313047Y-74086425D01*
X89313040Y-74086423D01*
X89264254Y-74080000D01*
X89190001Y-74080000D01*
X89190000Y-74080001D01*
X89190000Y-75119998D01*
X89190001Y-75119999D01*
X89264251Y-75119999D01*
X89264260Y-75119998D01*
X89313041Y-75113577D01*
X89420109Y-75063650D01*
X89503649Y-74980110D01*
X89509996Y-74966499D01*
X89551722Y-74921749D01*
X89611782Y-74910071D01*
X89667236Y-74935927D01*
X89681689Y-74952814D01*
X89686113Y-74959345D01*
X89695933Y-74980404D01*
X89709706Y-74994177D01*
X89714999Y-75001991D01*
X89720999Y-75022763D01*
X89730814Y-75042028D01*
X89729457Y-75052046D01*
X89731978Y-75060773D01*
X89726061Y-75077127D01*
X89724028Y-75092144D01*
X89725182Y-75092519D01*
X89704556Y-75155999D01*
X89694500Y-75219496D01*
X89694500Y-76401000D01*
X89675593Y-76459191D01*
X89626093Y-76495155D01*
X89595500Y-76500000D01*
X86599000Y-76500000D01*
X86540809Y-76481093D01*
X86504845Y-76431593D01*
X86500000Y-76401000D01*
X86500000Y-74700001D01*
X88620001Y-74700001D01*
X88620001Y-74824260D01*
X88626422Y-74873041D01*
X88676349Y-74980109D01*
X88759890Y-75063650D01*
X88866952Y-75113574D01*
X88866959Y-75113576D01*
X88915745Y-75119999D01*
X88989999Y-75119998D01*
X88990000Y-75119998D01*
X88990000Y-74700001D01*
X88989999Y-74700000D01*
X88620002Y-74700000D01*
X88620001Y-74700001D01*
X86500000Y-74700001D01*
X86500000Y-74375746D01*
X88620000Y-74375746D01*
X88620000Y-74499999D01*
X88620001Y-74500000D01*
X88989999Y-74500000D01*
X88990000Y-74499999D01*
X88990000Y-74079999D01*
X88915749Y-74080000D01*
X88915738Y-74080001D01*
X88866959Y-74086422D01*
X88759890Y-74136349D01*
X88676349Y-74219890D01*
X88626425Y-74326952D01*
X88626423Y-74326959D01*
X88620000Y-74375746D01*
X86500000Y-74375746D01*
X86500000Y-73541008D01*
X86518700Y-73483453D01*
X88475000Y-73483453D01*
X88490760Y-73582965D01*
X88490762Y-73582969D01*
X88551881Y-73702921D01*
X88647078Y-73798118D01*
X88767030Y-73859237D01*
X88767029Y-73859237D01*
X88866545Y-73874999D01*
X89025000Y-73874999D01*
X89025000Y-73300001D01*
X89024999Y-73300000D01*
X88475002Y-73300000D01*
X88475001Y-73300001D01*
X88475001Y-73483453D01*
X88475000Y-73483453D01*
X86518700Y-73483453D01*
X86518907Y-73482817D01*
X86528996Y-73471004D01*
X87083454Y-72916546D01*
X88475000Y-72916546D01*
X88475000Y-73099999D01*
X88475001Y-73100000D01*
X89024999Y-73100000D01*
X89025000Y-73099999D01*
X89025000Y-72525001D01*
X89024999Y-72525000D01*
X88866547Y-72525000D01*
X88866546Y-72525001D01*
X88767034Y-72540760D01*
X88767030Y-72540762D01*
X88647078Y-72601881D01*
X88551881Y-72697078D01*
X88490762Y-72817030D01*
X88475000Y-72916546D01*
X87083454Y-72916546D01*
X87100063Y-72899937D01*
X87139620Y-72875738D01*
X87146955Y-72873366D01*
X87233126Y-72859719D01*
X87353220Y-72798528D01*
X87448528Y-72703220D01*
X87509719Y-72583126D01*
X87512005Y-72568687D01*
X87539780Y-72514174D01*
X87584161Y-72488549D01*
X87615989Y-72480021D01*
X87684511Y-72440460D01*
X87740460Y-72384511D01*
X89130996Y-70993975D01*
X89185513Y-70966198D01*
X89245945Y-70975769D01*
G37*
%TD.AperFunction*%
%TD*%
%TA.AperFunction,Conductor*%
%TO.N,/sink/ISENSE*%
G36*
X129117183Y-72418907D02*
G01*
X129128996Y-72428996D01*
X129471004Y-72771004D01*
X129498781Y-72825521D01*
X129500000Y-72841008D01*
X129500000Y-76058992D01*
X129481093Y-76117183D01*
X129471004Y-76128996D01*
X128634496Y-76965504D01*
X128579979Y-76993281D01*
X128564492Y-76994500D01*
X128541008Y-76994500D01*
X128530258Y-76994922D01*
X128524876Y-76995134D01*
X128511331Y-76996200D01*
X128509396Y-76996353D01*
X128509393Y-76996353D01*
X128509392Y-76996354D01*
X128432230Y-77018115D01*
X128432224Y-77018117D01*
X128377708Y-77045894D01*
X128325699Y-77083681D01*
X127583666Y-77825714D01*
X127572745Y-77837527D01*
X127562641Y-77849358D01*
X127562637Y-77849364D01*
X127535071Y-77898581D01*
X127535063Y-77898599D01*
X127531533Y-77904903D01*
X127519696Y-77924718D01*
X127514079Y-77949322D01*
X127512374Y-77953445D01*
X127504555Y-77977512D01*
X127494500Y-78041003D01*
X127494500Y-78064492D01*
X127475593Y-78122683D01*
X127465504Y-78134495D01*
X127400000Y-78199999D01*
X127400000Y-85098489D01*
X127398781Y-85113976D01*
X127394500Y-85141008D01*
X127394500Y-85833459D01*
X127394500Y-87166546D01*
X127394500Y-88401000D01*
X127396467Y-88426000D01*
X127397030Y-88433146D01*
X127398781Y-88444198D01*
X127400000Y-88459685D01*
X127400000Y-90558992D01*
X127381093Y-90617183D01*
X127371004Y-90628995D01*
X127100000Y-90899999D01*
X127100000Y-101301000D01*
X127081093Y-101359191D01*
X127031593Y-101395155D01*
X127001000Y-101400000D01*
X122541008Y-101400000D01*
X122482817Y-101381093D01*
X122471004Y-101371004D01*
X122028996Y-100928996D01*
X122001219Y-100874479D01*
X122000000Y-100858992D01*
X122000000Y-99700002D01*
X125100001Y-99700002D01*
X125100001Y-99733217D01*
X125109912Y-99801251D01*
X125161214Y-99906189D01*
X125243812Y-99988787D01*
X125348751Y-100040088D01*
X125416784Y-100050000D01*
X125812498Y-100050000D01*
X125812500Y-100049999D01*
X125812500Y-99700002D01*
X126112500Y-99700002D01*
X126112500Y-100049999D01*
X126112501Y-100050000D01*
X126508213Y-100050000D01*
X126508216Y-100049999D01*
X126576250Y-100040088D01*
X126681188Y-99988786D01*
X126763786Y-99906188D01*
X126815087Y-99801249D01*
X126825000Y-99733216D01*
X126825000Y-99700002D01*
X126824999Y-99700001D01*
X126112501Y-99700001D01*
X126112500Y-99700002D01*
X125812500Y-99700002D01*
X125812499Y-99700001D01*
X125100002Y-99700001D01*
X125100001Y-99700002D01*
X122000000Y-99700002D01*
X122000000Y-99366785D01*
X125100000Y-99366785D01*
X125100000Y-99400000D01*
X125100001Y-99400001D01*
X125812499Y-99400001D01*
X125812500Y-99400000D01*
X125812500Y-99050002D01*
X126112500Y-99050002D01*
X126112500Y-99400000D01*
X126112501Y-99400001D01*
X126824998Y-99400001D01*
X126824999Y-99400000D01*
X126824999Y-99366787D01*
X126824998Y-99366784D01*
X126815087Y-99298750D01*
X126763785Y-99193812D01*
X126681187Y-99111214D01*
X126576248Y-99059913D01*
X126508216Y-99050001D01*
X126112501Y-99050001D01*
X126112500Y-99050002D01*
X125812500Y-99050002D01*
X125812499Y-99050001D01*
X125416786Y-99050001D01*
X125416783Y-99050002D01*
X125348749Y-99059913D01*
X125243811Y-99111215D01*
X125161213Y-99193813D01*
X125109912Y-99298752D01*
X125100000Y-99366785D01*
X122000000Y-99366785D01*
X122000000Y-96100002D01*
X125062501Y-96100002D01*
X125062501Y-96133217D01*
X125072412Y-96201251D01*
X125123714Y-96306189D01*
X125206312Y-96388787D01*
X125311251Y-96440088D01*
X125379284Y-96450000D01*
X125774998Y-96450000D01*
X125775000Y-96449999D01*
X125775000Y-96100002D01*
X126075000Y-96100002D01*
X126075000Y-96449999D01*
X126075001Y-96450000D01*
X126470713Y-96450000D01*
X126470716Y-96449999D01*
X126538750Y-96440088D01*
X126643688Y-96388786D01*
X126726286Y-96306188D01*
X126777587Y-96201249D01*
X126787500Y-96133216D01*
X126787500Y-96100002D01*
X126787499Y-96100001D01*
X126075001Y-96100001D01*
X126075000Y-96100002D01*
X125775000Y-96100002D01*
X125774999Y-96100001D01*
X125062502Y-96100001D01*
X125062501Y-96100002D01*
X122000000Y-96100002D01*
X122000000Y-95766785D01*
X125062500Y-95766785D01*
X125062500Y-95800000D01*
X125062501Y-95800001D01*
X125774999Y-95800001D01*
X125775000Y-95800000D01*
X125775000Y-95450002D01*
X126075000Y-95450002D01*
X126075000Y-95800000D01*
X126075001Y-95800001D01*
X126787498Y-95800001D01*
X126787499Y-95800000D01*
X126787499Y-95766787D01*
X126787498Y-95766784D01*
X126777587Y-95698750D01*
X126726285Y-95593812D01*
X126643687Y-95511214D01*
X126538748Y-95459913D01*
X126470716Y-95450001D01*
X126075001Y-95450001D01*
X126075000Y-95450002D01*
X125775000Y-95450002D01*
X125774999Y-95450001D01*
X125379286Y-95450001D01*
X125379283Y-95450002D01*
X125311249Y-95459913D01*
X125206311Y-95511215D01*
X125123713Y-95593813D01*
X125072412Y-95698752D01*
X125062500Y-95766785D01*
X122000000Y-95766785D01*
X122000000Y-92450001D01*
X125100001Y-92450001D01*
X125100001Y-92483216D01*
X125109912Y-92551250D01*
X125161214Y-92656188D01*
X125243812Y-92738786D01*
X125348751Y-92790087D01*
X125416784Y-92799999D01*
X125812498Y-92799999D01*
X125812500Y-92799998D01*
X125812500Y-92450001D01*
X126112500Y-92450001D01*
X126112500Y-92799998D01*
X126112501Y-92799999D01*
X126508213Y-92799999D01*
X126508216Y-92799998D01*
X126576250Y-92790087D01*
X126681188Y-92738785D01*
X126763786Y-92656187D01*
X126815087Y-92551248D01*
X126825000Y-92483215D01*
X126825000Y-92450001D01*
X126824999Y-92450000D01*
X126112501Y-92450000D01*
X126112500Y-92450001D01*
X125812500Y-92450001D01*
X125812499Y-92450000D01*
X125100002Y-92450000D01*
X125100001Y-92450001D01*
X122000000Y-92450001D01*
X122000000Y-92116784D01*
X125100000Y-92116784D01*
X125100000Y-92149999D01*
X125100001Y-92150000D01*
X125812499Y-92150000D01*
X125812500Y-92149999D01*
X125812500Y-91800001D01*
X126112500Y-91800001D01*
X126112500Y-92149999D01*
X126112501Y-92150000D01*
X126824998Y-92150000D01*
X126824999Y-92149999D01*
X126824999Y-92116786D01*
X126824998Y-92116783D01*
X126815087Y-92048749D01*
X126763785Y-91943811D01*
X126681187Y-91861213D01*
X126576248Y-91809912D01*
X126508216Y-91800000D01*
X126112501Y-91800000D01*
X126112500Y-91800001D01*
X125812500Y-91800001D01*
X125812499Y-91800000D01*
X125416786Y-91800000D01*
X125416783Y-91800001D01*
X125348749Y-91809912D01*
X125243811Y-91861214D01*
X125161213Y-91943812D01*
X125109912Y-92048751D01*
X125100000Y-92116784D01*
X122000000Y-92116784D01*
X122000000Y-89465001D01*
X122525000Y-89465001D01*
X122525000Y-89569700D01*
X122536603Y-89628036D01*
X122580806Y-89694189D01*
X122580810Y-89694193D01*
X122646963Y-89738396D01*
X122705299Y-89749999D01*
X122705303Y-89750000D01*
X122779999Y-89750000D01*
X122780000Y-89749999D01*
X122780000Y-89465001D01*
X123080000Y-89465001D01*
X123080000Y-89749999D01*
X123080001Y-89750000D01*
X123154697Y-89750000D01*
X123154700Y-89749999D01*
X123213036Y-89738396D01*
X123279189Y-89694193D01*
X123279193Y-89694189D01*
X123323396Y-89628036D01*
X123334999Y-89569700D01*
X123335000Y-89569697D01*
X123335000Y-89522501D01*
X125345000Y-89522501D01*
X125345000Y-89684700D01*
X125356603Y-89743036D01*
X125400806Y-89809189D01*
X125400810Y-89809193D01*
X125466963Y-89853396D01*
X125525299Y-89864999D01*
X125525303Y-89865000D01*
X125649999Y-89865000D01*
X125650000Y-89864999D01*
X125650000Y-89522501D01*
X125950000Y-89522501D01*
X125950000Y-89864999D01*
X125950001Y-89865000D01*
X126074697Y-89865000D01*
X126074700Y-89864999D01*
X126133036Y-89853396D01*
X126199189Y-89809193D01*
X126199193Y-89809189D01*
X126243396Y-89743036D01*
X126254999Y-89684700D01*
X126255000Y-89684697D01*
X126255000Y-89522501D01*
X126254999Y-89522500D01*
X125950001Y-89522500D01*
X125950000Y-89522501D01*
X125650000Y-89522501D01*
X125649999Y-89522500D01*
X125345001Y-89522500D01*
X125345000Y-89522501D01*
X123335000Y-89522501D01*
X123335000Y-89465001D01*
X123334999Y-89465000D01*
X123080001Y-89465000D01*
X123080000Y-89465001D01*
X122780000Y-89465001D01*
X122779999Y-89465000D01*
X122525001Y-89465000D01*
X122525000Y-89465001D01*
X122000000Y-89465001D01*
X122000000Y-87250001D01*
X122525000Y-87250001D01*
X122525000Y-89164999D01*
X122525001Y-89165000D01*
X123341000Y-89165000D01*
X123399191Y-89183907D01*
X123435155Y-89233407D01*
X123440000Y-89264000D01*
X123440000Y-89279999D01*
X123440001Y-89280000D01*
X124569999Y-89280000D01*
X124570000Y-89279999D01*
X124570000Y-87250001D01*
X124870000Y-87250001D01*
X124870000Y-89279999D01*
X124870001Y-89280000D01*
X125239999Y-89280000D01*
X125268503Y-89251496D01*
X125284745Y-89243220D01*
X125298297Y-89231034D01*
X125311337Y-89229671D01*
X125323020Y-89223719D01*
X125338507Y-89222500D01*
X126261493Y-89222500D01*
X126319684Y-89241407D01*
X126331497Y-89251496D01*
X126360001Y-89280000D01*
X126734697Y-89280000D01*
X126734700Y-89279999D01*
X126793036Y-89268396D01*
X126859189Y-89224193D01*
X126859193Y-89224189D01*
X126903396Y-89158036D01*
X126914999Y-89099700D01*
X126915000Y-89099697D01*
X126915000Y-87250001D01*
X126914999Y-87250000D01*
X124870001Y-87250000D01*
X124870000Y-87250001D01*
X124570000Y-87250001D01*
X124569999Y-87250000D01*
X122525001Y-87250000D01*
X122525000Y-87250001D01*
X122000000Y-87250001D01*
X122000000Y-85035001D01*
X122525000Y-85035001D01*
X122525000Y-86949999D01*
X122525001Y-86950000D01*
X124569999Y-86950000D01*
X124570000Y-86949999D01*
X124570000Y-84920001D01*
X124870000Y-84920001D01*
X124870000Y-86949999D01*
X124870001Y-86950000D01*
X126914999Y-86950000D01*
X126915000Y-86949999D01*
X126915000Y-85100302D01*
X126914999Y-85100299D01*
X126903396Y-85041963D01*
X126859193Y-84975810D01*
X126859189Y-84975806D01*
X126793036Y-84931603D01*
X126734700Y-84920000D01*
X126360001Y-84920000D01*
X126331497Y-84948504D01*
X126276980Y-84976281D01*
X126261493Y-84977500D01*
X125338507Y-84977500D01*
X125280316Y-84958593D01*
X125268503Y-84948504D01*
X125239999Y-84920000D01*
X124870001Y-84920000D01*
X124870000Y-84920001D01*
X124570000Y-84920001D01*
X124569999Y-84920000D01*
X123440001Y-84920000D01*
X123440000Y-84920001D01*
X123440000Y-84936000D01*
X123421093Y-84994191D01*
X123371593Y-85030155D01*
X123341000Y-85035000D01*
X122525001Y-85035000D01*
X122525000Y-85035001D01*
X122000000Y-85035001D01*
X122000000Y-84630299D01*
X122525000Y-84630299D01*
X122525000Y-84734999D01*
X122525001Y-84735000D01*
X122779999Y-84735000D01*
X122780000Y-84734999D01*
X122780000Y-84450001D01*
X123080000Y-84450001D01*
X123080000Y-84734999D01*
X123080001Y-84735000D01*
X123334999Y-84735000D01*
X123335000Y-84734999D01*
X123335000Y-84630302D01*
X123334999Y-84630299D01*
X123323396Y-84571964D01*
X123319037Y-84565440D01*
X123319036Y-84565439D01*
X123285533Y-84515299D01*
X125345000Y-84515299D01*
X125345000Y-84677499D01*
X125345001Y-84677500D01*
X125649999Y-84677500D01*
X125650000Y-84677499D01*
X125650000Y-84335001D01*
X125950000Y-84335001D01*
X125950000Y-84677499D01*
X125950001Y-84677500D01*
X126254999Y-84677500D01*
X126255000Y-84677499D01*
X126255000Y-84515302D01*
X126254999Y-84515299D01*
X126243396Y-84456963D01*
X126199193Y-84390810D01*
X126199189Y-84390806D01*
X126133036Y-84346603D01*
X126074700Y-84335000D01*
X125950001Y-84335000D01*
X125950000Y-84335001D01*
X125650000Y-84335001D01*
X125649999Y-84335000D01*
X125525299Y-84335000D01*
X125466963Y-84346603D01*
X125400810Y-84390806D01*
X125400806Y-84390810D01*
X125356603Y-84456963D01*
X125345000Y-84515299D01*
X123285533Y-84515299D01*
X123279193Y-84505810D01*
X123279189Y-84505806D01*
X123213036Y-84461603D01*
X123154700Y-84450000D01*
X123080001Y-84450000D01*
X123080000Y-84450001D01*
X122780000Y-84450001D01*
X122779999Y-84450000D01*
X122705299Y-84450000D01*
X122646963Y-84461603D01*
X122580810Y-84505806D01*
X122580806Y-84505810D01*
X122536603Y-84571963D01*
X122525000Y-84630299D01*
X122000000Y-84630299D01*
X122000000Y-82465001D01*
X122625000Y-82465001D01*
X122625000Y-82569700D01*
X122636603Y-82628036D01*
X122680806Y-82694189D01*
X122680810Y-82694193D01*
X122746963Y-82738396D01*
X122805299Y-82749999D01*
X122805303Y-82750000D01*
X122879999Y-82750000D01*
X122880000Y-82749999D01*
X122880000Y-82465001D01*
X123180000Y-82465001D01*
X123180000Y-82749999D01*
X123180001Y-82750000D01*
X123254697Y-82750000D01*
X123254700Y-82749999D01*
X123313036Y-82738396D01*
X123379189Y-82694193D01*
X123379193Y-82694189D01*
X123423396Y-82628036D01*
X123434999Y-82569700D01*
X123435000Y-82569697D01*
X123435000Y-82522501D01*
X125445000Y-82522501D01*
X125445000Y-82684700D01*
X125456603Y-82743036D01*
X125500806Y-82809189D01*
X125500810Y-82809193D01*
X125566963Y-82853396D01*
X125625299Y-82864999D01*
X125625303Y-82865000D01*
X125749999Y-82865000D01*
X125750000Y-82864999D01*
X125750000Y-82522501D01*
X126050000Y-82522501D01*
X126050000Y-82864999D01*
X126050001Y-82865000D01*
X126174697Y-82865000D01*
X126174700Y-82864999D01*
X126233036Y-82853396D01*
X126299189Y-82809193D01*
X126299193Y-82809189D01*
X126343396Y-82743036D01*
X126354999Y-82684700D01*
X126355000Y-82684697D01*
X126355000Y-82522501D01*
X126354999Y-82522500D01*
X126050001Y-82522500D01*
X126050000Y-82522501D01*
X125750000Y-82522501D01*
X125749999Y-82522500D01*
X125445001Y-82522500D01*
X125445000Y-82522501D01*
X123435000Y-82522501D01*
X123435000Y-82465001D01*
X123434999Y-82465000D01*
X123180001Y-82465000D01*
X123180000Y-82465001D01*
X122880000Y-82465001D01*
X122879999Y-82465000D01*
X122625001Y-82465000D01*
X122625000Y-82465001D01*
X122000000Y-82465001D01*
X122000000Y-80250001D01*
X122625000Y-80250001D01*
X122625000Y-82164999D01*
X122625001Y-82165000D01*
X123441000Y-82165000D01*
X123499191Y-82183907D01*
X123535155Y-82233407D01*
X123540000Y-82264000D01*
X123540000Y-82279999D01*
X123540001Y-82280000D01*
X124669999Y-82280000D01*
X124670000Y-82279999D01*
X124670000Y-80250001D01*
X124970000Y-80250001D01*
X124970000Y-82279999D01*
X124970001Y-82280000D01*
X125339999Y-82280000D01*
X125368503Y-82251496D01*
X125384745Y-82243220D01*
X125398297Y-82231034D01*
X125411337Y-82229671D01*
X125423020Y-82223719D01*
X125438507Y-82222500D01*
X126361493Y-82222500D01*
X126419684Y-82241407D01*
X126431497Y-82251496D01*
X126460001Y-82280000D01*
X126834697Y-82280000D01*
X126834700Y-82279999D01*
X126893036Y-82268396D01*
X126959189Y-82224193D01*
X126959193Y-82224189D01*
X127003396Y-82158036D01*
X127014999Y-82099700D01*
X127015000Y-82099697D01*
X127015000Y-80250001D01*
X127014999Y-80250000D01*
X124970001Y-80250000D01*
X124970000Y-80250001D01*
X124670000Y-80250001D01*
X124669999Y-80250000D01*
X122625001Y-80250000D01*
X122625000Y-80250001D01*
X122000000Y-80250001D01*
X122000000Y-78035001D01*
X122625000Y-78035001D01*
X122625000Y-79949999D01*
X122625001Y-79950000D01*
X124669999Y-79950000D01*
X124670000Y-79949999D01*
X124670000Y-77920001D01*
X124970000Y-77920001D01*
X124970000Y-79949999D01*
X124970001Y-79950000D01*
X127014999Y-79950000D01*
X127015000Y-79949999D01*
X127015000Y-78100302D01*
X127014999Y-78100299D01*
X127003396Y-78041963D01*
X126959193Y-77975810D01*
X126959189Y-77975806D01*
X126893036Y-77931603D01*
X126834700Y-77920000D01*
X126460001Y-77920000D01*
X126431497Y-77948504D01*
X126376980Y-77976281D01*
X126361493Y-77977500D01*
X125438507Y-77977500D01*
X125380316Y-77958593D01*
X125368503Y-77948504D01*
X125339999Y-77920000D01*
X124970001Y-77920000D01*
X124970000Y-77920001D01*
X124670000Y-77920001D01*
X124669999Y-77920000D01*
X123540001Y-77920000D01*
X123540000Y-77920001D01*
X123540000Y-77936000D01*
X123521093Y-77994191D01*
X123471593Y-78030155D01*
X123441000Y-78035000D01*
X122625001Y-78035000D01*
X122625000Y-78035001D01*
X122000000Y-78035001D01*
X122000000Y-77878110D01*
X122018907Y-77819919D01*
X122028990Y-77808112D01*
X122206804Y-77630299D01*
X122625000Y-77630299D01*
X122625000Y-77734999D01*
X122625001Y-77735000D01*
X122879999Y-77735000D01*
X122880000Y-77734999D01*
X122880000Y-77450001D01*
X123180000Y-77450001D01*
X123180000Y-77734999D01*
X123180001Y-77735000D01*
X123434999Y-77735000D01*
X123435000Y-77734999D01*
X123435000Y-77630302D01*
X123434999Y-77630299D01*
X123423396Y-77571964D01*
X123419037Y-77565440D01*
X123419036Y-77565439D01*
X123385533Y-77515299D01*
X125445000Y-77515299D01*
X125445000Y-77677499D01*
X125445001Y-77677500D01*
X125749999Y-77677500D01*
X125750000Y-77677499D01*
X125750000Y-77335001D01*
X126050000Y-77335001D01*
X126050000Y-77677499D01*
X126050001Y-77677500D01*
X126354999Y-77677500D01*
X126355000Y-77677499D01*
X126355000Y-77515302D01*
X126354999Y-77515299D01*
X126343396Y-77456963D01*
X126299193Y-77390810D01*
X126299189Y-77390806D01*
X126233036Y-77346603D01*
X126174700Y-77335000D01*
X126050001Y-77335000D01*
X126050000Y-77335001D01*
X125750000Y-77335001D01*
X125749999Y-77335000D01*
X125625299Y-77335000D01*
X125566963Y-77346603D01*
X125500810Y-77390806D01*
X125500806Y-77390810D01*
X125456603Y-77456963D01*
X125445000Y-77515299D01*
X123385533Y-77515299D01*
X123379193Y-77505810D01*
X123379189Y-77505806D01*
X123313036Y-77461603D01*
X123254700Y-77450000D01*
X123180001Y-77450000D01*
X123180000Y-77450001D01*
X122880000Y-77450001D01*
X122879999Y-77450000D01*
X122805299Y-77450000D01*
X122746963Y-77461603D01*
X122680810Y-77505806D01*
X122680806Y-77505810D01*
X122636603Y-77571963D01*
X122625000Y-77630299D01*
X122206804Y-77630299D01*
X122360489Y-77476614D01*
X122410030Y-77390806D01*
X122419767Y-77373942D01*
X122419776Y-77373924D01*
X122419798Y-77373887D01*
X122419799Y-77373886D01*
X122450500Y-77259309D01*
X122450500Y-75266240D01*
X122469407Y-75208049D01*
X122518907Y-75172085D01*
X122580093Y-75172085D01*
X122629593Y-75208049D01*
X122642942Y-75233539D01*
X122665537Y-75298110D01*
X122667208Y-75302885D01*
X122747845Y-75412144D01*
X122747847Y-75412146D01*
X122747850Y-75412150D01*
X122747853Y-75412152D01*
X122747855Y-75412154D01*
X122857116Y-75492792D01*
X122857117Y-75492792D01*
X122857118Y-75492793D01*
X122985301Y-75537646D01*
X123015725Y-75540499D01*
X123015727Y-75540500D01*
X123015734Y-75540500D01*
X123824273Y-75540500D01*
X123824273Y-75540499D01*
X123854699Y-75537646D01*
X123982882Y-75492793D01*
X124092150Y-75412150D01*
X124172793Y-75302882D01*
X124217646Y-75174699D01*
X124220499Y-75144273D01*
X124220500Y-75144273D01*
X124220500Y-74390001D01*
X127180001Y-74390001D01*
X127180001Y-75144203D01*
X127182850Y-75174600D01*
X127182850Y-75174602D01*
X127227654Y-75302647D01*
X127308207Y-75411790D01*
X127308209Y-75411792D01*
X127417352Y-75492345D01*
X127545398Y-75537149D01*
X127575789Y-75539999D01*
X127829998Y-75539999D01*
X127830000Y-75539998D01*
X127830000Y-74390001D01*
X128130000Y-74390001D01*
X128130000Y-75539998D01*
X128130001Y-75539999D01*
X128384203Y-75539999D01*
X128414600Y-75537149D01*
X128414602Y-75537149D01*
X128542647Y-75492345D01*
X128651790Y-75411792D01*
X128651792Y-75411790D01*
X128732345Y-75302647D01*
X128777149Y-75174601D01*
X128779999Y-75144211D01*
X128780000Y-75144210D01*
X128780000Y-74390001D01*
X128779999Y-74390000D01*
X128130001Y-74390000D01*
X128130000Y-74390001D01*
X127830000Y-74390001D01*
X127829999Y-74390000D01*
X127180002Y-74390000D01*
X127180001Y-74390001D01*
X124220500Y-74390001D01*
X124220500Y-73335788D01*
X127180000Y-73335788D01*
X127180000Y-74089999D01*
X127180001Y-74090000D01*
X127829999Y-74090000D01*
X127830000Y-74089999D01*
X127830000Y-72940001D01*
X128130000Y-72940001D01*
X128130000Y-74089999D01*
X128130001Y-74090000D01*
X128779998Y-74090000D01*
X128779999Y-74089999D01*
X128779999Y-73335796D01*
X128777149Y-73305399D01*
X128777149Y-73305397D01*
X128732345Y-73177352D01*
X128651792Y-73068209D01*
X128651790Y-73068207D01*
X128542647Y-72987654D01*
X128414601Y-72942850D01*
X128384211Y-72940000D01*
X128130001Y-72940000D01*
X128130000Y-72940001D01*
X127830000Y-72940001D01*
X127829999Y-72940000D01*
X127575796Y-72940000D01*
X127545399Y-72942850D01*
X127545397Y-72942850D01*
X127417352Y-72987654D01*
X127308209Y-73068207D01*
X127308207Y-73068209D01*
X127227654Y-73177352D01*
X127182850Y-73305398D01*
X127180000Y-73335788D01*
X124220500Y-73335788D01*
X124220500Y-73335727D01*
X124220499Y-73335725D01*
X124217646Y-73305305D01*
X124217646Y-73305301D01*
X124172793Y-73177118D01*
X124092413Y-73068207D01*
X124092154Y-73067855D01*
X124092152Y-73067853D01*
X124092150Y-73067850D01*
X124092146Y-73067847D01*
X124092144Y-73067845D01*
X123982883Y-72987207D01*
X123854703Y-72942355D01*
X123854694Y-72942353D01*
X123824274Y-72939500D01*
X123824266Y-72939500D01*
X123015734Y-72939500D01*
X123015725Y-72939500D01*
X122985305Y-72942353D01*
X122985296Y-72942355D01*
X122857116Y-72987207D01*
X122747855Y-73067845D01*
X122747845Y-73067855D01*
X122667207Y-73177116D01*
X122622355Y-73305296D01*
X122622353Y-73305305D01*
X122619500Y-73335725D01*
X122619500Y-73690500D01*
X122600593Y-73748691D01*
X122551093Y-73784655D01*
X122520500Y-73789500D01*
X122500691Y-73789500D01*
X122386114Y-73820201D01*
X122283383Y-73879512D01*
X122169003Y-73993892D01*
X122114487Y-74021669D01*
X122054055Y-74012097D01*
X122010790Y-73968833D01*
X122000000Y-73923888D01*
X122000000Y-72641008D01*
X122018907Y-72582817D01*
X122028996Y-72571004D01*
X122171004Y-72428996D01*
X122225521Y-72401219D01*
X122241008Y-72400000D01*
X129058992Y-72400000D01*
X129117183Y-72418907D01*
G37*
%TD.AperFunction*%
%TD*%
%TA.AperFunction,Conductor*%
%TO.N,+5V*%
G36*
X84600000Y-67700000D02*
G01*
X84700000Y-67800000D01*
X84900000Y-67800000D01*
X84900000Y-68900000D01*
X84390620Y-68900000D01*
X84274305Y-68783685D01*
X84262461Y-68772736D01*
X84262447Y-68772723D01*
X84250652Y-68762649D01*
X84250645Y-68762644D01*
X84180685Y-68723464D01*
X84122491Y-68704556D01*
X84122492Y-68704556D01*
X84058995Y-68694500D01*
X84058992Y-68694500D01*
X78093208Y-68694500D01*
X78035017Y-68675593D01*
X77999053Y-68626093D01*
X77999053Y-68564907D01*
X78035017Y-68515407D01*
X78038207Y-68513184D01*
X78154333Y-68435591D01*
X78156750Y-68433173D01*
X77761366Y-68037789D01*
X77792007Y-68020099D01*
X77885099Y-67927007D01*
X77902789Y-67896366D01*
X78298173Y-68291750D01*
X78300591Y-68289333D01*
X78415495Y-68117366D01*
X78415498Y-68117360D01*
X78494650Y-67926272D01*
X78534999Y-67723418D01*
X78535000Y-67723413D01*
X78535000Y-67516586D01*
X78534999Y-67516581D01*
X78494650Y-67313727D01*
X78415498Y-67122639D01*
X78415491Y-67122625D01*
X78300594Y-66950670D01*
X78298173Y-66948249D01*
X77902788Y-67343632D01*
X77885099Y-67312993D01*
X77792007Y-67219901D01*
X77761365Y-67202210D01*
X78156750Y-66806826D01*
X78154329Y-66804405D01*
X77982374Y-66689508D01*
X77982360Y-66689501D01*
X77791272Y-66610349D01*
X77588418Y-66570000D01*
X77381581Y-66570000D01*
X77178727Y-66610349D01*
X76987639Y-66689501D01*
X76987630Y-66689505D01*
X76815665Y-66804410D01*
X76813248Y-66806825D01*
X77208633Y-67202210D01*
X77177993Y-67219901D01*
X77084901Y-67312993D01*
X77067210Y-67343633D01*
X76671825Y-66948248D01*
X76669410Y-66950665D01*
X76554505Y-67122630D01*
X76554501Y-67122639D01*
X76475349Y-67313727D01*
X76435000Y-67516581D01*
X76435000Y-67723418D01*
X76475349Y-67926272D01*
X76554501Y-68117360D01*
X76554508Y-68117374D01*
X76669405Y-68289329D01*
X76671826Y-68291750D01*
X77067210Y-67896365D01*
X77084901Y-67927007D01*
X77177993Y-68020099D01*
X77208632Y-68037788D01*
X76813249Y-68433173D01*
X76815667Y-68435591D01*
X76931793Y-68513184D01*
X76969673Y-68561234D01*
X76972075Y-68622373D01*
X76938082Y-68673246D01*
X76880679Y-68694424D01*
X76876792Y-68694500D01*
X76299000Y-68694500D01*
X76240809Y-68675593D01*
X76204845Y-68626093D01*
X76200000Y-68595500D01*
X76200000Y-66199000D01*
X76218907Y-66140809D01*
X76268407Y-66104845D01*
X76299000Y-66100000D01*
X84599999Y-66100000D01*
X84600000Y-66100000D01*
X84600000Y-67700000D01*
G37*
%TD.AperFunction*%
%TD*%
%TA.AperFunction,Conductor*%
%TO.N,Net-(Q4-S-Pad2)*%
G36*
X132853691Y-84318907D02*
G01*
X132889655Y-84368407D01*
X132894500Y-84399000D01*
X132894500Y-88401000D01*
X132875593Y-88459191D01*
X132826093Y-88495155D01*
X132795500Y-88500000D01*
X130562386Y-88500000D01*
X130536764Y-88496627D01*
X130454184Y-88474500D01*
X130315818Y-88474500D01*
X130233237Y-88496627D01*
X130207616Y-88500000D01*
X127699000Y-88500000D01*
X127640809Y-88481093D01*
X127604845Y-88431593D01*
X127600000Y-88401000D01*
X127600000Y-87835001D01*
X127955001Y-87835001D01*
X127955001Y-87882665D01*
X127957933Y-87907956D01*
X128003615Y-88011414D01*
X128083585Y-88091384D01*
X128187045Y-88137066D01*
X128212330Y-88139999D01*
X128414998Y-88139999D01*
X128415000Y-88139998D01*
X128415000Y-87835001D01*
X128615000Y-87835001D01*
X128615000Y-88139998D01*
X128615001Y-88139999D01*
X128817663Y-88139999D01*
X128817665Y-88139998D01*
X128842956Y-88137066D01*
X128946414Y-88091384D01*
X129026384Y-88011414D01*
X129072066Y-87907954D01*
X129074999Y-87882671D01*
X129075000Y-87882669D01*
X129075000Y-87835001D01*
X129074999Y-87835000D01*
X128615001Y-87835000D01*
X128615000Y-87835001D01*
X128415000Y-87835001D01*
X128414999Y-87835000D01*
X127955002Y-87835000D01*
X127955001Y-87835001D01*
X127600000Y-87835001D01*
X127600000Y-87587328D01*
X127955000Y-87587328D01*
X127955000Y-87634999D01*
X127955001Y-87635000D01*
X128414999Y-87635000D01*
X128415000Y-87634999D01*
X128415000Y-87330001D01*
X128615000Y-87330001D01*
X128615000Y-87634999D01*
X128615001Y-87635000D01*
X129074998Y-87635000D01*
X129074999Y-87634999D01*
X129074999Y-87587337D01*
X129074998Y-87587334D01*
X129072066Y-87562043D01*
X129026384Y-87458585D01*
X128946414Y-87378615D01*
X128842954Y-87332933D01*
X128817671Y-87330000D01*
X128615001Y-87330000D01*
X128615000Y-87330001D01*
X128415000Y-87330001D01*
X128414999Y-87330000D01*
X128212338Y-87330000D01*
X128212333Y-87330001D01*
X128187043Y-87332933D01*
X128083585Y-87378615D01*
X128003615Y-87458585D01*
X127957933Y-87562045D01*
X127955000Y-87587328D01*
X127600000Y-87587328D01*
X127600000Y-86565001D01*
X127955001Y-86565001D01*
X127955001Y-86612665D01*
X127957933Y-86637956D01*
X128003615Y-86741414D01*
X128083585Y-86821384D01*
X128187045Y-86867066D01*
X128212330Y-86869999D01*
X128414998Y-86869999D01*
X128415000Y-86869998D01*
X128415000Y-86565001D01*
X128615000Y-86565001D01*
X128615000Y-86869998D01*
X128615001Y-86869999D01*
X128817663Y-86869999D01*
X128817665Y-86869998D01*
X128842956Y-86867066D01*
X128946414Y-86821384D01*
X129026384Y-86741414D01*
X129072066Y-86637954D01*
X129074999Y-86612671D01*
X129075000Y-86612669D01*
X129075000Y-86600001D01*
X131075001Y-86600001D01*
X131075001Y-87179203D01*
X131077850Y-87209600D01*
X131077850Y-87209602D01*
X131122654Y-87337647D01*
X131203207Y-87446790D01*
X131203209Y-87446792D01*
X131312352Y-87527345D01*
X131440398Y-87572149D01*
X131470789Y-87574999D01*
X131737498Y-87574999D01*
X131737500Y-87574998D01*
X131737500Y-86600001D01*
X131937500Y-86600001D01*
X131937500Y-87574998D01*
X131937501Y-87574999D01*
X132204203Y-87574999D01*
X132234600Y-87572149D01*
X132234602Y-87572149D01*
X132362647Y-87527345D01*
X132471790Y-87446792D01*
X132471792Y-87446790D01*
X132552345Y-87337647D01*
X132597149Y-87209601D01*
X132599999Y-87179211D01*
X132600000Y-87179210D01*
X132600000Y-86600001D01*
X132599999Y-86600000D01*
X131937501Y-86600000D01*
X131937500Y-86600001D01*
X131737500Y-86600001D01*
X131737499Y-86600000D01*
X131075002Y-86600000D01*
X131075001Y-86600001D01*
X129075000Y-86600001D01*
X129075000Y-86565001D01*
X129074999Y-86565000D01*
X128615001Y-86565000D01*
X128615000Y-86565001D01*
X128415000Y-86565001D01*
X128414999Y-86565000D01*
X127955002Y-86565000D01*
X127955001Y-86565001D01*
X127600000Y-86565001D01*
X127600000Y-86317328D01*
X127955000Y-86317328D01*
X127955000Y-86364999D01*
X127955001Y-86365000D01*
X128414999Y-86365000D01*
X128415000Y-86364999D01*
X128415000Y-86060001D01*
X128615000Y-86060001D01*
X128615000Y-86364999D01*
X128615001Y-86365000D01*
X129074998Y-86365000D01*
X129074999Y-86364999D01*
X129074999Y-86317337D01*
X129074998Y-86317334D01*
X129072066Y-86292043D01*
X129026384Y-86188585D01*
X128946414Y-86108615D01*
X128842954Y-86062933D01*
X128817671Y-86060000D01*
X128615001Y-86060000D01*
X128615000Y-86060001D01*
X128415000Y-86060001D01*
X128414999Y-86060000D01*
X128212338Y-86060000D01*
X128212333Y-86060001D01*
X128187043Y-86062933D01*
X128083585Y-86108615D01*
X128003615Y-86188585D01*
X127957933Y-86292045D01*
X127955000Y-86317328D01*
X127600000Y-86317328D01*
X127600000Y-85820788D01*
X131075000Y-85820788D01*
X131075000Y-86399999D01*
X131075001Y-86400000D01*
X131737499Y-86400000D01*
X131737500Y-86399999D01*
X131737500Y-85425001D01*
X131937500Y-85425001D01*
X131937500Y-86399999D01*
X131937501Y-86400000D01*
X132599998Y-86400000D01*
X132599999Y-86399999D01*
X132599999Y-85820796D01*
X132597149Y-85790399D01*
X132597149Y-85790397D01*
X132552345Y-85662352D01*
X132471792Y-85553209D01*
X132471790Y-85553207D01*
X132362647Y-85472654D01*
X132234601Y-85427850D01*
X132204211Y-85425000D01*
X131937501Y-85425000D01*
X131937500Y-85425001D01*
X131737500Y-85425001D01*
X131737499Y-85425000D01*
X131470796Y-85425000D01*
X131440399Y-85427850D01*
X131440397Y-85427850D01*
X131312352Y-85472654D01*
X131203209Y-85553207D01*
X131203207Y-85553209D01*
X131122654Y-85662352D01*
X131077850Y-85790398D01*
X131075000Y-85820788D01*
X127600000Y-85820788D01*
X127600000Y-85295001D01*
X127955001Y-85295001D01*
X127955001Y-85342665D01*
X127957933Y-85367956D01*
X128003615Y-85471414D01*
X128083585Y-85551384D01*
X128187045Y-85597066D01*
X128212330Y-85599999D01*
X128414998Y-85599999D01*
X128415000Y-85599998D01*
X128415000Y-85295001D01*
X128615000Y-85295001D01*
X128615000Y-85599998D01*
X128615001Y-85599999D01*
X128817663Y-85599999D01*
X128817665Y-85599998D01*
X128842956Y-85597066D01*
X128946414Y-85551384D01*
X129026384Y-85471414D01*
X129072066Y-85367954D01*
X129074999Y-85342671D01*
X129075000Y-85342669D01*
X129075000Y-85295001D01*
X129074999Y-85295000D01*
X128615001Y-85295000D01*
X128615000Y-85295001D01*
X128415000Y-85295001D01*
X128414999Y-85295000D01*
X127955002Y-85295000D01*
X127955001Y-85295001D01*
X127600000Y-85295001D01*
X127600000Y-85141008D01*
X127618907Y-85082817D01*
X127628996Y-85071005D01*
X127804811Y-84895189D01*
X127859328Y-84867411D01*
X127919760Y-84876982D01*
X127963025Y-84920247D01*
X127972596Y-84980679D01*
X127965380Y-85005178D01*
X127957935Y-85022039D01*
X127957933Y-85022045D01*
X127955000Y-85047328D01*
X127955000Y-85094999D01*
X127955001Y-85095000D01*
X128414999Y-85095000D01*
X128415000Y-85094999D01*
X128415000Y-84790001D01*
X128615000Y-84790001D01*
X128615000Y-85094999D01*
X128615001Y-85095000D01*
X129074998Y-85095000D01*
X129074999Y-85094999D01*
X129074999Y-85047337D01*
X129074998Y-85047334D01*
X129072066Y-85022043D01*
X129026384Y-84918585D01*
X128946414Y-84838615D01*
X128842954Y-84792933D01*
X128817671Y-84790000D01*
X128615001Y-84790000D01*
X128615000Y-84790001D01*
X128415000Y-84790001D01*
X128414999Y-84790000D01*
X128212338Y-84790000D01*
X128212333Y-84790001D01*
X128187042Y-84792934D01*
X128187038Y-84792935D01*
X128170179Y-84800379D01*
X128109310Y-84806586D01*
X128056417Y-84775830D01*
X128031704Y-84719857D01*
X128044610Y-84660049D01*
X128060190Y-84639810D01*
X128371005Y-84328996D01*
X128425521Y-84301219D01*
X128441008Y-84300000D01*
X132795500Y-84300000D01*
X132853691Y-84318907D01*
G37*
%TD.AperFunction*%
%TD*%
%TA.AperFunction,Conductor*%
%TO.N,/sink/SINK_IN*%
G36*
X148002992Y-54500681D02*
G01*
X148295309Y-54518362D01*
X148307164Y-54519802D01*
X148592281Y-54572051D01*
X148603883Y-54574911D01*
X148880623Y-54661147D01*
X148891786Y-54665380D01*
X149156119Y-54784347D01*
X149166704Y-54789903D01*
X149414758Y-54939856D01*
X149424583Y-54946638D01*
X149619697Y-55099500D01*
X149652755Y-55125399D01*
X149661704Y-55133326D01*
X149866673Y-55338295D01*
X149874600Y-55347244D01*
X149995481Y-55501538D01*
X150053356Y-55575409D01*
X150060147Y-55585248D01*
X150210096Y-55833295D01*
X150215652Y-55843880D01*
X150334616Y-56108206D01*
X150338855Y-56119384D01*
X150425087Y-56396113D01*
X150427948Y-56407721D01*
X150480196Y-56692828D01*
X150481637Y-56704695D01*
X150499319Y-56997006D01*
X150499500Y-57002984D01*
X150499500Y-76695500D01*
X150480593Y-76753691D01*
X150431093Y-76789655D01*
X150400500Y-76794500D01*
X133241008Y-76794500D01*
X133230258Y-76794922D01*
X133224876Y-76795134D01*
X133211331Y-76796200D01*
X133209396Y-76796353D01*
X133209393Y-76796353D01*
X133209392Y-76796354D01*
X133132230Y-76818115D01*
X133132224Y-76818117D01*
X133077708Y-76845894D01*
X133025699Y-76883681D01*
X132983666Y-76925714D01*
X132972739Y-76937534D01*
X132962645Y-76949353D01*
X132962636Y-76949366D01*
X132962634Y-76949371D01*
X132962632Y-76949372D01*
X132959860Y-76953350D01*
X132958987Y-76952741D01*
X132946980Y-76963841D01*
X132934447Y-76981093D01*
X132924999Y-76984162D01*
X132917706Y-76990905D01*
X132876256Y-77000000D01*
X132838018Y-77000000D01*
X132822531Y-76998781D01*
X132795502Y-76994500D01*
X132795500Y-76994500D01*
X130435508Y-76994500D01*
X130377317Y-76975593D01*
X130365504Y-76965504D01*
X129695118Y-76295118D01*
X129667341Y-76240601D01*
X129676024Y-76185770D01*
X129674587Y-76185142D01*
X129676534Y-76180688D01*
X129676536Y-76180685D01*
X129695443Y-76122494D01*
X129699465Y-76097093D01*
X129705500Y-76058995D01*
X129705500Y-72841021D01*
X129705500Y-72841008D01*
X129704866Y-72824883D01*
X129703647Y-72809396D01*
X129681884Y-72732228D01*
X129654107Y-72677711D01*
X129654105Y-72677708D01*
X129616318Y-72625699D01*
X129616316Y-72625697D01*
X129616314Y-72625694D01*
X129274306Y-72283686D01*
X129274292Y-72283673D01*
X129274285Y-72283666D01*
X129262465Y-72272739D01*
X129262456Y-72272731D01*
X129250643Y-72262642D01*
X129180685Y-72223464D01*
X129122494Y-72204557D01*
X129122491Y-72204556D01*
X129122492Y-72204556D01*
X129058995Y-72194500D01*
X129058992Y-72194500D01*
X122241008Y-72194500D01*
X122230258Y-72194922D01*
X122224876Y-72195134D01*
X122211331Y-72196200D01*
X122209396Y-72196353D01*
X122209393Y-72196353D01*
X122209392Y-72196354D01*
X122132230Y-72218115D01*
X122132224Y-72218117D01*
X122077708Y-72245894D01*
X122025699Y-72283681D01*
X121883666Y-72425714D01*
X121872739Y-72437534D01*
X121862645Y-72449353D01*
X121862639Y-72449362D01*
X121823464Y-72519314D01*
X121804556Y-72577507D01*
X121794500Y-72641004D01*
X121794500Y-73923890D01*
X121799314Y-73964560D01*
X121800000Y-73976197D01*
X121800000Y-74321889D01*
X121781093Y-74380080D01*
X121771004Y-74391892D01*
X121639511Y-74523385D01*
X121639507Y-74523390D01*
X121580200Y-74626112D01*
X121580200Y-74626113D01*
X121580201Y-74626114D01*
X121549500Y-74740692D01*
X121549500Y-76509492D01*
X121547031Y-76517089D01*
X121548281Y-76524979D01*
X121537756Y-76545634D01*
X121530593Y-76567683D01*
X121520504Y-76579496D01*
X121428996Y-76671004D01*
X121374479Y-76698781D01*
X121358992Y-76700000D01*
X113099487Y-76700000D01*
X113041296Y-76681093D01*
X113005332Y-76631593D01*
X113000488Y-76600515D01*
X113018667Y-72891841D01*
X113040490Y-68440001D01*
X122600000Y-68440001D01*
X122600000Y-70944214D01*
X122602850Y-70974603D01*
X122602852Y-70974612D01*
X122647654Y-71102649D01*
X122728202Y-71211788D01*
X122728211Y-71211797D01*
X122837350Y-71292345D01*
X122965387Y-71337147D01*
X122965396Y-71337149D01*
X122995785Y-71339999D01*
X122995787Y-71340000D01*
X125199999Y-71340000D01*
X125200000Y-71339999D01*
X125200000Y-68440001D01*
X126200000Y-68440001D01*
X126200000Y-71339999D01*
X126200001Y-71340000D01*
X128404213Y-71340000D01*
X128404214Y-71339999D01*
X128434603Y-71337149D01*
X128434612Y-71337147D01*
X128562649Y-71292345D01*
X128671788Y-71211797D01*
X128671797Y-71211788D01*
X128752345Y-71102649D01*
X128797147Y-70974612D01*
X128797149Y-70974603D01*
X128799999Y-70944214D01*
X128800000Y-70944213D01*
X128800000Y-70672954D01*
X139800000Y-70672954D01*
X139800000Y-71127045D01*
X139839574Y-71579376D01*
X139839574Y-71579381D01*
X139918422Y-72026551D01*
X139918423Y-72026554D01*
X140035943Y-72465148D01*
X140191247Y-72891841D01*
X140383152Y-73303386D01*
X140610179Y-73696609D01*
X140610193Y-73696631D01*
X140870625Y-74068566D01*
X140870627Y-74068568D01*
X140986376Y-74206514D01*
X142551537Y-72641352D01*
X142759549Y-72902190D01*
X142997810Y-73140451D01*
X143258645Y-73348460D01*
X141693484Y-74913622D01*
X141831431Y-75029372D01*
X141831433Y-75029374D01*
X142203368Y-75289806D01*
X142203390Y-75289820D01*
X142596613Y-75516847D01*
X143008158Y-75708752D01*
X143434851Y-75864056D01*
X143434850Y-75864056D01*
X143873445Y-75981576D01*
X143873448Y-75981577D01*
X144320620Y-76060425D01*
X144772955Y-76100000D01*
X145227045Y-76100000D01*
X145679376Y-76060425D01*
X145679381Y-76060425D01*
X146126551Y-75981577D01*
X146126554Y-75981576D01*
X146565148Y-75864056D01*
X146991841Y-75708752D01*
X147403386Y-75516847D01*
X147796609Y-75289820D01*
X147796631Y-75289806D01*
X148168566Y-75029374D01*
X148168582Y-75029362D01*
X148306514Y-74913622D01*
X146741353Y-73348461D01*
X147002190Y-73140451D01*
X147240451Y-72902190D01*
X147448461Y-72641353D01*
X149013622Y-74206514D01*
X149129362Y-74068582D01*
X149129374Y-74068566D01*
X149389806Y-73696631D01*
X149389820Y-73696609D01*
X149616847Y-73303386D01*
X149808752Y-72891841D01*
X149964056Y-72465148D01*
X150081576Y-72026554D01*
X150081577Y-72026551D01*
X150160425Y-71579381D01*
X150160425Y-71579376D01*
X150200000Y-71127045D01*
X150200000Y-70672954D01*
X150160425Y-70220623D01*
X150160425Y-70220618D01*
X150081577Y-69773448D01*
X150081576Y-69773445D01*
X149964056Y-69334851D01*
X149808752Y-68908158D01*
X149616847Y-68496613D01*
X149389820Y-68103390D01*
X149389806Y-68103368D01*
X149129374Y-67731433D01*
X149129372Y-67731431D01*
X149013622Y-67593484D01*
X147448460Y-69158645D01*
X147240451Y-68897810D01*
X147002190Y-68659549D01*
X146741352Y-68451537D01*
X148306514Y-66886376D01*
X148168568Y-66770627D01*
X148168566Y-66770625D01*
X147796631Y-66510193D01*
X147796609Y-66510179D01*
X147403386Y-66283152D01*
X146991841Y-66091247D01*
X146565148Y-65935943D01*
X146565149Y-65935943D01*
X146126554Y-65818423D01*
X146126551Y-65818422D01*
X145679379Y-65739574D01*
X145227045Y-65700000D01*
X144772955Y-65700000D01*
X144320623Y-65739574D01*
X144320618Y-65739574D01*
X143873448Y-65818422D01*
X143873445Y-65818423D01*
X143434851Y-65935943D01*
X143008158Y-66091247D01*
X142596613Y-66283152D01*
X142203390Y-66510179D01*
X142203368Y-66510193D01*
X141831433Y-66770625D01*
X141831431Y-66770627D01*
X141693484Y-66886376D01*
X143258646Y-68451538D01*
X142997810Y-68659549D01*
X142759549Y-68897810D01*
X142551538Y-69158646D01*
X140986376Y-67593484D01*
X140870627Y-67731431D01*
X140870625Y-67731433D01*
X140610193Y-68103368D01*
X140610179Y-68103390D01*
X140383152Y-68496613D01*
X140191247Y-68908158D01*
X140035943Y-69334851D01*
X139918423Y-69773445D01*
X139918422Y-69773448D01*
X139839574Y-70220618D01*
X139839574Y-70220623D01*
X139800000Y-70672954D01*
X128800000Y-70672954D01*
X128800000Y-68440001D01*
X128799999Y-68440000D01*
X126200001Y-68440000D01*
X126200000Y-68440001D01*
X125200000Y-68440001D01*
X125199999Y-68440000D01*
X122600001Y-68440000D01*
X122600000Y-68440001D01*
X113040490Y-68440001D01*
X113057668Y-64935785D01*
X122600000Y-64935785D01*
X122600000Y-67439999D01*
X122600001Y-67440000D01*
X125199999Y-67440000D01*
X125200000Y-67439999D01*
X125200000Y-64540001D01*
X126200000Y-64540001D01*
X126200000Y-67439999D01*
X126200001Y-67440000D01*
X128799999Y-67440000D01*
X128800000Y-67439999D01*
X128800000Y-64935787D01*
X128799999Y-64935785D01*
X128797149Y-64905396D01*
X128797147Y-64905387D01*
X128752345Y-64777350D01*
X128671797Y-64668211D01*
X128671788Y-64668202D01*
X128562649Y-64587654D01*
X128434612Y-64542852D01*
X128434603Y-64542850D01*
X128404214Y-64540000D01*
X126200001Y-64540000D01*
X126200000Y-64540001D01*
X125200000Y-64540001D01*
X125199999Y-64540000D01*
X122995785Y-64540000D01*
X122965396Y-64542850D01*
X122965387Y-64542852D01*
X122837350Y-64587654D01*
X122728211Y-64668202D01*
X122728202Y-64668211D01*
X122647654Y-64777350D01*
X122602852Y-64905387D01*
X122602850Y-64905396D01*
X122600000Y-64935785D01*
X113057668Y-64935785D01*
X113090035Y-58332946D01*
X141599500Y-58332946D01*
X141599500Y-58667053D01*
X141632248Y-58999555D01*
X141697431Y-59327253D01*
X141794414Y-59646967D01*
X141922273Y-59955645D01*
X141922286Y-59955672D01*
X142079773Y-60250312D01*
X142218993Y-60458667D01*
X142265399Y-60528118D01*
X142477357Y-60786390D01*
X142713610Y-61022643D01*
X142971882Y-61234601D01*
X143110783Y-61327412D01*
X143249687Y-61420226D01*
X143544327Y-61577713D01*
X143544346Y-61577723D01*
X143853024Y-61705582D01*
X143853026Y-61705582D01*
X143853032Y-61705585D01*
X144129376Y-61789412D01*
X144172749Y-61802569D01*
X144500441Y-61867751D01*
X144832944Y-61900500D01*
X144832947Y-61900500D01*
X145167053Y-61900500D01*
X145167056Y-61900500D01*
X145499559Y-61867751D01*
X145827251Y-61802569D01*
X146016857Y-61745052D01*
X146146967Y-61705585D01*
X146146969Y-61705583D01*
X146146976Y-61705582D01*
X146455654Y-61577723D01*
X146599640Y-61500760D01*
X146750312Y-61420226D01*
X146750315Y-61420224D01*
X147028118Y-61234601D01*
X147286390Y-61022643D01*
X147522643Y-60786390D01*
X147734601Y-60528118D01*
X147920224Y-60250315D01*
X148077723Y-59955654D01*
X148205582Y-59646976D01*
X148302569Y-59327251D01*
X148367751Y-58999559D01*
X148400500Y-58667056D01*
X148400500Y-58332944D01*
X148367751Y-58000441D01*
X148302569Y-57672749D01*
X148289412Y-57629376D01*
X148205585Y-57353032D01*
X148077726Y-57044354D01*
X148077723Y-57044346D01*
X148054020Y-57000000D01*
X147920226Y-56749687D01*
X147743867Y-56485750D01*
X147734601Y-56471882D01*
X147522643Y-56213610D01*
X147286390Y-55977357D01*
X147028118Y-55765399D01*
X146958667Y-55718993D01*
X146750312Y-55579773D01*
X146455672Y-55422286D01*
X146455660Y-55422280D01*
X146455654Y-55422277D01*
X146455649Y-55422274D01*
X146455645Y-55422273D01*
X146146967Y-55294414D01*
X145827253Y-55197431D01*
X145504973Y-55133326D01*
X145499559Y-55132249D01*
X145499557Y-55132248D01*
X145256491Y-55108308D01*
X145167056Y-55099500D01*
X144832944Y-55099500D01*
X144734700Y-55109176D01*
X144500444Y-55132248D01*
X144172746Y-55197431D01*
X143853032Y-55294414D01*
X143544354Y-55422273D01*
X143544327Y-55422286D01*
X143249687Y-55579773D01*
X142971880Y-55765400D01*
X142713615Y-55977352D01*
X142477352Y-56213615D01*
X142265400Y-56471880D01*
X142079773Y-56749687D01*
X141922286Y-57044327D01*
X141922273Y-57044354D01*
X141794414Y-57353032D01*
X141697431Y-57672746D01*
X141632248Y-58000444D01*
X141599500Y-58332946D01*
X113090035Y-58332946D01*
X113091665Y-58000444D01*
X113100000Y-56299962D01*
X113100000Y-54599500D01*
X113118907Y-54541309D01*
X113168407Y-54505345D01*
X113199000Y-54500500D01*
X147934108Y-54500500D01*
X147997015Y-54500500D01*
X148002992Y-54500681D01*
G37*
%TD.AperFunction*%
%TD*%
%TA.AperFunction,Conductor*%
%TO.N,GND*%
G36*
X90700000Y-71424999D02*
G01*
X90700001Y-71425000D01*
X91095973Y-71425000D01*
X91154164Y-71443907D01*
X91190128Y-71493407D01*
X91190128Y-71554593D01*
X91181710Y-71573500D01*
X91179496Y-71577333D01*
X91179495Y-71577335D01*
X91110312Y-71697164D01*
X91074500Y-71830817D01*
X91074500Y-71969183D01*
X91110312Y-72102836D01*
X91179495Y-72222665D01*
X91277335Y-72320505D01*
X91397164Y-72389688D01*
X91530817Y-72425500D01*
X91530819Y-72425500D01*
X91669181Y-72425500D01*
X91669183Y-72425500D01*
X91802836Y-72389688D01*
X91922665Y-72320505D01*
X92020505Y-72222665D01*
X92089688Y-72102836D01*
X92111483Y-72021492D01*
X92144805Y-71970180D01*
X92201927Y-71948253D01*
X92261027Y-71964088D01*
X92277113Y-71977113D01*
X93871004Y-73571004D01*
X93898781Y-73625521D01*
X93900000Y-73641008D01*
X93900000Y-76358992D01*
X93897531Y-76366589D01*
X93898781Y-76374479D01*
X93888256Y-76395134D01*
X93881093Y-76417183D01*
X93871004Y-76428996D01*
X93828996Y-76471004D01*
X93774479Y-76498781D01*
X93758992Y-76500000D01*
X89999000Y-76500000D01*
X89940809Y-76481093D01*
X89904845Y-76431593D01*
X89900000Y-76401000D01*
X89900000Y-75219500D01*
X89918907Y-75161309D01*
X89968407Y-75125345D01*
X89999000Y-75120500D01*
X90284312Y-75120500D01*
X90284314Y-75120500D01*
X90333171Y-75114068D01*
X90440402Y-75064065D01*
X90524063Y-74980404D01*
X90534669Y-74957660D01*
X90551603Y-74939499D01*
X90566202Y-74919407D01*
X90572139Y-74917477D01*
X90576397Y-74912912D01*
X90624393Y-74900500D01*
X90775605Y-74900500D01*
X90833796Y-74919407D01*
X90865328Y-74957658D01*
X90873702Y-74975615D01*
X90881159Y-75036343D01*
X90869715Y-75066955D01*
X90869496Y-75067333D01*
X90869495Y-75067335D01*
X90800312Y-75187164D01*
X90764500Y-75320817D01*
X90764500Y-75459183D01*
X90800312Y-75592836D01*
X90869495Y-75712665D01*
X90967335Y-75810505D01*
X91087164Y-75879688D01*
X91220817Y-75915500D01*
X91220819Y-75915500D01*
X91359181Y-75915500D01*
X91359183Y-75915500D01*
X91492836Y-75879688D01*
X91612665Y-75810505D01*
X91710505Y-75712665D01*
X91779688Y-75592836D01*
X91815500Y-75459183D01*
X91815500Y-75320817D01*
X91779688Y-75187164D01*
X91710505Y-75067335D01*
X91710503Y-75067333D01*
X91710285Y-75066955D01*
X91697564Y-75007106D01*
X91706299Y-74975614D01*
X91710552Y-74966494D01*
X91752281Y-74921746D01*
X91812342Y-74910073D01*
X91867795Y-74935933D01*
X91889999Y-74966495D01*
X91896347Y-74980109D01*
X91979888Y-75063650D01*
X92086950Y-75113574D01*
X92086957Y-75113576D01*
X92135743Y-75119999D01*
X92209997Y-75119998D01*
X92209998Y-75119998D01*
X92209998Y-74700001D01*
X92409998Y-74700001D01*
X92409998Y-75119998D01*
X92409999Y-75119999D01*
X92484249Y-75119999D01*
X92484258Y-75119998D01*
X92533039Y-75113577D01*
X92640107Y-75063650D01*
X92723648Y-74980109D01*
X92773572Y-74873047D01*
X92773574Y-74873040D01*
X92779998Y-74824253D01*
X92779998Y-74700001D01*
X92779997Y-74700000D01*
X92409999Y-74700000D01*
X92409998Y-74700001D01*
X92209998Y-74700001D01*
X92209998Y-74080001D01*
X92409998Y-74080001D01*
X92409998Y-74499999D01*
X92409999Y-74500000D01*
X92779996Y-74500000D01*
X92779997Y-74499999D01*
X92779997Y-74375749D01*
X92779996Y-74375739D01*
X92773575Y-74326958D01*
X92723648Y-74219890D01*
X92640107Y-74136349D01*
X92533045Y-74086425D01*
X92533038Y-74086423D01*
X92484252Y-74080000D01*
X92409999Y-74080000D01*
X92409998Y-74080001D01*
X92209998Y-74080001D01*
X92209998Y-74079999D01*
X92135747Y-74080000D01*
X92135736Y-74080001D01*
X92086957Y-74086422D01*
X91979888Y-74136349D01*
X91896347Y-74219890D01*
X91889999Y-74233505D01*
X91848270Y-74278253D01*
X91788209Y-74289927D01*
X91732756Y-74264068D01*
X91710551Y-74233504D01*
X91704066Y-74219598D01*
X91704065Y-74219597D01*
X91704065Y-74219596D01*
X91620404Y-74135935D01*
X91620402Y-74135934D01*
X91620401Y-74135933D01*
X91513175Y-74085932D01*
X91480601Y-74081644D01*
X91464316Y-74079500D01*
X91115684Y-74079500D01*
X91099398Y-74081644D01*
X91066825Y-74085932D01*
X91066824Y-74085932D01*
X90959598Y-74135933D01*
X90875933Y-74219598D01*
X90865329Y-74242340D01*
X90848394Y-74260500D01*
X90833796Y-74280593D01*
X90827858Y-74282522D01*
X90823601Y-74287088D01*
X90775605Y-74299500D01*
X90624393Y-74299500D01*
X90566202Y-74280593D01*
X90534669Y-74242340D01*
X90524064Y-74219598D01*
X90524063Y-74219597D01*
X90524063Y-74219596D01*
X90440402Y-74135935D01*
X90440400Y-74135934D01*
X90440399Y-74135933D01*
X90333173Y-74085932D01*
X90300599Y-74081644D01*
X90284314Y-74079500D01*
X89999000Y-74079500D01*
X89940809Y-74060593D01*
X89904845Y-74011093D01*
X89900000Y-73980500D01*
X89900000Y-73719071D01*
X89918907Y-73660880D01*
X89968407Y-73624916D01*
X90029593Y-73624916D01*
X90079093Y-73660880D01*
X90087210Y-73674126D01*
X90101882Y-73702922D01*
X90197078Y-73798118D01*
X90317030Y-73859237D01*
X90317029Y-73859237D01*
X90416545Y-73874999D01*
X90575000Y-73874999D01*
X90575000Y-73300001D01*
X90775000Y-73300001D01*
X90775000Y-73874998D01*
X90775001Y-73874999D01*
X90933453Y-73874999D01*
X91032965Y-73859239D01*
X91032969Y-73859237D01*
X91152921Y-73798118D01*
X91248118Y-73702921D01*
X91309237Y-73582969D01*
X91325000Y-73483453D01*
X91325000Y-73300001D01*
X91324999Y-73300000D01*
X90775001Y-73300000D01*
X90775000Y-73300001D01*
X90575000Y-73300001D01*
X90575000Y-72525001D01*
X90775000Y-72525001D01*
X90775000Y-73099999D01*
X90775001Y-73100000D01*
X91324998Y-73100000D01*
X91324999Y-73099999D01*
X91324999Y-72916546D01*
X91309239Y-72817034D01*
X91309237Y-72817030D01*
X91248118Y-72697078D01*
X91152921Y-72601881D01*
X91032969Y-72540762D01*
X91032970Y-72540762D01*
X90933454Y-72525000D01*
X90775001Y-72525000D01*
X90775000Y-72525001D01*
X90575000Y-72525001D01*
X90574999Y-72525000D01*
X90416547Y-72525000D01*
X90416546Y-72525001D01*
X90317034Y-72540760D01*
X90317030Y-72540762D01*
X90197078Y-72601881D01*
X90101881Y-72697078D01*
X90087209Y-72725874D01*
X90043944Y-72769138D01*
X89983512Y-72778709D01*
X89928996Y-72750931D01*
X89901219Y-72696414D01*
X89900000Y-72680928D01*
X89900000Y-71949849D01*
X89900500Y-71942224D01*
X89900500Y-71539627D01*
X89905929Y-71522916D01*
X89906619Y-71505362D01*
X89915148Y-71494541D01*
X89919407Y-71481436D01*
X89944495Y-71457314D01*
X89978822Y-71434378D01*
X90037707Y-71417770D01*
X90053136Y-71419596D01*
X90080302Y-71424999D01*
X90080303Y-71425000D01*
X90499999Y-71425000D01*
X90500000Y-71424999D01*
X90500000Y-70000000D01*
X90700000Y-70000000D01*
X90700000Y-71424999D01*
G37*
%TD.AperFunction*%
%TD*%
%TA.AperFunction,Conductor*%
%TO.N,+2V5*%
G36*
X94550301Y-68169873D02*
G01*
X94562816Y-68168747D01*
X94581744Y-68179208D01*
X94596909Y-68183710D01*
X94604380Y-68188851D01*
X94619595Y-68204066D01*
X94640982Y-68214039D01*
X94647786Y-68218721D01*
X94685005Y-68267284D01*
X94686571Y-68328450D01*
X94651885Y-68378854D01*
X94633504Y-68390000D01*
X94619889Y-68396348D01*
X94536348Y-68479889D01*
X94486424Y-68586951D01*
X94486422Y-68586958D01*
X94479999Y-68635745D01*
X94479999Y-68709998D01*
X94480000Y-68709999D01*
X95519997Y-68709999D01*
X95519998Y-68709998D01*
X95519998Y-68635748D01*
X95519997Y-68635738D01*
X95513576Y-68586957D01*
X95463649Y-68479889D01*
X95380109Y-68396349D01*
X95366495Y-68390001D01*
X95321746Y-68348273D01*
X95310071Y-68288212D01*
X95335928Y-68232759D01*
X95352812Y-68218310D01*
X95359341Y-68213887D01*
X95380403Y-68204066D01*
X95394179Y-68190289D01*
X95401988Y-68185000D01*
X95422755Y-68179000D01*
X95442015Y-68169186D01*
X95452034Y-68170543D01*
X95460770Y-68168020D01*
X95477153Y-68173946D01*
X95492141Y-68175977D01*
X95492518Y-68174818D01*
X95497806Y-68176536D01*
X95555997Y-68195443D01*
X95568051Y-68197352D01*
X95619495Y-68205500D01*
X97701000Y-68205500D01*
X97759191Y-68224407D01*
X97795155Y-68273907D01*
X97800000Y-68304500D01*
X97800000Y-70901000D01*
X97781093Y-70959191D01*
X97731593Y-70995155D01*
X97701000Y-71000000D01*
X95041008Y-71000000D01*
X94982817Y-70981093D01*
X94971004Y-70971004D01*
X94901000Y-70901000D01*
X93900000Y-69900000D01*
X93899999Y-69900000D01*
X93797178Y-69900000D01*
X93755340Y-69890725D01*
X93659487Y-69846028D01*
X93609901Y-69839500D01*
X93609899Y-69839500D01*
X93190103Y-69839500D01*
X93190092Y-69839501D01*
X93140513Y-69846027D01*
X93140511Y-69846027D01*
X93044661Y-69890724D01*
X93002822Y-69900000D01*
X92765979Y-69900000D01*
X92707788Y-69881093D01*
X92695976Y-69871004D01*
X92234510Y-69409539D01*
X92214329Y-69397887D01*
X92214329Y-69397888D01*
X92165989Y-69369979D01*
X92165988Y-69369978D01*
X92165987Y-69369978D01*
X92089564Y-69349500D01*
X92089562Y-69349500D01*
X91949000Y-69349500D01*
X91890809Y-69330593D01*
X91854845Y-69281093D01*
X91850000Y-69250500D01*
X91850000Y-69033453D01*
X92825000Y-69033453D01*
X92840760Y-69132965D01*
X92840762Y-69132969D01*
X92901881Y-69252921D01*
X92997078Y-69348118D01*
X93117030Y-69409237D01*
X93117029Y-69409237D01*
X93216545Y-69424999D01*
X93400000Y-69424999D01*
X93400000Y-68875001D01*
X93600000Y-68875001D01*
X93600000Y-69424998D01*
X93600001Y-69424999D01*
X93783453Y-69424999D01*
X93882965Y-69409239D01*
X93882969Y-69409237D01*
X94002921Y-69348118D01*
X94098118Y-69252921D01*
X94159237Y-69132969D01*
X94175000Y-69033453D01*
X94175000Y-68910000D01*
X94480000Y-68910000D01*
X94480000Y-68984259D01*
X94486421Y-69033040D01*
X94536348Y-69140108D01*
X94619889Y-69223649D01*
X94726951Y-69273573D01*
X94726958Y-69273575D01*
X94775744Y-69279998D01*
X94899999Y-69279998D01*
X94899999Y-68910000D01*
X95099999Y-68910000D01*
X95099999Y-69279997D01*
X95100000Y-69279998D01*
X95224250Y-69279998D01*
X95224259Y-69279997D01*
X95273040Y-69273576D01*
X95380108Y-69223649D01*
X95463649Y-69140108D01*
X95513573Y-69033046D01*
X95513575Y-69033039D01*
X95519999Y-68984252D01*
X95519999Y-68910000D01*
X95519998Y-68909999D01*
X95100000Y-68909999D01*
X95099999Y-68910000D01*
X94899999Y-68910000D01*
X94899998Y-68909999D01*
X94480001Y-68909999D01*
X94480000Y-68910000D01*
X94175000Y-68910000D01*
X94175000Y-68875001D01*
X94174999Y-68875000D01*
X93600001Y-68875000D01*
X93600000Y-68875001D01*
X93400000Y-68875001D01*
X93399999Y-68875000D01*
X92825002Y-68875000D01*
X92825001Y-68875001D01*
X92825001Y-69033453D01*
X92825000Y-69033453D01*
X91850000Y-69033453D01*
X91850000Y-69006553D01*
X91868907Y-68948362D01*
X91874674Y-68941157D01*
X91883229Y-68931433D01*
X91927112Y-68902112D01*
X91984194Y-68816681D01*
X91988531Y-68811753D01*
X91989583Y-68811129D01*
X91992843Y-68807156D01*
X92471550Y-68328450D01*
X92565505Y-68234496D01*
X92572621Y-68230870D01*
X92577317Y-68224407D01*
X92599366Y-68217242D01*
X92620021Y-68206719D01*
X92635508Y-68205500D01*
X92786990Y-68205500D01*
X92845181Y-68224407D01*
X92881145Y-68273907D01*
X92881145Y-68335093D01*
X92875199Y-68349446D01*
X92840762Y-68417030D01*
X92825000Y-68516546D01*
X92825000Y-68674999D01*
X92825001Y-68675000D01*
X94174998Y-68675000D01*
X94174999Y-68674999D01*
X94174999Y-68516546D01*
X94159239Y-68417034D01*
X94159238Y-68417030D01*
X94124801Y-68349446D01*
X94115229Y-68289014D01*
X94143006Y-68234497D01*
X94197522Y-68206719D01*
X94213010Y-68205500D01*
X94380492Y-68205500D01*
X94380499Y-68205500D01*
X94412643Y-68202970D01*
X94443236Y-68198125D01*
X94443247Y-68198123D01*
X94443292Y-68198116D01*
X94447780Y-68197353D01*
X94447782Y-68197353D01*
X94447783Y-68197352D01*
X94447786Y-68197352D01*
X94501878Y-68174231D01*
X94520562Y-68172550D01*
X94538254Y-68166297D01*
X94550301Y-68169873D01*
G37*
%TD.AperFunction*%
%TD*%
%TA.AperFunction,Conductor*%
%TO.N,GND*%
G36*
X84117183Y-68918907D02*
G01*
X84128995Y-68928996D01*
X84400000Y-69200000D01*
X84600000Y-69400000D01*
X84600000Y-71500000D01*
X76299000Y-71500000D01*
X76240809Y-71481093D01*
X76204845Y-71431593D01*
X76200000Y-71401000D01*
X76200000Y-70056581D01*
X76435000Y-70056581D01*
X76435000Y-70263418D01*
X76475349Y-70466272D01*
X76554501Y-70657360D01*
X76554508Y-70657374D01*
X76669405Y-70829329D01*
X76671826Y-70831750D01*
X77067210Y-70436365D01*
X77084901Y-70467007D01*
X77177993Y-70560099D01*
X77208632Y-70577788D01*
X76813249Y-70973173D01*
X76815670Y-70975594D01*
X76987625Y-71090491D01*
X76987639Y-71090498D01*
X77178727Y-71169650D01*
X77381581Y-71209999D01*
X77381586Y-71210000D01*
X77588414Y-71210000D01*
X77588418Y-71209999D01*
X77791272Y-71169650D01*
X77982360Y-71090498D01*
X77982366Y-71090495D01*
X78154333Y-70975591D01*
X78156750Y-70973173D01*
X77761366Y-70577789D01*
X77792007Y-70560099D01*
X77885099Y-70467007D01*
X77902789Y-70436366D01*
X78298173Y-70831750D01*
X78300591Y-70829333D01*
X78415495Y-70657366D01*
X78415498Y-70657360D01*
X78494650Y-70466272D01*
X78534999Y-70263418D01*
X78535000Y-70263413D01*
X78535000Y-70056586D01*
X78534999Y-70056581D01*
X78494650Y-69853727D01*
X78415498Y-69662639D01*
X78415491Y-69662625D01*
X78300594Y-69490670D01*
X78298173Y-69488249D01*
X77902788Y-69883632D01*
X77885099Y-69852993D01*
X77792007Y-69759901D01*
X77761365Y-69742210D01*
X78156750Y-69346826D01*
X78154329Y-69344405D01*
X77982374Y-69229508D01*
X77982360Y-69229501D01*
X77791272Y-69150349D01*
X77588418Y-69110000D01*
X77381581Y-69110000D01*
X77178727Y-69150349D01*
X76987639Y-69229501D01*
X76987630Y-69229505D01*
X76815665Y-69344410D01*
X76813248Y-69346825D01*
X77208633Y-69742210D01*
X77177993Y-69759901D01*
X77084901Y-69852993D01*
X77067210Y-69883633D01*
X76671825Y-69488248D01*
X76669410Y-69490665D01*
X76554505Y-69662630D01*
X76554501Y-69662639D01*
X76475349Y-69853727D01*
X76435000Y-70056581D01*
X76200000Y-70056581D01*
X76200000Y-68999000D01*
X76218907Y-68940809D01*
X76268407Y-68904845D01*
X76299000Y-68900000D01*
X84058992Y-68900000D01*
X84117183Y-68918907D01*
G37*
%TD.AperFunction*%
%TD*%
%TA.AperFunction,Conductor*%
%TO.N,GND*%
G36*
X85339120Y-69418907D02*
G01*
X85375084Y-69468407D01*
X85375084Y-69529593D01*
X85339120Y-69579093D01*
X85325874Y-69587210D01*
X85297077Y-69601882D01*
X85201881Y-69697078D01*
X85140762Y-69817030D01*
X85125000Y-69916546D01*
X85125000Y-70074999D01*
X85125001Y-70075000D01*
X86474998Y-70075000D01*
X86474999Y-70074999D01*
X86474999Y-69916546D01*
X86459239Y-69817034D01*
X86459237Y-69817030D01*
X86398118Y-69697078D01*
X86302922Y-69601882D01*
X86274126Y-69587210D01*
X86230861Y-69543945D01*
X86221290Y-69483513D01*
X86249068Y-69428996D01*
X86303584Y-69401219D01*
X86319071Y-69400000D01*
X86880929Y-69400000D01*
X86939120Y-69418907D01*
X86975084Y-69468407D01*
X86975084Y-69529593D01*
X86939120Y-69579093D01*
X86925874Y-69587210D01*
X86897077Y-69601882D01*
X86801881Y-69697078D01*
X86740762Y-69817030D01*
X86725000Y-69916546D01*
X86725000Y-70074999D01*
X86725001Y-70075000D01*
X88074998Y-70075000D01*
X88074999Y-70074999D01*
X88074999Y-69916546D01*
X88059239Y-69817034D01*
X88059237Y-69817030D01*
X87998118Y-69697078D01*
X87902922Y-69601882D01*
X87874126Y-69587210D01*
X87830861Y-69543945D01*
X87821290Y-69483513D01*
X87849068Y-69428996D01*
X87903584Y-69401219D01*
X87919071Y-69400000D01*
X88258992Y-69400000D01*
X88317183Y-69418907D01*
X88328996Y-69428996D01*
X88583176Y-69683176D01*
X88608798Y-69727556D01*
X88617762Y-69761009D01*
X88621683Y-69775642D01*
X88664533Y-69849859D01*
X88664535Y-69849862D01*
X88725138Y-69910465D01*
X88799362Y-69953318D01*
X88847443Y-69966201D01*
X88891822Y-69991823D01*
X88899998Y-69999999D01*
X88900000Y-70000000D01*
X89114459Y-70000000D01*
X89133270Y-70006112D01*
X89152979Y-70007801D01*
X89164147Y-70016144D01*
X89172650Y-70018907D01*
X89178353Y-70026757D01*
X89190988Y-70036196D01*
X89202316Y-70050000D01*
X89551000Y-70050000D01*
X89609191Y-70068907D01*
X89645155Y-70118407D01*
X89650000Y-70149000D01*
X89650000Y-70151000D01*
X89631093Y-70209191D01*
X89581593Y-70245155D01*
X89551000Y-70250000D01*
X89202315Y-70250000D01*
X89200714Y-70251951D01*
X89200114Y-70258953D01*
X89193408Y-70274829D01*
X89191383Y-70291946D01*
X89181800Y-70302312D01*
X89176308Y-70315317D01*
X89161549Y-70324220D01*
X89149851Y-70336876D01*
X89133498Y-70341143D01*
X89123918Y-70346923D01*
X89114457Y-70346112D01*
X89101476Y-70349500D01*
X89010435Y-70349500D01*
X88934012Y-70369978D01*
X88885671Y-70397888D01*
X88885670Y-70397887D01*
X88865491Y-70409538D01*
X87804024Y-71471004D01*
X87749507Y-71498781D01*
X87734020Y-71500000D01*
X86300000Y-71500000D01*
X86300000Y-71500001D01*
X86300000Y-71675899D01*
X86289210Y-71720843D01*
X86240282Y-71816869D01*
X86240281Y-71816874D01*
X86224500Y-71916510D01*
X86224500Y-72483489D01*
X86240281Y-72583125D01*
X86240281Y-72583127D01*
X86289210Y-72679154D01*
X86300000Y-72724099D01*
X86300000Y-73101000D01*
X86281093Y-73159191D01*
X86231593Y-73195155D01*
X86201000Y-73200000D01*
X84341008Y-73200000D01*
X84333410Y-73197531D01*
X84325521Y-73198781D01*
X84304865Y-73188256D01*
X84282817Y-73181093D01*
X84271004Y-73171004D01*
X84228996Y-73128996D01*
X84201219Y-73074479D01*
X84200000Y-73058992D01*
X84200000Y-72483453D01*
X84675000Y-72483453D01*
X84690760Y-72582965D01*
X84690762Y-72582969D01*
X84751881Y-72702921D01*
X84847078Y-72798118D01*
X84967030Y-72859237D01*
X84967029Y-72859237D01*
X85066545Y-72874999D01*
X85225000Y-72874999D01*
X85225000Y-72300001D01*
X85425000Y-72300001D01*
X85425000Y-72874998D01*
X85425001Y-72874999D01*
X85583453Y-72874999D01*
X85682965Y-72859239D01*
X85682969Y-72859237D01*
X85802921Y-72798118D01*
X85898118Y-72702921D01*
X85959237Y-72582969D01*
X85975000Y-72483453D01*
X85975000Y-72300001D01*
X85974999Y-72300000D01*
X85425001Y-72300000D01*
X85425000Y-72300001D01*
X85225000Y-72300001D01*
X85224999Y-72300000D01*
X84675002Y-72300000D01*
X84675001Y-72300001D01*
X84675001Y-72483453D01*
X84675000Y-72483453D01*
X84200000Y-72483453D01*
X84200000Y-71916546D01*
X84675000Y-71916546D01*
X84675000Y-72099999D01*
X84675001Y-72100000D01*
X85224999Y-72100000D01*
X85225000Y-72099999D01*
X85225000Y-71525001D01*
X85425000Y-71525001D01*
X85425000Y-72099999D01*
X85425001Y-72100000D01*
X85974998Y-72100000D01*
X85974999Y-72099999D01*
X85974999Y-71916546D01*
X85959239Y-71817034D01*
X85959237Y-71817030D01*
X85898118Y-71697078D01*
X85802921Y-71601881D01*
X85682969Y-71540762D01*
X85682970Y-71540762D01*
X85583454Y-71525000D01*
X85425001Y-71525000D01*
X85425000Y-71525001D01*
X85225000Y-71525001D01*
X85224999Y-71525000D01*
X85066547Y-71525000D01*
X85066546Y-71525001D01*
X84967034Y-71540760D01*
X84967030Y-71540762D01*
X84847078Y-71601881D01*
X84751881Y-71697078D01*
X84690762Y-71817030D01*
X84675000Y-71916546D01*
X84200000Y-71916546D01*
X84200000Y-71500001D01*
X84200000Y-71500000D01*
X84600000Y-71500000D01*
X84600000Y-70433453D01*
X85125000Y-70433453D01*
X85140760Y-70532965D01*
X85140762Y-70532969D01*
X85201881Y-70652921D01*
X85297078Y-70748118D01*
X85417030Y-70809237D01*
X85417029Y-70809237D01*
X85516545Y-70824999D01*
X85700000Y-70824999D01*
X85700000Y-70275001D01*
X85900000Y-70275001D01*
X85900000Y-70824998D01*
X85900001Y-70824999D01*
X86083453Y-70824999D01*
X86182965Y-70809239D01*
X86182969Y-70809237D01*
X86302921Y-70748118D01*
X86398118Y-70652921D01*
X86459237Y-70532969D01*
X86475000Y-70433453D01*
X86725000Y-70433453D01*
X86740760Y-70532965D01*
X86740762Y-70532969D01*
X86801881Y-70652921D01*
X86897078Y-70748118D01*
X87017030Y-70809237D01*
X87017029Y-70809237D01*
X87116545Y-70824999D01*
X87300000Y-70824999D01*
X87300000Y-70275001D01*
X87500000Y-70275001D01*
X87500000Y-70824998D01*
X87500001Y-70824999D01*
X87683453Y-70824999D01*
X87782965Y-70809239D01*
X87782969Y-70809237D01*
X87902921Y-70748118D01*
X87998118Y-70652921D01*
X88059237Y-70532969D01*
X88075000Y-70433453D01*
X88075000Y-70275001D01*
X88074999Y-70275000D01*
X87500001Y-70275000D01*
X87500000Y-70275001D01*
X87300000Y-70275001D01*
X87299999Y-70275000D01*
X86725002Y-70275000D01*
X86725001Y-70275001D01*
X86725001Y-70433453D01*
X86725000Y-70433453D01*
X86475000Y-70433453D01*
X86475000Y-70275001D01*
X86474999Y-70275000D01*
X85900001Y-70275000D01*
X85900000Y-70275001D01*
X85700000Y-70275001D01*
X85699999Y-70275000D01*
X85125002Y-70275000D01*
X85125001Y-70275001D01*
X85125001Y-70433453D01*
X85125000Y-70433453D01*
X84600000Y-70433453D01*
X84600000Y-69400000D01*
X85280929Y-69400000D01*
X85339120Y-69418907D01*
G37*
%TD.AperFunction*%
%TD*%
%TA.AperFunction,Conductor*%
%TO.N,GND*%
G36*
X97759191Y-64918907D02*
G01*
X97795155Y-64968407D01*
X97800000Y-64999000D01*
X97800000Y-67901000D01*
X97781093Y-67959191D01*
X97731593Y-67995155D01*
X97701000Y-68000000D01*
X95619499Y-68000000D01*
X95561308Y-67981093D01*
X95525344Y-67931593D01*
X95520499Y-67901000D01*
X95520499Y-67615686D01*
X95518807Y-67602835D01*
X95514067Y-67566828D01*
X95464064Y-67459597D01*
X95380403Y-67375936D01*
X95380401Y-67375935D01*
X95380400Y-67375934D01*
X95357659Y-67365330D01*
X95339498Y-67348395D01*
X95319406Y-67333797D01*
X95317476Y-67327859D01*
X95312911Y-67323602D01*
X95300499Y-67275606D01*
X95300499Y-67224394D01*
X95319406Y-67166203D01*
X95319407Y-67166202D01*
X95357658Y-67134670D01*
X95380404Y-67124064D01*
X95380405Y-67124062D01*
X95388254Y-67120403D01*
X95389587Y-67123262D01*
X95433813Y-67109727D01*
X95481612Y-67122974D01*
X95597164Y-67189688D01*
X95730817Y-67225500D01*
X95730819Y-67225500D01*
X95869181Y-67225500D01*
X95869183Y-67225500D01*
X96002836Y-67189688D01*
X96122665Y-67120505D01*
X96220505Y-67022665D01*
X96289688Y-66902836D01*
X96325500Y-66769183D01*
X96325500Y-66630817D01*
X96289688Y-66497164D01*
X96220505Y-66377335D01*
X96122665Y-66279495D01*
X96002836Y-66210312D01*
X95869183Y-66174500D01*
X95730817Y-66174500D01*
X95597164Y-66210312D01*
X95477330Y-66279498D01*
X95475024Y-66281268D01*
X95473063Y-66281962D01*
X95471716Y-66282740D01*
X95471571Y-66282490D01*
X95453562Y-66288865D01*
X95433652Y-66299902D01*
X95425289Y-66298875D01*
X95417347Y-66301687D01*
X95372923Y-66292445D01*
X95366494Y-66289447D01*
X95321746Y-66247718D01*
X95310072Y-66187657D01*
X95335931Y-66132204D01*
X95366499Y-66109997D01*
X95380110Y-66103650D01*
X95463650Y-66020110D01*
X95513574Y-65913048D01*
X95513576Y-65913041D01*
X95520000Y-65864254D01*
X95520000Y-65790002D01*
X95519999Y-65790001D01*
X94480002Y-65790001D01*
X94480001Y-65790002D01*
X94480001Y-65864261D01*
X94486422Y-65913042D01*
X94536349Y-66020110D01*
X94619888Y-66103649D01*
X94633502Y-66109997D01*
X94678251Y-66151724D01*
X94689927Y-66211785D01*
X94664071Y-66267239D01*
X94633508Y-66289446D01*
X94619597Y-66295933D01*
X94535933Y-66379597D01*
X94485932Y-66486823D01*
X94485932Y-66486824D01*
X94485932Y-66486826D01*
X94479500Y-66535683D01*
X94479500Y-66884315D01*
X94483648Y-66915822D01*
X94485932Y-66933173D01*
X94485932Y-66933174D01*
X94535933Y-67040400D01*
X94535934Y-67040401D01*
X94535935Y-67040403D01*
X94619596Y-67124064D01*
X94642339Y-67134669D01*
X94660499Y-67151604D01*
X94680592Y-67166202D01*
X94682521Y-67172139D01*
X94687086Y-67176396D01*
X94699499Y-67224393D01*
X94699499Y-67275605D01*
X94680592Y-67333796D01*
X94642340Y-67365329D01*
X94619597Y-67375934D01*
X94535932Y-67459599D01*
X94485931Y-67566825D01*
X94485931Y-67566826D01*
X94479499Y-67615686D01*
X94479499Y-67901000D01*
X94460592Y-67959191D01*
X94411092Y-67995155D01*
X94380499Y-68000000D01*
X94019071Y-68000000D01*
X93960880Y-67981093D01*
X93924916Y-67931593D01*
X93924916Y-67870407D01*
X93960880Y-67820907D01*
X93974126Y-67812790D01*
X94002922Y-67798117D01*
X94098118Y-67702921D01*
X94159237Y-67582969D01*
X94175000Y-67483453D01*
X94175000Y-67325001D01*
X94174999Y-67325000D01*
X92825002Y-67325000D01*
X92825001Y-67325001D01*
X92825001Y-67483453D01*
X92825000Y-67483453D01*
X92840760Y-67582965D01*
X92840762Y-67582969D01*
X92901881Y-67702921D01*
X92997077Y-67798117D01*
X93025874Y-67812790D01*
X93069139Y-67856055D01*
X93078710Y-67916487D01*
X93050932Y-67971004D01*
X92996416Y-67998781D01*
X92980929Y-68000000D01*
X91999500Y-68000000D01*
X91984588Y-67995155D01*
X91968907Y-67995155D01*
X91956221Y-67985938D01*
X91941309Y-67981093D01*
X91932092Y-67968407D01*
X91919407Y-67959191D01*
X91914561Y-67944278D01*
X91905345Y-67931593D01*
X91900500Y-67901000D01*
X91900500Y-67883677D01*
X91919407Y-67825486D01*
X91929490Y-67813679D01*
X92020505Y-67722665D01*
X92089688Y-67602836D01*
X92125500Y-67469183D01*
X92125500Y-67330817D01*
X92089688Y-67197164D01*
X92020505Y-67077335D01*
X91922665Y-66979495D01*
X91900237Y-66966546D01*
X92825000Y-66966546D01*
X92825000Y-67124999D01*
X92825001Y-67125000D01*
X93399999Y-67125000D01*
X93400000Y-67124999D01*
X93400000Y-66575001D01*
X93600000Y-66575001D01*
X93600000Y-67124999D01*
X93600001Y-67125000D01*
X94174998Y-67125000D01*
X94174999Y-67124999D01*
X94174999Y-66966546D01*
X94159239Y-66867034D01*
X94159237Y-66867030D01*
X94098118Y-66747078D01*
X94002921Y-66651881D01*
X93882969Y-66590762D01*
X93882970Y-66590762D01*
X93783454Y-66575000D01*
X93600001Y-66575000D01*
X93600000Y-66575001D01*
X93400000Y-66575001D01*
X93399999Y-66575000D01*
X93216547Y-66575000D01*
X93216546Y-66575001D01*
X93117034Y-66590760D01*
X93117030Y-66590762D01*
X92997078Y-66651881D01*
X92901881Y-66747078D01*
X92840762Y-66867030D01*
X92825000Y-66966546D01*
X91900237Y-66966546D01*
X91802836Y-66910312D01*
X91669183Y-66874500D01*
X91530817Y-66874500D01*
X91397164Y-66910312D01*
X91277335Y-66979495D01*
X91179495Y-67077335D01*
X91110312Y-67197164D01*
X91074500Y-67330817D01*
X91074500Y-67469183D01*
X91110312Y-67602836D01*
X91179495Y-67722665D01*
X91270505Y-67813675D01*
X91274130Y-67820790D01*
X91280593Y-67825486D01*
X91287756Y-67847534D01*
X91298281Y-67868190D01*
X91299500Y-67883677D01*
X91299500Y-67901000D01*
X91280593Y-67959191D01*
X91231093Y-67995155D01*
X91200500Y-68000000D01*
X91200000Y-68000000D01*
X91200000Y-68000001D01*
X91200000Y-68276000D01*
X91181093Y-68334191D01*
X91131593Y-68370155D01*
X91101000Y-68375000D01*
X90700001Y-68375000D01*
X90700000Y-68375001D01*
X90700000Y-69801000D01*
X90695155Y-69815911D01*
X90695155Y-69831593D01*
X90685938Y-69844278D01*
X90681093Y-69859191D01*
X90668407Y-69868407D01*
X90659191Y-69881093D01*
X90644278Y-69885938D01*
X90631593Y-69895155D01*
X90601000Y-69900000D01*
X90599000Y-69900000D01*
X90540809Y-69881093D01*
X90504845Y-69831593D01*
X90500000Y-69801000D01*
X90500000Y-68375001D01*
X90499999Y-68375000D01*
X90099000Y-68375000D01*
X90040809Y-68356093D01*
X90004845Y-68306593D01*
X90000000Y-68276000D01*
X90000000Y-67884177D01*
X90018907Y-67825986D01*
X90028990Y-67814179D01*
X90120505Y-67722665D01*
X90189688Y-67602836D01*
X90225500Y-67469183D01*
X90225500Y-67330817D01*
X90189688Y-67197164D01*
X90120505Y-67077335D01*
X90083570Y-67040400D01*
X90028996Y-66985825D01*
X90001219Y-66931309D01*
X90000000Y-66915822D01*
X90000000Y-65515747D01*
X94480000Y-65515747D01*
X94480000Y-65590000D01*
X94480001Y-65590001D01*
X94899999Y-65590001D01*
X94900000Y-65590000D01*
X94900000Y-65220002D01*
X95100000Y-65220002D01*
X95100000Y-65590000D01*
X95100001Y-65590001D01*
X95519998Y-65590001D01*
X95519999Y-65590000D01*
X95519999Y-65515750D01*
X95519998Y-65515740D01*
X95513577Y-65466959D01*
X95463650Y-65359891D01*
X95380109Y-65276350D01*
X95273047Y-65226426D01*
X95273040Y-65226424D01*
X95224254Y-65220001D01*
X95100001Y-65220001D01*
X95100000Y-65220002D01*
X94900000Y-65220002D01*
X94899999Y-65220001D01*
X94775748Y-65220001D01*
X94775738Y-65220002D01*
X94726959Y-65226423D01*
X94619890Y-65276350D01*
X94536349Y-65359891D01*
X94486425Y-65466953D01*
X94486423Y-65466960D01*
X94480000Y-65515747D01*
X90000000Y-65515747D01*
X90000000Y-65041008D01*
X90002468Y-65033410D01*
X90001219Y-65025521D01*
X90011743Y-65004865D01*
X90018907Y-64982817D01*
X90028996Y-64971004D01*
X90071004Y-64928996D01*
X90125521Y-64901219D01*
X90141008Y-64900000D01*
X97701000Y-64900000D01*
X97759191Y-64918907D01*
G37*
%TD.AperFunction*%
%TD*%
%TA.AperFunction,Conductor*%
%TO.N,+5V*%
G36*
X88370734Y-67701597D02*
G01*
X88375787Y-67700503D01*
X88394062Y-67709176D01*
X88424010Y-67718907D01*
X88431778Y-67725173D01*
X88433861Y-67727034D01*
X88527332Y-67820505D01*
X88558846Y-67838699D01*
X88566459Y-67845501D01*
X88576969Y-67863543D01*
X88590940Y-67879060D01*
X88593774Y-67892394D01*
X88597256Y-67898371D01*
X88596542Y-67905417D01*
X88599500Y-67919328D01*
X88599500Y-68939564D01*
X88619978Y-69015988D01*
X88619980Y-69015992D01*
X88659539Y-69084510D01*
X88909539Y-69334511D01*
X88965489Y-69390460D01*
X89034007Y-69430019D01*
X89034011Y-69430021D01*
X89110430Y-69450498D01*
X89110431Y-69450498D01*
X89110438Y-69450500D01*
X89110445Y-69450500D01*
X89114455Y-69451028D01*
X89169681Y-69477366D01*
X89198879Y-69531136D01*
X89199846Y-69537498D01*
X89201165Y-69548598D01*
X89202316Y-69550000D01*
X89551000Y-69550000D01*
X89609191Y-69568907D01*
X89645155Y-69618407D01*
X89650000Y-69649000D01*
X89650000Y-69651000D01*
X89631093Y-69709191D01*
X89581593Y-69745155D01*
X89551000Y-69750000D01*
X89202315Y-69750000D01*
X89195460Y-69758352D01*
X89176739Y-69770335D01*
X89160424Y-69785432D01*
X89151498Y-69786492D01*
X89143928Y-69791339D01*
X89118348Y-69793605D01*
X89118348Y-69794500D01*
X88985016Y-69794500D01*
X88947131Y-69786964D01*
X88900630Y-69767703D01*
X88891267Y-69765194D01*
X88867389Y-69755303D01*
X88862602Y-69752539D01*
X88842101Y-69736808D01*
X88838190Y-69732897D01*
X88822459Y-69712396D01*
X88819693Y-69707606D01*
X88809803Y-69683728D01*
X88807295Y-69674367D01*
X88786768Y-69624808D01*
X88761146Y-69580428D01*
X88728486Y-69537866D01*
X88474306Y-69283686D01*
X88474292Y-69283673D01*
X88474285Y-69283666D01*
X88462465Y-69272739D01*
X88462456Y-69272731D01*
X88450643Y-69262642D01*
X88380685Y-69223464D01*
X88322494Y-69204557D01*
X88322491Y-69204556D01*
X88322492Y-69204556D01*
X88258995Y-69194500D01*
X88258992Y-69194500D01*
X88113011Y-69194500D01*
X88054820Y-69175593D01*
X88018856Y-69126093D01*
X88018856Y-69064907D01*
X88024801Y-69050555D01*
X88059237Y-68982968D01*
X88075000Y-68883453D01*
X88075000Y-68725001D01*
X88074999Y-68725000D01*
X86725002Y-68725000D01*
X86725001Y-68725001D01*
X86725001Y-68883453D01*
X86725000Y-68883453D01*
X86740760Y-68982965D01*
X86740761Y-68982969D01*
X86775199Y-69050554D01*
X86776448Y-69058442D01*
X86781145Y-69064907D01*
X86781145Y-69088093D01*
X86784771Y-69110986D01*
X86781145Y-69118102D01*
X86781145Y-69126093D01*
X86767516Y-69144851D01*
X86756994Y-69165503D01*
X86749877Y-69169129D01*
X86745181Y-69175593D01*
X86723131Y-69182757D01*
X86702478Y-69193281D01*
X86686990Y-69194500D01*
X86513011Y-69194500D01*
X86454820Y-69175593D01*
X86418856Y-69126093D01*
X86418856Y-69064907D01*
X86424801Y-69050555D01*
X86459237Y-68982968D01*
X86475000Y-68883453D01*
X86475000Y-68725001D01*
X86474999Y-68725000D01*
X85125002Y-68725000D01*
X85125001Y-68725001D01*
X85125001Y-68883453D01*
X85125000Y-68883453D01*
X85140760Y-68982965D01*
X85140761Y-68982969D01*
X85175199Y-69050554D01*
X85184771Y-69110986D01*
X85156994Y-69165503D01*
X85102478Y-69193281D01*
X85086990Y-69194500D01*
X84726128Y-69194500D01*
X84667937Y-69175593D01*
X84656125Y-69165504D01*
X84390620Y-68900000D01*
X84900000Y-68900000D01*
X84900000Y-68366546D01*
X85125000Y-68366546D01*
X85125000Y-68524999D01*
X85125001Y-68525000D01*
X85699999Y-68525000D01*
X85700000Y-68524999D01*
X85700000Y-67975001D01*
X85900000Y-67975001D01*
X85900000Y-68524999D01*
X85900001Y-68525000D01*
X86474998Y-68525000D01*
X86474999Y-68524999D01*
X86474999Y-68366547D01*
X86474998Y-68366546D01*
X86725000Y-68366546D01*
X86725000Y-68524999D01*
X86725001Y-68525000D01*
X87299999Y-68525000D01*
X87300000Y-68524999D01*
X87300000Y-67975001D01*
X87500000Y-67975001D01*
X87500000Y-68524999D01*
X87500001Y-68525000D01*
X88074998Y-68525000D01*
X88074999Y-68524999D01*
X88074999Y-68366546D01*
X88059239Y-68267034D01*
X88059237Y-68267030D01*
X87998118Y-68147078D01*
X87902921Y-68051881D01*
X87782969Y-67990762D01*
X87782970Y-67990762D01*
X87683454Y-67975000D01*
X87500001Y-67975000D01*
X87500000Y-67975001D01*
X87300000Y-67975001D01*
X87299999Y-67975000D01*
X87116547Y-67975000D01*
X87116546Y-67975001D01*
X87017034Y-67990760D01*
X87017030Y-67990762D01*
X86897078Y-68051881D01*
X86801881Y-68147078D01*
X86740762Y-68267030D01*
X86725000Y-68366546D01*
X86474998Y-68366546D01*
X86474998Y-68366545D01*
X86459239Y-68267034D01*
X86459237Y-68267030D01*
X86398118Y-68147078D01*
X86302921Y-68051881D01*
X86182969Y-67990762D01*
X86182970Y-67990762D01*
X86083454Y-67975000D01*
X85900001Y-67975000D01*
X85900000Y-67975001D01*
X85700000Y-67975001D01*
X85699999Y-67975000D01*
X85516547Y-67975000D01*
X85516546Y-67975001D01*
X85417034Y-67990760D01*
X85417030Y-67990762D01*
X85297078Y-68051881D01*
X85201881Y-68147078D01*
X85140762Y-68267030D01*
X85125000Y-68366546D01*
X84900000Y-68366546D01*
X84900000Y-67800000D01*
X88200000Y-67800000D01*
X88200000Y-67700000D01*
X88200001Y-67700000D01*
X88365819Y-67700000D01*
X88370734Y-67701597D01*
G37*
%TD.AperFunction*%
%TD*%
%TA.AperFunction,Conductor*%
%TO.N,+5V*%
G36*
X87400000Y-65200000D02*
G01*
X89600000Y-65200000D01*
X89600000Y-65200001D01*
X89600000Y-65458992D01*
X89581093Y-65517183D01*
X89571004Y-65528996D01*
X88200000Y-66900000D01*
X88200000Y-67800000D01*
X84700000Y-67800000D01*
X84600000Y-67700000D01*
X84600000Y-65441008D01*
X84618907Y-65382817D01*
X84628996Y-65371004D01*
X85571004Y-64428996D01*
X85625521Y-64401219D01*
X85641008Y-64400000D01*
X87399999Y-64400000D01*
X87400000Y-64400000D01*
X87400000Y-65200000D01*
G37*
%TD.AperFunction*%
%TD*%
M02*
