%TF.GenerationSoftware,KiCad,Pcbnew,9.0.6*%
%TF.CreationDate,2026-02-07T23:32:21+00:00*%
%TF.ProjectId,vccs,76636373-2e6b-4696-9361-645f70636258,rev?*%
%TF.SameCoordinates,Original*%
%TF.FileFunction,Soldermask,Bot*%
%TF.FilePolarity,Negative*%
%FSLAX46Y46*%
G04 Gerber Fmt 4.6, Leading zero omitted, Abs format (unit mm)*
G04 Created by KiCad (PCBNEW 9.0.6) date 2026-02-07 23:32:21*
%MOMM*%
%LPD*%
G01*
G04 APERTURE LIST*
G04 Aperture macros list*
%AMRoundRect*
0 Rectangle with rounded corners*
0 $1 Rounding radius*
0 $2 $3 $4 $5 $6 $7 $8 $9 X,Y pos of 4 corners*
0 Add a 4 corners polygon primitive as box body*
4,1,4,$2,$3,$4,$5,$6,$7,$8,$9,$2,$3,0*
0 Add four circle primitives for the rounded corners*
1,1,$1+$1,$2,$3*
1,1,$1+$1,$4,$5*
1,1,$1+$1,$6,$7*
1,1,$1+$1,$8,$9*
0 Add four rect primitives between the rounded corners*
20,1,$1+$1,$2,$3,$4,$5,0*
20,1,$1+$1,$4,$5,$6,$7,0*
20,1,$1+$1,$6,$7,$8,$9,0*
20,1,$1+$1,$8,$9,$2,$3,0*%
G04 Aperture macros list end*
%ADD10C,0.800000*%
%ADD11C,6.400000*%
%ADD12C,10.000000*%
%ADD13RoundRect,0.250000X-0.350000X-0.625000X0.350000X-0.625000X0.350000X0.625000X-0.350000X0.625000X0*%
%ADD14O,1.200000X1.750000*%
%ADD15RoundRect,0.250000X0.350000X0.625000X-0.350000X0.625000X-0.350000X-0.625000X0.350000X-0.625000X0*%
%ADD16R,1.700000X1.700000*%
%ADD17C,1.700000*%
%ADD18RoundRect,0.200100X-0.949900X-0.949900X0.949900X-0.949900X0.949900X0.949900X-0.949900X0.949900X0*%
%ADD19C,2.500000*%
G04 APERTURE END LIST*
D10*
%TO.C,H2*%
X147400000Y-58500000D03*
X146697056Y-60197056D03*
X146697056Y-56802944D03*
X145000000Y-60900000D03*
D11*
X145000000Y-58500000D03*
D10*
X145000000Y-56100000D03*
X143302944Y-60197056D03*
X143302944Y-56802944D03*
X142600000Y-58500000D03*
%TD*%
%TO.C,H1*%
X79900000Y-58500000D03*
X79197056Y-60197056D03*
X79197056Y-56802944D03*
X77500000Y-60900000D03*
D11*
X77500000Y-58500000D03*
D10*
X77500000Y-56100000D03*
X75802944Y-60197056D03*
X75802944Y-56802944D03*
X75100000Y-58500000D03*
%TD*%
D12*
%TO.C,J1*%
X145000000Y-70900000D03*
%TD*%
%TO.C,J2*%
X145000000Y-86900000D03*
%TD*%
D10*
%TO.C,H3*%
X75100000Y-99500000D03*
X75802944Y-97802944D03*
X75802944Y-101197056D03*
X77500000Y-97100000D03*
D11*
X77500000Y-99500000D03*
D10*
X77500000Y-101900000D03*
X79197056Y-97802944D03*
X79197056Y-101197056D03*
X79900000Y-99500000D03*
%TD*%
D13*
%TO.C,J3*%
X108599999Y-56300000D03*
D14*
X110600000Y-56300000D03*
%TD*%
D15*
%TO.C,J5*%
X88500000Y-60650000D03*
D14*
X86499999Y-60650000D03*
%TD*%
D16*
%TO.C,J6*%
X77485000Y-90480000D03*
D17*
X77485000Y-87940000D03*
X77485000Y-85400001D03*
X77485000Y-82860000D03*
X77485000Y-80320000D03*
X77485000Y-77780000D03*
X77485000Y-75240000D03*
X77485000Y-72699999D03*
X77485000Y-70160000D03*
X77485000Y-67620000D03*
%TD*%
D18*
%TO.C,J4*%
X86460000Y-97460000D03*
D19*
X83920000Y-94920000D03*
X83920000Y-100000000D03*
X89000000Y-94920000D03*
X89000000Y-100000000D03*
%TD*%
D16*
%TO.C,J7*%
X120200000Y-96125000D03*
D17*
X120200000Y-98665000D03*
%TD*%
D10*
%TO.C,H4*%
X142600000Y-99500000D03*
X143302944Y-97802944D03*
X143302944Y-101197056D03*
X145000000Y-97100000D03*
D11*
X145000000Y-99500000D03*
D10*
X145000000Y-101900000D03*
X146697056Y-97802944D03*
X146697056Y-101197056D03*
X147400000Y-99500000D03*
%TD*%
M02*
